<?xml version="1.0" standalone="no"?>
<!DOCTYPE svg PUBLIC "-//W3C//DTD SVG 1.1//EN" "http://www.w3.org/Graphics/SVG/1.1/DTD/svg11.dtd" >
<svg xmlns="http://www.w3.org/2000/svg" xmlns:xlink="http://www.w3.org/1999/xlink" version="1.1">
<metadata></metadata>
<defs>
<font id="arsenalbold_italic" horiz-adv-x="999" >
<font-face units-per-em="2048" ascent="1638" descent="-410" />
<missing-glyph horiz-adv-x="522" />
<glyph horiz-adv-x="0" />
<glyph unicode="&#xd;" horiz-adv-x="522" />
<glyph horiz-adv-x="0" />
<glyph horiz-adv-x="0" />
<glyph unicode=" "  horiz-adv-x="522" />
<glyph unicode="&#x09;" horiz-adv-x="522" />
<glyph unicode="&#xa0;" horiz-adv-x="522" />
<glyph unicode="!" horiz-adv-x="681" d="M203 106q0 39 18.5 78t50.5 70q51 43 119 43q66 0 109 -43q33 -39 32 -96q0 -41 -17 -80t-50 -68q-55 -43 -121 -43t-106 43q-35 41 -35 96zM346 471l45 940l15 125h311l-15 -125l-221 -940h-135z" />
<glyph unicode="&#x22;" horiz-adv-x="815" d="M227 991l54 545l249 -8l-174 -537h-129zM618 991l54 545l250 -8l-174 -537h-130z" />
<glyph unicode="#" horiz-adv-x="1060" d="M147 381l19 131h164l106 305h-227l18 131h256l97 277l104 -33l-86 -244h242l84 238l106 -33l-72 -205h144l-21 -131h-170l-106 -305h235l-20 -131h-262l-96 -279l-105 35l84 244h-240l-84 -240l-104 35l72 205h-138zM446 512h242l107 305h-242z" />
<glyph unicode="$" horiz-adv-x="854" d="M94 262l92 107q0 -4 28 -35t74 -56.5t107 -25.5q84 0 128 45t44 113q0 53 -34.5 84.5t-112.5 76.5q-66 37 -107 68t-70.5 81t-29.5 122q0 135 80 218t209 111l59 263h133l-8 -254q53 -8 100.5 -25.5t76 -34t36.5 -20.5l-43 -137q-10 6 -46 27.5t-86 42t-95 20.5 q-70 0 -110 -36t-40 -93q0 -55 40 -91t122 -81q72 -41 116 -73t74.5 -83t30.5 -123q0 -137 -83 -230t-242 -118l-52 -227h-133l4 223q-90 10 -148 42t-86 62.5t-28 36.5z" />
<glyph unicode="%" horiz-adv-x="1775" d="M201 877q0 141 52 252.5t147.5 174t222.5 62.5q143 0 224 -94t81 -250q0 -137 -50.5 -247.5t-146.5 -174t-225 -63.5q-150 0 -227.5 92t-77.5 248zM420 834q0 -168 102 -168q82 0 136.5 95t54.5 310q0 168 -109 168q-184 0 -184 -405zM532 16l734 1284l129 -40 l-733 -1285zM1032 301q0 141 52.5 253t147.5 174.5t222 62.5q143 0 224 -94.5t81 -250.5q0 -137 -50 -247.5t-146.5 -174t-225.5 -63.5q-150 0 -227.5 92t-77.5 248zM1251 258q0 -168 103 -168q82 0 136 95.5t54 310.5q1 168 -108 168q-184 0 -185 -406z" />
<glyph unicode="&#x26;" horiz-adv-x="1312" d="M121 307q0 160 91 255t226 136q-141 84 -141 254q0 121 56.5 212t157.5 139.5t230 48.5q61 0 121 -14.5t97.5 -30t48.5 -19.5l-41 -133l-37 18.5t-71 27.5t-79 13q-100 0 -156.5 -74.5t-56.5 -224.5q0 -74 30 -114.5t73 -40.5h219l170 264h106l-37 -264h228l-21 -135 h-227l-39 -283q-10 -78 -10 -115q0 -63 21.5 -85.5t72.5 -22.5q41 0 80 12t39 14l-8 -118q0 -2 -26 -14.5t-73 -24t-116 -11.5q-164 0 -218 95q-113 -94 -292 -95q-207 0 -312.5 90.5t-105.5 239.5zM408 309q0 -90 51 -141t145 -51q123 0 199 84v20q0 27 8 105l39 299h-236 q-86 -6 -146 -91t-60 -225z" />
<glyph unicode="'" horiz-adv-x="423" d="M227 991l54 545l249 -8l-174 -537h-129z" />
<glyph unicode="(" horiz-adv-x="735" d="M219 336q0 115 17 221q43 301 158.5 511t238.5 329t123 102l106 -72q-84 -84 -196.5 -282.5t-167.5 -587.5q-23 -158 -23 -303q0 -182 33 -307t73 -194.5t40 -57.5l-119 -70q0 -14 -79 77t-141.5 249t-62.5 385z" />
<glyph unicode=")" horiz-adv-x="735" d="M29 -305q0 -14 80.5 95.5t161.5 304t122 472.5q20 152 21 289q0 184 -32 311t-72 200t-40 60l121 72q0 14 78 -77t140.5 -248.5t62.5 -385.5q0 -115 -17 -221q-43 -301 -160.5 -511t-242.5 -328.5t-125 -102.5z" />
<glyph unicode="*" horiz-adv-x="839" d="M164 1028l117 264l241 -198l-22 370h254l-138 -368l306 196l41 -264l-332 -31l217 -252l-225 -163l-72 350l-172 -350l-178 163l284 248z" />
<glyph unicode="+" horiz-adv-x="933" d="M131 487l21 152h333l54 377h145l-53 -377h330l-21 -152h-330l-53 -378h-145l53 378h-334z" />
<glyph unicode="," horiz-adv-x="542" d="M78 -272q76 61 131 146t72 163h-17q-55 0 -90 35q-29 39 -29 84q0 35 15.5 67.5t44.5 59.5q43 36 100 36q55 0 92 -36l9 -13l6 -10q23 -41 22 -96q0 -121 -90 -272.5t-209 -239.5z" />
<glyph unicode="-" horiz-adv-x="681" d="M133 487l21 152h555l-21 -152h-555z" />
<glyph unicode="." horiz-adv-x="608" d="M156 106q0 39 18.5 78t50.5 70q53 43 119 43t109 -43q33 -39 32 -96q0 -41 -17 -80t-50 -68q-55 -43 -121 -43t-107 43q-35 41 -34 96z" />
<glyph unicode="/" horiz-adv-x="935" d="M-55 -512l1040 2048h184l-1040 -2048h-184z" />
<glyph unicode="0" horiz-adv-x="1185" d="M168 485q0 389 138 628t462 239q246 0 341 -142.5t95 -353.5q0 -270 -73.5 -469t-209 -304.5t-315.5 -105.5q-219 0 -328.5 132.5t-109.5 375.5zM455 391q0 -272 170 -272q80 0 147.5 84t107.5 260t40 440q0 147 -38 227t-132 80q-138 0 -216.5 -184t-78.5 -635z" />
<glyph unicode="1" horiz-adv-x="815" d="M248 1157l332 174h219l-187 -1331h-268l158 1143l-217 -109z" />
<glyph unicode="2" horiz-adv-x="991" d="M70 0l30 211q100 39 254 162t269.5 296t115.5 353q0 98 -46 138t-134 40q-47 0 -105.5 -22.5t-101.5 -46t-55 -31.5l-6 151q0 2 55 29t130 49.5t153 22.5q199 0 305 -89t106 -237q0 -219 -182 -416.5t-434 -353.5h530l-34 -256h-850z" />
<glyph unicode="3" horiz-adv-x="1007" d="M96 143l90 121q0 -4 37 -41t97.5 -68.5t136.5 -31.5q125 0 187.5 94t62.5 268q0 147 -125 148q-25 0 -51.5 -13.5t-45 -27.5t-22.5 -19l-70 95l383 405h-491l51 258h719l-25 -172l-383 -395h15q145 0 237 -86t92 -238q0 -145 -73.5 -249.5t-192.5 -159t-250 -54.5 q-129 0 -213 37t-125 79t-41 50z" />
<glyph unicode="4" horiz-adv-x="1091" d="M121 326l2 120q115 164 247 430.5t208 487.5l256 -33q-80 -215 -220.5 -431t-310.5 -433h389l168 663h205l-94 -663h131l-19 -117l-133 -22l-45 -328h-278l45 326h-551z" />
<glyph unicode="5" horiz-adv-x="1001" d="M63 139l97 115q0 -4 34.5 -39t94 -63.5t137.5 -28.5q129 0 201.5 102.5t72.5 280.5q0 203 -178 203q-51 0 -94 -18.5t-68 -45.5l-12 -20l-94 14l174 692h610l-51 -266h-485l-60 -244q63 18 123 19q197 0 309.5 -86t112.5 -256t-80 -288t-206 -175.5t-265 -57.5 q-121 0 -203.5 36t-126 78t-43.5 48z" />
<glyph unicode="6" horiz-adv-x="1085" d="M156 422q0 86 15 177t30 140q82 317 230.5 465t340.5 148q66 0 129.5 -17.5t104.5 -37t51 -25.5l-53 -137q-9 6 -43.5 23.5t-84 33.5t-96.5 16q-119 0 -195.5 -96t-119.5 -336q123 86 244 86q170 0 269 -88t99 -260q0 -41 -6 -88q-31 -211 -168 -330t-348 -119 q-190 0 -294.5 110t-104.5 335zM436 317q0 -111 33 -157.5t104 -46.5q88 0 135.5 70.5t69.5 230.5q10 82 10 131q0 94 -31.5 141t-99.5 47q-94 0 -182 -96q-23 -98 -31 -188q-8 -66 -8 -132z" />
<glyph unicode="7" horiz-adv-x="923" d="M193 0q92 223 247.5 470t393.5 589h-613l39 272h819l-30 -215q-154 -217 -311.5 -535.5t-250.5 -580.5h-294z" />
<glyph unicode="8" horiz-adv-x="1097" d="M119 289q0 152 93 244t232 141q-88 31 -148 96.5t-60 173.5q0 193 140 300.5t363 107.5q176 0 289 -80t113 -228q0 -147 -87 -235t-216 -133q102 -27 171.5 -91.5t69.5 -181.5q0 -426 -534 -426q-426 0 -426 312zM424 279q0 -174 143 -175q98 0 153.5 86t55.5 240 q0 78 -33.5 122t-83.5 62q-78 -16 -156.5 -89.5t-78.5 -245.5zM524 911q1 -133 99 -182q80 18 154.5 94t74.5 244q0 158 -135 158q-92 0 -142.5 -86t-50.5 -228z" />
<glyph unicode="9" horiz-adv-x="1085" d="M193 801q0 160 64.5 284.5t182 195.5t271.5 71q190 0 297.5 -109.5t107.5 -333.5q0 -72 -9 -147.5t-20 -118.5q-158 -666 -567 -666q-96 0 -163.5 24t-105.5 51.5t-38 31.5l72 125q0 -2 32.5 -25.5t82 -43t106.5 -19.5q221 0 297 418q-96 -82 -228 -82q-172 0 -277 84 t-105 260zM477 774q0 -188 133 -188q72 0 123 41t74 106q14 76 22 189q4 35 5 92q0 113 -33 158t-101 45q-102 0 -162.5 -117t-60.5 -326z" />
<glyph unicode=":" horiz-adv-x="610" d="M156 106q0 39 18.5 78t50.5 70q53 43 119 43t109 -43q33 -39 32 -96q0 -41 -17 -80t-50 -68q-55 -43 -121 -43t-107 43q-35 41 -34 96zM256 825q0 39 18.5 78t51.5 70q52 43 118 43t109 -43q33 -39 33 -96q0 -41 -17.5 -80t-50.5 -68q-55 -43 -121 -43t-106 43 q-35 41 -35 96z" />
<glyph unicode=";" horiz-adv-x="608" d="M117 -272q76 61 131 146t71 163h-16q-55 0 -90 35q-29 39 -29 84q0 35 15.5 67.5t44.5 59.5q43 36 100 36q55 0 92 -36l8 -13l7 -10q23 -41 22 -96q0 -121 -90 -272.5t-209 -239.5zM256 825q0 39 18.5 78t51.5 70q52 43 118 43t109 -43q33 -39 33 -96q0 -41 -17.5 -80 t-50.5 -68q-55 -43 -121 -43t-106 43q-35 41 -35 96z" />
<glyph unicode="&#x3c;" horiz-adv-x="774" d="M188 645l553 463l68 -94l-381 -369l285 -366l-101 -95z" />
<glyph unicode="=" horiz-adv-x="1073" d="M102 289l21 151h950l-20 -151h-951zM160 686l20 152h950l-20 -152h-950z" />
<glyph unicode="&#x3e;" horiz-adv-x="774" d="M147 279l373 366l-270 369l94 94l424 -463l-555 -461z" />
<glyph unicode="?" horiz-adv-x="911" d="M215 106q0 39 18.5 78t51.5 70q52 43 118 43t109 -43q33 -39 33 -96q0 -41 -17.5 -80t-50.5 -68q-55 -43 -121 -43t-106 43q-35 41 -35 96zM309 1477q0 2 46 23.5t116 38.5t150 17q176 0 269 -96t93 -237q0 -111 -36 -184.5t-87 -116.5t-141 -99q-80 -49 -130 -89 t-86 -104.5t-40 -158.5l-109 -8q4 113 31 186.5t61.5 117.5t92.5 93q57 51 88.5 91t54.5 107.5t23 172.5q0 92 -44.5 139t-121.5 47q-49 0 -96.5 -16.5t-78 -32.5t-38.5 -22z" />
<glyph unicode="@" horiz-adv-x="1765" d="M131 195q0 326 118 578.5t345 395t547 142.5q313 0 474 -150.5t161 -435.5q0 -242 -65.5 -414t-180.5 -260t-260 -88q-80 0 -129 20.5t-68 69.5q-84 -92 -221 -92t-216 84t-79 254q0 154 61.5 276.5t164 192.5t221.5 70q111 0 178 -72l41 35h116l-79 -555q-6 -49 -7 -82 q0 -49 14.5 -68.5t45.5 -19.5q53 0 110.5 60.5t97.5 208t40 390.5q0 233 -107.5 343t-331.5 110q-223 0 -392 -111.5t-263 -333t-94 -538.5q0 -291 129 -433.5t370 -142.5q133 0 240 40t173.5 87t66.5 54l43 -113q0 -8 -70 -61.5t-189.5 -99.5t-283.5 -46q-367 0 -544 182.5 t-177 522.5zM786 272q0 -102 34 -149t102 -47q84 0 139 92l4 29l65 460q-29 68 -114 68q-104 0 -167 -114.5t-63 -338.5z" />
<glyph unicode="A" horiz-adv-x="1245" d="M39 0l629 1331h313l227 -1331h-299l-61 373h-463l-174 -373h-172zM442 502h385l-96 626h-2z" />
<glyph unicode="B" horiz-adv-x="1165" d="M158 0l186 1331h406q215 0 320.5 -85t105.5 -216q0 -119 -70 -203t-174 -133q100 -33 158.5 -99.5t58.5 -164.5q0 -121 -65.5 -219t-195.5 -154.5t-315 -56.5h-415zM459 133h127q125 0 202.5 87t77.5 229q0 88 -42 127.5t-113 39.5h-185zM545 739h168q39 0 83 34 t73.5 96.5t29.5 148.5q0 92 -47 136t-127 44h-115z" />
<glyph unicode="C" horiz-adv-x="1179" d="M156 524q0 240 88 427.5t248.5 294t375.5 106.5q94 0 181.5 -24.5t147.5 -55.5t60 -33l-43 -149q-14 8 -65 33.5t-125 50t-141 24.5q-190 0 -306 -168t-116 -534q0 -186 81 -275.5t226 -89.5q98 0 175 41t125 88t48 53l74 -98q0 -10 -58.5 -70.5t-166 -114t-258.5 -53.5 q-264 0 -407.5 145.5t-143.5 401.5z" />
<glyph unicode="D" horiz-adv-x="1325" d="M158 0l186 1331h453q272 0 415.5 -136t143.5 -402q0 -375 -191.5 -584t-552.5 -209h-454zM461 145h174q418 0 418 701q0 176 -67.5 258t-209.5 82h-170z" />
<glyph unicode="E" horiz-adv-x="1073" d="M158 0l186 1331h799l-21 -147h-516l-61 -439h456l-22 -143h-453l-63 -455h543l-21 -147h-827z" />
<glyph unicode="F" d="M158 0l186 1331h809l-20 -147h-527l-67 -492h456l-20 -143h-457l-78 -549h-282z" />
<glyph unicode="G" horiz-adv-x="1280" d="M156 520q0 250 88 438.5t251.5 291t383.5 102.5q94 0 182 -24.5t150.5 -55.5t62.5 -33l-49 -149q-14 8 -65.5 33.5t-125 50t-141.5 24.5q-432 0 -432 -702q0 -186 65.5 -275.5t186.5 -89.5q109 0 167 58.5t81 121.5l34 252h-207l21 139h446l-98 -702h-123l-55 119 q-129 -141 -338 -142q-236 0 -360.5 141.5t-124.5 401.5z" />
<glyph unicode="H" horiz-adv-x="1341" d="M158 0l186 1331h283l-82 -581h461l81 581h283l-186 -1331h-283l84 606h-461l-84 -606h-282z" />
<glyph unicode="I" horiz-adv-x="600" d="M158 0l186 1331h283l-187 -1331h-282z" />
<glyph unicode="J" horiz-adv-x="786" d="M33 59l47 119q4 -4 21.5 -17.5t49 -25.5t70.5 -12q78 0 127 67.5t76 247.5l125 893h285l-127 -893q-35 -254 -138.5 -357.5t-287.5 -103.5q-80 0 -134.5 18.5t-84 39t-29.5 24.5z" />
<glyph unicode="K" horiz-adv-x="1267" d="M158 0l186 1331h283l-88 -618l135 90l465 528h196l-477 -520l385 -811h-358l-273 598l-98 -61l-74 -537h-282z" />
<glyph unicode="L" horiz-adv-x="980" d="M158 0l186 1331h283l-166 -1184h516l-21 -147h-798z" />
<glyph unicode="M" horiz-adv-x="1753" d="M158 0l202 1331h342l236 -981h8l504 981h317l-172 -1331h-276l125 1008h-4l-512 -1008h-211l-230 1008h-6l-147 -1008h-176z" />
<glyph unicode="N" horiz-adv-x="1333" d="M158 0l186 1331h293l432 -903h6l-2 92l113 811h176l-186 -1331h-222l-493 999h-4v-118l-123 -881h-176z" />
<glyph unicode="O" horiz-adv-x="1357" d="M156 530q0 240 81.5 426.5t238.5 291t376 104.5q270 0 402 -154t132 -395q0 -246 -92 -433.5t-251.5 -290t-356.5 -102.5q-252 0 -391 147.5t-139 405.5zM455 461q0 -158 63.5 -248t181.5 -90q174 0 279.5 176t105.5 563q0 156 -61 249t-186 93q-383 0 -383 -743z" />
<glyph unicode="P" horiz-adv-x="1091" d="M158 0l186 1331h408q203 0 313.5 -91t110.5 -275q0 -186 -83 -309.5t-208 -181.5t-254 -58h-131l-60 -416h-282zM518 547h98q115 0 186.5 105.5t71.5 340.5q0 109 -43 157t-122 48h-99z" />
<glyph unicode="Q" horiz-adv-x="1357" d="M156 530q0 240 81.5 426.5t238.5 291t376 104.5q270 0 402 -154t132 -395q0 -211 -68.5 -380t-191 -278.5t-278.5 -146.5q88 -268 235 -268q33 0 66 12l-4 -125q-68 -23 -125 -23q-150 0 -269.5 113t-166.5 279q-207 27 -317.5 170t-110.5 374zM455 461q0 -158 63.5 -248 t181.5 -90q174 0 279.5 176t105.5 563q0 156 -61 249t-186 93q-383 0 -383 -743z" />
<glyph unicode="R" horiz-adv-x="1183" d="M158 0l186 1331h410q203 0 315.5 -90t112.5 -258q0 -156 -81 -268.5t-210 -173.5l233 -541h-325l-183 483h-108l-68 -483h-282zM526 618h107q127 0 187.5 96.5t60.5 293.5q0 96 -43 143t-131 47h-99z" />
<glyph unicode="S" horiz-adv-x="1007" d="M90 164l94 119q0 -6 37 -46t101.5 -74t152.5 -34q111 0 167 57.5t56 145.5q0 66 -45 110.5t-139 104.5q-84 53 -136 96t-90 110.5t-38 161.5q0 133 64.5 231.5t176 152t250.5 53.5q82 0 149.5 -20.5t113 -46t45.5 -28.5l-45 -139q-11 6 -47.5 27.5t-95 42t-122.5 20.5 q-88 0 -142 -49t-54 -137q0 -74 48 -124t146 -114q82 -55 133.5 -98t87 -108.5t35.5 -155.5q0 -139 -69.5 -239.5t-185 -153t-251.5 -52.5q-129 0 -217 41t-134 89.5t-46 56.5z" />
<glyph unicode="T" horiz-adv-x="1056" d="M195 1184l22 147h1000l-23 -147h-356l-166 -1184h-285l166 1184h-358z" />
<glyph unicode="U" horiz-adv-x="1257" d="M199 375q0 57 8 108l119 848h284l-110 -784q-12 -86 -13 -154q0 -137 50.5 -198.5t154.5 -61.5q137 0 217 100.5t109 313.5l110 784h175l-119 -848q-35 -242 -168 -374t-391 -132q-213 0 -319.5 103.5t-106.5 294.5z" />
<glyph unicode="V" horiz-adv-x="1179" d="M205 1331h299l158 -1124h6l499 1124h179l-615 -1331h-313z" />
<glyph unicode="W" horiz-adv-x="1787" d="M205 1331h301l104 -1007h4l414 1007h227l142 -1001h4l373 1001h180l-535 -1331h-241l-142 983h-6l-412 -983h-245z" />
<glyph unicode="X" horiz-adv-x="1189" d="M16 0l504 647l-299 684h354l179 -477h6l352 477h201l-473 -614l334 -717h-353l-215 508h-4l-373 -508h-213z" />
<glyph unicode="Y" horiz-adv-x="1071" d="M172 1331h317l209 -604h2l373 604h197l-512 -784l-74 -547h-285l72 514z" />
<glyph unicode="Z" horiz-adv-x="1161" d="M86 0l18 119l791 1065h-606l20 147h946l-18 -123l-788 -1061h638l-20 -147h-981z" />
<glyph unicode="[" horiz-adv-x="790" d="M147 -182l232 1638h600l-21 -141h-362l-190 -1358h362l-20 -139h-601z" />
<glyph unicode="\" horiz-adv-x="935" d="M201 1536h184l461 -2048h-182z" />
<glyph unicode="]" horiz-adv-x="790" d="M-10 -182l20 139h359l190 1358h-358l18 139h602l-229 -1636h-602z" />
<glyph unicode="^" horiz-adv-x="731" d="M215 1087l350 343l258 -343l-94 -90l-194 217l-254 -217z" />
<glyph unicode="_" horiz-adv-x="1390" d="M14 -332l21 152h1265l-20 -152h-1266z" />
<glyph unicode="`" horiz-adv-x="495" d="M129 1440l227 71l131 -301l-131 -34z" />
<glyph unicode="a" horiz-adv-x="1110" d="M121 399q0 182 66.5 330t187.5 233t274 85q84 0 134.5 -18.5t72 -40t21.5 -25.5h8l49 61h201l-144 -1024h-209l-32 90h-2q0 -6 -28 -34.5t-88.5 -53.5t-152.5 -25q-162 0 -260 114t-98 308zM408 358q0 -221 159 -221q70 0 116 32t65 60l83 580q-41 82 -145 82 q-131 0 -204.5 -133t-73.5 -400z" />
<glyph unicode="b" horiz-adv-x="1112" d="M119 0l215 1528l274 16l-84 -596h11q0 4 27.5 28.5t83.5 46t138 21.5q160 0 256.5 -112.5t96.5 -302.5q0 -182 -63.5 -330.5t-180.5 -235t-272 -86.5q-84 0 -140.5 20.5t-86 44.5t-29.5 28h-5l-55 -70h-186zM420 197q10 -19 44 -41.5t105 -22.5q131 0 206 133t75 412 q0 209 -162 209q-53 0 -95 -23.5t-66.5 -51.5t-24.5 -32z" />
<glyph unicode="c" horiz-adv-x="913" d="M123 414q0 188 68.5 331.5t196.5 222.5t302 79q68 0 134.5 -21.5t109.5 -44.5t55 -31l-39 -131q-10 6 -48 27.5t-89 42t-92 20.5q-154 0 -230.5 -141t-76.5 -416q0 -125 56 -181t142 -56q72 0 124 28.5t81 61.5t29 37l88 -62q0 -10 -40 -61t-122 -96.5t-209 -45.5 q-207 0 -323.5 114t-116.5 323z" />
<glyph unicode="d" horiz-adv-x="1112" d="M121 410q0 180 63.5 324.5t178 227t258.5 82.5q80 0 131 -17t74.5 -36.5t23.5 -23.5h6l78 561l276 16l-217 -1544h-227l-18 92h-3q0 -6 -28.5 -34.5t-87 -54.5t-146.5 -26q-168 0 -265 119t-97 314zM406 362q0 -121 39.5 -173t121.5 -52q70 0 120 35t65 57l84 592 q-4 6 -20.5 21.5t-50.5 31t-81 15.5q-137 0 -207.5 -132t-70.5 -395z" />
<glyph unicode="e" horiz-adv-x="970" d="M121 399q0 203 70.5 348.5t195.5 221t283 75.5q160 0 252 -81.5t92 -204.5q0 -203 -180.5 -264.5t-430.5 -61.5q-2 -29 -2 -90q0 -123 56.5 -175t158.5 -52q70 0 124.5 24.5t87 54t32.5 33.5l82 -73q0 -9 -45 -54t-129 -84t-205 -39q-199 0 -320.5 105.5t-121.5 316.5z M412 549q106 0 182 15.5t126 66.5t50 153q0 129 -133 129q-86 0 -145.5 -92t-79.5 -272z" />
<glyph unicode="f" horiz-adv-x="704" d="M-178 -473l61 123q4 -2 18.5 -12.5t38 -18.5t48.5 -8q66 0 105.5 72.5t64.5 257.5l131 925h-101l19 123l102 29l23 151q29 186 118 286.5t261 100.5q51 0 99 -15t80 -31.5t40 -22.5l-51 -117q-6 4 -29 15.5t-53.5 22.5t-55.5 11q-39 0 -62.5 -20.5t-43 -81t-35.5 -178.5 l-16 -115h256l-23 -158h-256l-131 -925q-35 -250 -147.5 -363t-280.5 -113q-57 0 -98 13.5t-61.5 30t-20.5 18.5z" />
<glyph unicode="g" horiz-adv-x="944" d="M-2 -221q0 111 47 179.5t119 102.5q-14 43 -14 86q0 137 120 224q-57 41 -88.5 104.5t-31.5 147.5q0 141 64.5 235t171 140t235.5 46h6q74 0 143 -22l281 -2l-11 -121l-104 -6q37 -70 37 -158q0 -205 -126 -319.5t-331 -114.5q-78 0 -139 18q-47 -35 -47 -79 q0 -37 40 -55.5t132 -18.5q227 0 326.5 -76t99.5 -217q0 -184 -127 -297t-375 -113q-209 0 -318.5 85t-109.5 231zM184 -203q0 -94 69 -144t193 -50q129 0 186.5 46t57.5 138q0 74 -53 106.5t-180 32.5q-131 0 -205 41q-68 -59 -68 -170zM410 588q0 -162 118 -162 q82 0 134.5 82t52.5 260q0 80 -31 112.5t-88 32.5q-82 0 -134 -73.5t-52 -251.5z" />
<glyph unicode="h" horiz-adv-x="1091" d="M119 0l215 1528l274 16l-84 -590h8l27 22q27 21 96.5 44.5t149.5 23.5q280 0 280 -260q0 -43 -6 -90l-96 -694h-272l94 672q6 49 6 84q0 68 -26.5 93t-90.5 25q-51 0 -94 -16t-66.5 -33.5t-29.5 -23.5l-113 -801h-272z" />
<glyph unicode="i" horiz-adv-x="509" d="M119 0l143 1024h273l-144 -1024h-272zM304.5 1385.5q17.5 37.5 47.5 64.5q47 41 113 41q63 0 100 -39q31 -39 31 -92q0 -39 -16.5 -77t-47.5 -66q-51 -39 -112 -39q-66 0 -101 41q-32 34 -32 89q0 40 17.5 77.5z" />
<glyph unicode="j" horiz-adv-x="565" d="M-172 -473l61 123q4 -2 17.5 -12.5t37 -18.5t48.5 -8q68 0 107.5 72.5t64.5 257.5l151 1083h273l-152 -1083q-35 -248 -148.5 -362t-279.5 -114q-59 0 -99 13.5t-60.5 30t-20.5 18.5zM342 1311q0 37 17.5 74.5t48.5 64.5q46 41 112 41q63 0 101 -39q30 -38 30 -89 q0 -42 -16.5 -80t-46.5 -66q-51 -39 -113 -39q-66 0 -100 41q-33 35 -33 92z" />
<glyph unicode="k" horiz-adv-x="1003" d="M119 0l215 1528l274 16l-135 -954l156 96l264 338h168l-318 -379l240 -645h-311l-162 479l-57 -33l-62 -446h-272z" />
<glyph unicode="l" horiz-adv-x="512" d="M119 0l215 1528l274 16l-217 -1544h-272z" />
<glyph unicode="m" horiz-adv-x="1548" d="M119 0l143 1024h219l23 -92h6q0 4 39 33.5t100.5 54t136.5 24.5q176 0 220 -116q35 35 108.5 75.5t190.5 40.5q125 0 183 -55t58 -176q0 -29 -8 -98l-100 -715h-273l99 694q6 47 6 78q0 61 -22.5 83t-67.5 22q-53 0 -93 -29t-65 -60l-6 -69l-101 -719h-272l96 694 q6 49 6 80q0 59 -21.5 81t-64.5 22q-82 0 -155 -74l-113 -803h-272z" />
<glyph unicode="n" horiz-adv-x="1093" d="M119 0l143 1024h219l25 -82h6q0 4 36 30.5t101.5 49t157.5 22.5q139 0 209.5 -64.5t70.5 -199.5q0 -39 -6 -86l-96 -694h-272q12 96 42.5 318.5t51.5 353.5q6 43 6 76q0 72 -29.5 99t-95.5 27t-115 -26.5t-69 -46.5l-113 -801h-272z" />
<glyph unicode="o" horiz-adv-x="1075" d="M123 399q0 195 66.5 341.5t192.5 226.5t302 80q193 0 302.5 -110t109.5 -312q0 -195 -70 -341.5t-198 -226.5t-296 -80q-190 0 -299.5 110t-109.5 312zM406 326q0 -213 155 -213q121 0 186.5 145t65.5 440q0 104 -37 157.5t-119 53.5q-120 0 -185.5 -144t-65.5 -439z" />
<glyph unicode="p" horiz-adv-x="1112" d="M47 -520l215 1544h219l25 -92h4q0 4 35 33.5t96 55.5t147 26q158 0 252.5 -112t94.5 -300q0 -186 -62.5 -335.5t-174.5 -236t-257 -86.5q-80 0 -132 17.5t-77.5 37t-25.5 23.5h-7l-80 -567zM418 197q14 -20 48 -42t95 -22q133 0 209 125t76 399q0 123 -43 176.5 t-125 53.5q-49 0 -88 -19.5t-62.5 -42t-23.5 -26.5l-2 2z" />
<glyph unicode="q" horiz-adv-x="1112" d="M121 395q0 184 67.5 333t185.5 234t261 85q76 0 131 -19.5t85 -41t30 -25.5h2l69 63h185l-217 -1536l-275 -8l84 594h-8q0 -4 -27.5 -29t-83 -46.5t-137.5 -21.5q-162 0 -257 114t-95 304zM452 189.5q42 -52.5 126 -52.5q102 0 172 84l84 602q-8 18 -43 43t-99 25 q-282 0 -282 -514q0 -135 42 -187.5z" />
<glyph unicode="r" horiz-adv-x="722" d="M119 0l143 1024h193l22 -172h6q0 10 22.5 59.5t66.5 92.5t112 43q43 0 99.5 -12.5t74.5 -16.5l-45 -191q-18 4 -75.5 16.5t-102.5 12.5q-86 0 -139 -119l-105 -737h-272z" />
<glyph unicode="s" horiz-adv-x="854" d="M74 123l92 106q0 -4 27.5 -34.5t73.5 -56t108 -25.5q84 0 128 45t44 112q0 53 -35 85t-113 77q-66 37 -106.5 67.5t-70 81t-29.5 121.5q0 113 57 191t150.5 116t201.5 38q66 0 127.5 -19.5t100 -40t49.5 -26.5l-43 -138q-10 6 -46 27.5t-86.5 42t-95.5 20.5 q-70 0 -109.5 -35.5t-39.5 -93.5q0 -55 40 -91t122 -81q72 -41 115.5 -72.5t74.5 -82.5t31 -123q0 -160 -110.5 -258.5t-323.5 -98.5q-117 0 -191 33t-108.5 69t-34.5 44z" />
<glyph unicode="t" horiz-adv-x="722" d="M182 866l19 123l104 27l180 348h138l-48 -340h226l-23 -158h-225l-72 -506q-10 -66 -10 -129q0 -61 17.5 -83.5t58.5 -22.5t70.5 7t37.5 11l-2 -116q0 -2 -24.5 -14.5t-71.5 -24t-117 -11.5q-125 0 -185 52.5t-60 171.5q0 41 6 90l80 575h-99z" />
<glyph unicode="u" horiz-adv-x="1093" d="M156 328l98 696h272l-90 -639q-8 -51 -8 -100q0 -76 28.5 -107t88.5 -31q49 0 90 17.5t66.5 36t31.5 24.5l111 799h272l-143 -1024h-219l-27 90h-4q0 -4 -35 -33.5t-100.5 -54.5t-157.5 -25q-280 0 -280 263q0 43 6 88z" />
<glyph unicode="v" horiz-adv-x="978" d="M160 1024h329l99 -729h8l332 729h178l-506 -1024h-227z" />
<glyph unicode="w" horiz-adv-x="1452" d="M164 1024h309l55 -682h7l288 682h189l118 -682h7l260 682h176l-443 -1024h-219l-90 668v2h-6l-283 -670h-219z" />
<glyph unicode="x" horiz-adv-x="968" d="M18 0l385 494l-225 530h326l119 -362l243 362h187l-351 -467l248 -557h-325l-140 383l-276 -383h-191z" />
<glyph unicode="y" d="M-18 -504l43 160q8 -4 37.5 -13.5t62.5 -9.5q94 0 162.5 74t163.5 252l-285 1065h328l149 -725l313 725h168l-503 -1047q-125 -258 -235 -385t-251 -127q-47 0 -81 7.5t-51 14.5t-21 9z" />
<glyph unicode="z" horiz-adv-x="888" d="M53 0l17 123l577 762h-430l12 139h748l-19 -123l-569 -762h447l-17 -139h-766z" />
<glyph unicode="{" horiz-adv-x="831" d="M268 522l17 115l4 35q39 0 86 18.5t82 60.5t35 107q0 39 -5 133q-6 74 -6 144q0 133 39 218t148.5 132t314.5 47l-20 -133q-137 0 -192.5 -62.5t-55.5 -197.5q0 -43 4 -142q4 -98 4 -135q0 -188 -174 -262q121 -53 121 -160q0 -45 -16.5 -104.5t-47.5 -140.5 q-35 -104 -49 -155.5t-14 -98.5q0 -143 194 -144l-18 -135q-223 0 -317.5 65.5t-94.5 194.5q0 68 19.5 137.5t54.5 161.5q4 14 19.5 58.5t22.5 75t7 53.5q0 53 -54 83.5t-108 30.5z" />
<glyph unicode="|" horiz-adv-x="700" d="M201 -512l288 2048h158l-289 -2048h-157z" />
<glyph unicode="}" horiz-adv-x="831" d="M68 -338l20 135q137 0 191.5 62.5t54.5 197.5q0 43 -4 142q-4 98 -4 135q0 188 176 262q-121 53 -121 160q0 45 16.5 104.5t46.5 140.5q35 104 49.5 155.5t14.5 98.5q0 143 -195 144l17 133q225 0 319 -64.5t94 -193.5q0 -66 -18 -133.5t-55 -165.5q-27 -76 -39.5 -116 t-12.5 -73q0 -53 55.5 -83.5t108.5 -30.5l-6 -35h2l-16 -115q-39 0 -87 -18.5t-83 -59.5t-35 -104q0 -59 6 -133q2 -27 4 -65t2 -85q0 -131 -38.5 -216t-148.5 -132t-314 -47z" />
<glyph unicode="~" horiz-adv-x="1224" d="M143 649q0 14 39 88t121 138.5t207 64.5q102 0 171 -34t157 -101q68 -53 114.5 -79t106.5 -26q49 0 82 21.5t48 46.5t15 29l78 -54q0 -14 -39 -88.5t-115.5 -140t-193.5 -65.5q-90 0 -153.5 32.5t-143.5 96.5q-72 57 -123 84.5t-119 27.5q-53 0 -92 -22.5t-60.5 -49 t-21.5 -30.5z" />
<glyph unicode="&#xa2;" horiz-adv-x="913" d="M143 557q0 252 119 418t330 205l57 254h133l-8 -250q57 -8 109.5 -28.5t85 -38t41.5 -23.5l-39 -131q-10 6 -48 27.5t-89.5 42t-92.5 20.5q-154 0 -230.5 -141.5t-76.5 -415.5q0 -125 56.5 -181.5t142.5 -56.5q72 0 124 28.5t80.5 61.5t28.5 37l88 -61q0 -8 -35.5 -56.5 t-109.5 -93.5t-184 -53l-50 -223h-135l6 237q-145 35 -224 142.5t-79 279.5z" />
<glyph unicode="&#xa3;" horiz-adv-x="1087" d="M82 0l37 250h82q74 45 102.5 125t34.5 196l-174 15l18 131h160q0 117 8 213q14 207 137 314.5t330 107.5q66 0 128.5 -18.5t103.5 -39t51 -26.5l-60 -133q-8 6 -38.5 22.5t-71.5 31.5t-74 15q-59 0 -97 -20.5t-62.5 -76.5t-41.5 -165q-20 -141 -41 -225h420l-20 -150 h-436q-63 -205 -164 -317h663l-35 -250h-960z" />
<glyph unicode="&#xa5;" horiz-adv-x="1208" d="M426 1331h317l209 -604h2l373 604h197l-420 -641h192l-18 -129h-258l-8 -14l-17 -121h265l-19 -131h-264l-39 -295h-285l41 295h-241l20 131h240l12 88l-18 47h-218l21 129h149z" />
<glyph unicode="&#xa8;" horiz-adv-x="864" d="M188 1313q0 35 15.5 68.5t42.5 60.5q45 35 100 35q53 0 88 -35q29 -39 29 -84q0 -76 -60 -129q-45 -37 -98 -37t-88 37q-29 35 -29 84zM569 1313q0 35 15.5 68.5t42.5 60.5q45 35 98 35q51 0 90 -35q29 -39 29 -84q0 -76 -60 -129q-45 -37 -100 -37t-86 37q-29 35 -29 84 z" />
<glyph unicode="&#xa9;" horiz-adv-x="1492" d="M203 557q0 242 88 425t254 283.5t391 100.5q258 0 398.5 -155.5t140.5 -419.5q0 -86 -11 -150q-45 -322 -234.5 -501t-490.5 -179q-260 0 -398 163t-138 433zM332 569q0 -225 110.5 -358t309.5 -133q238 0 393 144.5t192 416.5q11 78 11 133q0 221 -115 350t-315 129 q-178 0 -310.5 -82t-204 -236.5t-71.5 -363.5zM530 608q0 125 53.5 218.5t143.5 141.5t195 48q53 0 95 -17.5t66.5 -39t24.5 -23.5l-43 -94q-4 4 -23.5 20.5t-49 30.5t-62.5 14q-88 0 -144.5 -75.5t-56.5 -239.5q0 -86 44 -137.5t108 -51.5q49 0 82.5 21.5t51 46.5t17.5 29 l51 -60q0 -10 -23.5 -46t-80.5 -68.5t-154 -32.5q-80 0 -147.5 39t-107.5 110.5t-40 165.5z" />
<glyph unicode="&#xab;" horiz-adv-x="1097" d="M233 512l418 381l60 -76l-226 -309l138 -307l-80 -80zM612 512l418 381l60 -76l-226 -309l137 -307l-79 -80z" />
<glyph unicode="&#xad;" horiz-adv-x="681" d="M133 487l21 152h555l-21 -152h-555z" />
<glyph unicode="&#xae;" horiz-adv-x="1370" d="M207 782q0 229 87 404.5t244.5 271.5t362.5 96q158 0 273.5 -69.5t176 -195.5t60.5 -292q0 -59 -10 -137q-41 -305 -223.5 -480t-466.5 -175q-162 0 -275.5 73.5t-171 204.5t-57.5 299zM334 793q0 -211 103.5 -341t289.5 -130q221 0 366.5 141t182.5 395q8 57 8 123 q0 211 -105.5 337t-293.5 126q-168 0 -293 -83t-191.5 -231.5t-66.5 -336.5zM561 561l76 553l12 82h203q229 0 229 -168q0 -72 -37.5 -126t-103.5 -83l78 -260h-160l-65 234h-56l-32 -232h-144zM748 872h61q111 0 111 162q0 78 -78 78h-60z" />
<glyph unicode="&#xb4;" horiz-adv-x="495" d="M291 1184l186 311l213 -63l-284 -267z" />
<glyph unicode="&#xb8;" horiz-adv-x="509" d="M-8 -420l61 60q2 -4 13.5 -18.5t34 -28t55.5 -13.5q123 0 123 129q0 41 -28 58.5t-55.5 23.5t-27.5 8l51 199h90l-24 -117q0 -2 42 -18.5t77.5 -51t35.5 -96.5q0 -100 -68.5 -164.5t-197.5 -64.5q-68 0 -107.5 20.5t-57 44t-17.5 29.5z" />
<glyph unicode="&#xbb;" horiz-adv-x="1097" d="M147 195l228 309l-137 309l81 80l308 -391l-416 -381zM526 195l228 309l-138 309l82 80l308 -391l-416 -381z" />
<glyph unicode="&#x2c6;" horiz-adv-x="731" d="M274 1292l236 250h143l164 -250l-69 -92l-189 174l-240 -174z" />
<glyph unicode="&#x2da;" horiz-adv-x="860" d="M276 1309q0 117 69 185.5t175 68.5q84 0 137.5 -50.5t53.5 -136.5q0 -114 -69 -184t-175 -70q-88 0 -139.5 49.5t-51.5 137.5zM371 1321q0 -53 30.5 -82t77.5 -29q63 0 101 41t38 117q0 53 -30.5 81t-77.5 28q-61 0 -100 -40t-39 -116z" />
<glyph unicode="&#x2dc;" horiz-adv-x="876" d="M254 1290q0 6 38 54.5t99.5 89.5t138.5 41q53 0 90 -13.5t87 -40.5q39 -23 64.5 -33t57.5 -10q33 0 57.5 14.5t38 31t15.5 20.5l64 -72q0 -6 -31 -48t-86.5 -78t-134.5 -36q-45 0 -78 12.5t-84 39.5q-41 23 -73 35t-71 12q-33 0 -61.5 -20.5t-45.5 -43t-22 -28.5z" />
<glyph unicode="&#x400;" horiz-adv-x="1073" d="M158 0l186 1331h799l-21 -147h-516l-61 -439h456l-22 -143h-453l-63 -455h543l-21 -147h-827zM528 1716l228 72l131 -301l-131 -35z" />
<glyph unicode="&#x401;" horiz-adv-x="1073" d="M158 0l186 1331h799l-21 -147h-516l-61 -439h456l-22 -143h-453l-63 -455h543l-21 -147h-827zM440 1589q0 35 15.5 69t42.5 60q45 35 100 35q53 0 88 -35q29 -39 29 -84q0 -76 -60 -129q-45 -37 -98 -37q-55 0 -88 37q-29 35 -29 84zM821 1589q0 35 15.5 69t42.5 60 q45 35 98 35q51 0 90 -35q29 -39 29 -84q0 -76 -60 -129q-45 -37 -100 -37t-86 37q-29 35 -29 84z" />
<glyph unicode="&#x402;" horiz-adv-x="1380" d="M211 1186l20 145h916l-21 -145h-315l-63 -457h4q0 4 42 31.5t113.5 51.5t165.5 24q156 0 227.5 -69t71.5 -198q0 -29 -8 -94l-8 -51q-35 -250 -134.5 -348.5t-273.5 -98.5q-57 0 -96 12.5t-57.5 28t-18.5 17.5l53 102q2 -2 13.5 -10t29 -15.5t39.5 -7.5q51 0 91 52.5 t63 205.5l8 58q8 57 8 110q0 82 -31.5 110t-109.5 28q-109 0 -213 -78l-82 -590h-285l166 1186h-315z" />
<glyph unicode="&#x403;" horiz-adv-x="897" d="M158 0l188 1331h715l-12 -147h-445l-164 -1184h-282zM592 1460l186 312l213 -64l-284 -266z" />
<glyph unicode="&#x404;" horiz-adv-x="1200" d="M154 518q0 233 87 424t247.5 300.5t369.5 109.5q94 0 178 -23.5t143.5 -51.5t59.5 -30l-43 -149q-14 8 -63.5 31.5t-122 46t-140.5 22.5q-164 0 -263 -120t-130 -353h602l-20 -143h-594q-2 -31 -2 -97q0 -354 317 -354q96 0 171 42t121 92t46 57l74 -99 q0 -10 -56.5 -73.5t-162 -118t-256.5 -54.5q-262 0 -412.5 143.5t-150.5 397.5z" />
<glyph unicode="&#x405;" horiz-adv-x="1007" d="M90 164l94 119q0 -6 37 -46t101.5 -74t152.5 -34q111 0 167 57.5t56 145.5q0 66 -45 110.5t-139 104.5q-84 53 -136 96t-90 110.5t-38 161.5q0 133 64.5 231.5t176 152t250.5 53.5q82 0 149.5 -20.5t113 -46t45.5 -28.5l-45 -139q-11 6 -47.5 27.5t-95 42t-122.5 20.5 q-88 0 -142 -49t-54 -137q0 -74 48 -124t146 -114q82 -55 133.5 -98t87 -108.5t35.5 -155.5q0 -139 -69.5 -239.5t-185 -153t-251.5 -52.5q-129 0 -217 41t-134 89.5t-46 56.5z" />
<glyph unicode="&#x406;" horiz-adv-x="600" d="M158 0l186 1331h283l-187 -1331h-282z" />
<glyph unicode="&#x407;" horiz-adv-x="600" d="M158 0l186 1331h283l-187 -1331h-282zM180 1589q0 35 15.5 69t42.5 60q45 35 100 35q53 0 88 -35q29 -39 29 -84q0 -76 -60 -129q-47 -37 -98 -37q-55 0 -88 37q-29 35 -29 84zM561 1589q0 35 15.5 69t41.5 60q46 35 99 35q51 0 90 -35q29 -39 29 -84q0 -76 -60 -129 q-47 -37 -100 -37q-55 0 -86 37q-29 35 -29 84z" />
<glyph unicode="&#x408;" horiz-adv-x="819" d="M33 59l47 119q4 -4 21.5 -17.5t49 -25.5t70.5 -12q78 0 127 67.5t76 247.5l125 893h285l-127 -893q-35 -254 -138.5 -357.5t-287.5 -103.5q-80 0 -134.5 18.5t-84 39t-29.5 24.5z" />
<glyph unicode="&#x409;" horiz-adv-x="1820" d="M49 -4l33 180q4 -2 21.5 -6t37.5 -4q143 0 251 274.5t196 890.5h727l-72 -510h96q473 0 473 -329q0 -223 -148 -357.5t-431 -134.5h-387l166 1184h-283q-86 -604 -233.5 -904t-339.5 -300q-49 0 -78 7t-29 9zM1147 133h98q131 0 205 97.5t74 281.5q0 96 -51.5 138 t-151.5 42h-96z" />
<glyph unicode="&#x40a;" horiz-adv-x="1875" d="M158 0l186 1331h283l-82 -581h459l81 581h285l-72 -510h95q473 0 473 -329q0 -223 -148.5 -357.5t-431.5 -134.5h-387l84 606h-459l-84 -606h-282zM1202 133h96q131 0 205 97.5t74 281.5q0 96 -51 138t-152 42h-94z" />
<glyph unicode="&#x40b;" horiz-adv-x="1423" d="M195 1186l22 145h916l-21 -145h-315l-66 -457h4q0 4 43 31.5t115 51.5t166 24q158 0 227.5 -69t69.5 -200q0 -43 -6 -92l-66 -475h-287l60 420q8 59 8 112q0 80 -32 108t-107 28q-70 0 -126.5 -26t-86.5 -52l-84 -590h-285l168 1186h-317z" />
<glyph unicode="&#x40c;" horiz-adv-x="1282" d="M158 0l186 1331h283l-88 -618l135 90l465 528h196l-477 -520l385 -811h-358l-273 598l-98 -61l-74 -537h-282zM725 1460l186 312l213 -64l-284 -266z" />
<glyph unicode="&#x40d;" horiz-adv-x="1384" d="M158 0l186 1331h283l-123 -882l-35 -134h4l653 971l25 45h262l-186 -1331h-283l119 860l35 148h-2l-650 -963l-22 -45h-266zM641 1716l227 72l131 -301l-131 -35z" />
<glyph unicode="&#x40e;" horiz-adv-x="1220" d="M164 29l57 172q4 -4 23.5 -14.5t55.5 -19.5t79 -9q78 0 138.5 29.5t121.5 111.5l-403 1032h331l256 -741h4l347 741h190l-487 -921q-121 -229 -244 -331t-273 -102q-59 0 -103 11.5t-66.5 24t-26.5 16.5zM584 1645q0 14 1 24t1 12l213 19l-4 -25q-2 -4 -8.5 -19.5 t-6.5 -31.5q0 -70 111 -70q76 0 104.5 29t28.5 66q0 10 -2 17t-2 9l4 25l209 -19q0 -23 -24.5 -81t-104.5 -114t-232 -56q-170 0 -229 67.5t-59 147.5z" />
<glyph unicode="&#x40f;" horiz-adv-x="1310" d="M158 0l186 1331h283l-164 -1184h428l166 1184h282l-186 -1331h-373l-100 -418h-158l10 418h-374z" />
<glyph unicode="&#x410;" horiz-adv-x="1245" d="M39 0l629 1331h313l227 -1331h-299l-61 373h-463l-174 -373h-172zM442 502h385l-96 626h-2z" />
<glyph unicode="&#x411;" horiz-adv-x="1132" d="M158 0l186 1331h748l-21 -147h-463l-51 -363h86q231 0 356 -82t125 -247q0 -147 -67.5 -258t-199.5 -172.5t-320 -61.5h-379zM459 133h92q133 0 208 92t75 283q0 102 -51.5 143t-155.5 41h-88z" />
<glyph unicode="&#x412;" horiz-adv-x="1165" d="M158 0l186 1331h406q215 0 320.5 -85t105.5 -216q0 -119 -70 -203t-174 -133q100 -33 158.5 -99.5t58.5 -164.5q0 -121 -65.5 -219t-195.5 -154.5t-315 -56.5h-415zM459 133h127q125 0 202.5 87t77.5 229q0 88 -42 127.5t-113 39.5h-185zM545 739h168q39 0 83 34 t73.5 96.5t29.5 148.5q0 92 -47 136t-127 44h-115z" />
<glyph unicode="&#x413;" horiz-adv-x="897" d="M158 0l188 1331h715l-12 -147h-445l-164 -1184h-282z" />
<glyph unicode="&#x414;" horiz-adv-x="1323" d="M18 -358l50 505h139q111 180 183.5 441.5t137.5 742.5h768l-168 -1184h168l-120 -505h-158l4 358h-729l-133 -358h-142zM373 147h475l145 1037h-319q-62 -398 -131.5 -632.5t-169.5 -404.5z" />
<glyph unicode="&#x415;" horiz-adv-x="1073" d="M158 0l186 1331h799l-21 -147h-516l-61 -439h456l-22 -143h-453l-63 -455h543l-21 -147h-827z" />
<glyph unicode="&#x416;" horiz-adv-x="1832" d="M43 0l494 778l-248 553h203l202 -504h180l72 504h283l-72 -504h162l389 504h203l-430 -508l309 -823h-330l-217 680h-106l-95 -680h-282l94 678h-117l-362 -678h-332z" />
<glyph unicode="&#x417;" horiz-adv-x="1046" d="M51 190l103 107q0 -8 35.5 -51t104 -80t167.5 -37q119 0 188.5 85t69.5 239q0 88 -39 123.5t-115 35.5l-198 -16l22 158l211 -19q39 2 80 39t69.5 107.5t28.5 167.5q0 160 -178 159q-57 0 -121.5 -19.5t-110.5 -41t-59 -27.5l-8 140q0 2 60.5 26.5t144.5 45t170 20.5 q190 0 295.5 -79t105.5 -216q0 -135 -74.5 -225.5t-185.5 -143.5q215 -49 215 -256q0 -131 -68.5 -234.5t-194.5 -162t-294 -58.5q-160 0 -254 47.5t-132 99.5t-38 66z" />
<glyph unicode="&#x418;" horiz-adv-x="1384" d="M158 0l186 1331h283l-123 -882l-35 -134h4l653 971l25 45h262l-186 -1331h-283l119 860l35 148h-2l-650 -963l-22 -45h-266z" />
<glyph unicode="&#x419;" horiz-adv-x="1384" d="M158 0l186 1331h283l-123 -882l-35 -134h4l653 971l25 45h262l-186 -1331h-283l119 860l35 148h-2l-650 -963l-22 -45h-266zM604 1645q0 14 1 24t1 12l213 19l-4 -25q-2 -4 -8 -19.5t-6 -31.5q0 -70 110 -70q76 0 104.5 29t28.5 66q0 10 -2 17t-2 9l4 25l209 -19 q0 -23 -24.5 -81t-104.5 -114t-231 -56q-170 0 -229.5 67.5t-59.5 147.5z" />
<glyph unicode="&#x41a;" horiz-adv-x="1267" d="M158 0l186 1331h283l-88 -618l135 90l465 528h196l-477 -520l385 -811h-358l-273 598l-98 -61l-74 -537h-282z" />
<glyph unicode="&#x41b;" horiz-adv-x="1286" d="M49 -4l33 180q4 -2 21.5 -6t37.5 -4q143 0 251 274.5t196 890.5h727l-187 -1331h-282l166 1184h-283q-86 -604 -233.5 -904t-339.5 -300q-49 0 -78 7t-29 9z" />
<glyph unicode="&#x41c;" horiz-adv-x="1753" d="M158 0l202 1331h342l236 -981h8l504 981h317l-172 -1331h-276l125 1008h-4l-512 -1008h-211l-230 1008h-6l-147 -1008h-176z" />
<glyph unicode="&#x41d;" horiz-adv-x="1341" d="M158 0l186 1331h283l-82 -581h461l81 581h283l-186 -1331h-283l84 606h-461l-84 -606h-282z" />
<glyph unicode="&#x41e;" horiz-adv-x="1357" d="M156 530q0 240 81.5 426.5t238.5 291t376 104.5q270 0 402 -154t132 -395q0 -246 -92 -433.5t-251.5 -290t-356.5 -102.5q-252 0 -391 147.5t-139 405.5zM455 461q0 -158 63.5 -248t181.5 -90q174 0 279.5 176t105.5 563q0 156 -61 249t-186 93q-383 0 -383 -743z" />
<glyph unicode="&#x41f;" horiz-adv-x="1310" d="M158 0l186 1331h995l-186 -1331h-283l166 1184h-428l-168 -1184h-282z" />
<glyph unicode="&#x420;" horiz-adv-x="1091" d="M158 0l186 1331h408q203 0 313.5 -91t110.5 -275q0 -186 -83 -309.5t-208 -181.5t-254 -58h-131l-60 -416h-282zM518 547h98q115 0 186.5 105.5t71.5 340.5q0 109 -43 157t-122 48h-99z" />
<glyph unicode="&#x421;" horiz-adv-x="1179" d="M156 524q0 240 88 427.5t248.5 294t375.5 106.5q94 0 181.5 -24.5t147.5 -55.5t60 -33l-43 -149q-14 8 -65 33.5t-125 50t-141 24.5q-190 0 -306 -168t-116 -534q0 -186 81 -275.5t226 -89.5q98 0 175 41t125 88t48 53l74 -98q0 -10 -58.5 -70.5t-166 -114t-258.5 -53.5 q-264 0 -407.5 145.5t-143.5 401.5z" />
<glyph unicode="&#x422;" horiz-adv-x="1056" d="M195 1184l22 147h1000l-23 -147h-356l-166 -1184h-285l166 1184h-358z" />
<glyph unicode="&#x423;" horiz-adv-x="1220" d="M164 29l57 172q4 -4 23.5 -14.5t55.5 -19.5t79 -9q78 0 138.5 29.5t121.5 111.5l-403 1032h331l256 -741h4l347 741h190l-487 -921q-121 -229 -244 -331t-273 -102q-59 0 -103 11.5t-66.5 24t-26.5 16.5z" />
<glyph unicode="&#x424;" horiz-adv-x="1572" d="M137 584q0 188 86 325.5t238.5 210t351.5 78.5l18 133h283l-18 -133q247 -6 387.5 -119.5t140.5 -326.5q0 -188 -87 -327.5t-240.5 -214.5t-350.5 -79l-18 -131h-283l19 131q-244 4 -385.5 122t-141.5 331zM432 549q0 -137 60.5 -210t187.5 -81l115 813 q-180 -10 -271.5 -146.5t-91.5 -375.5zM963 258q182 8 275 146.5t93 379.5q0 277 -254 285z" />
<glyph unicode="&#x425;" horiz-adv-x="1189" d="M16 0l504 647l-299 684h354l179 -477h6l352 477h201l-473 -614l334 -717h-353l-215 508h-4l-373 -508h-213z" />
<glyph unicode="&#x426;" horiz-adv-x="1366" d="M158 0l186 1331h283l-164 -1184h428l166 1184h282l-165 -1184h165l-129 -505h-153l4 358h-903z" />
<glyph unicode="&#x427;" horiz-adv-x="1200" d="M219 762q0 47 6 96l68 473h282l-61 -438q-10 -76 -10 -115q0 -86 33.5 -119.5t105.5 -33.5q106 0 209 51l92 655h285l-187 -1331h-284l76 545q0 -4 -41 -25.5t-112 -40t-165 -18.5q-156 0 -226.5 80t-70.5 221z" />
<glyph unicode="&#x428;" horiz-adv-x="1781" d="M158 0l186 1331h283l-164 -1184h307l166 1184h283l-166 -1184h307l166 1184h284l-186 -1331h-1466z" />
<glyph unicode="&#x429;" horiz-adv-x="1830" d="M158 0l186 1331h283l-164 -1184h307l166 1184h283l-166 -1184h307l166 1184h284l-165 -1184h155l-123 -505h-153l6 358h-1372z" />
<glyph unicode="&#x42a;" horiz-adv-x="1318" d="M195 1184l22 147h596l-72 -510h97q473 0 473 -329q0 -223 -148.5 -357.5t-431.5 -134.5h-387l166 1184h-315zM645 133h98q131 0 205 97.5t74 281.5q0 96 -51 138t-152 42h-96z" />
<glyph unicode="&#x42b;" horiz-adv-x="1648" d="M158 0l186 1331h283l-72 -510h96q473 0 473 -329q0 -223 -148.5 -357.5t-430.5 -134.5h-387zM459 133h98q131 0 205 97.5t74 281.5q0 96 -51.5 138t-151.5 42h-96zM1208 0l187 1331h282l-186 -1331h-283z" />
<glyph unicode="&#x42c;" horiz-adv-x="1132" d="M158 0l186 1331h283l-72 -510h96q473 0 473 -329q0 -223 -148.5 -357.5t-430.5 -134.5h-387zM459 133h98q131 0 205 97.5t74 281.5q0 96 -51.5 138t-151.5 42h-96z" />
<glyph unicode="&#x42d;" horiz-adv-x="1155" d="M57 201l99 123q0 -7 41 -57t110.5 -92t163.5 -42q152 0 252 107.5t139 353.5h-573l20 145h568q6 72 6 154q0 168 -75 237.5t-220 69.5q-68 0 -135.5 -20.5t-111.5 -42t-56 -27.5l-15 143q14 8 69.5 32t137.5 45.5t164 21.5q266 0 406.5 -141.5t140.5 -393.5 q0 -244 -83 -435.5t-236.5 -298t-356.5 -106.5q-152 0 -253 49.5t-151.5 106.5t-50.5 68z" />
<glyph unicode="&#x42e;" horiz-adv-x="1890" d="M158 0l186 1331h283l-84 -594h164q51 281 230 448t460 167q254 0 389 -148.5t135 -408.5q0 -238 -86 -423.5t-248 -290t-383 -104.5q-252 0 -383 145.5t-131 407.5q0 43 2 64h-170l-82 -594h-282zM983 471q0 -172 60.5 -263t181.5 -91q182 0 287.5 190.5t105.5 552.5 q0 170 -60.5 261t-179.5 91q-117 0 -206 -84t-139 -250.5t-50 -406.5z" />
<glyph unicode="&#x42f;" horiz-adv-x="1183" d="M74 0l352 549q-92 37 -146.5 111.5t-54.5 189.5q0 152 67.5 260.5t182.5 164.5t254 56h483l-186 -1331h-285l72 514h-151l-297 -514h-291zM508 836q0 -86 38 -133.5t101 -47.5h187l77 541h-188q-57 0 -106.5 -43t-79 -125t-29.5 -192z" />
<glyph unicode="&#x430;" horiz-adv-x="1110" d="M121 399q0 182 66.5 330t187.5 233t274 85q84 0 134.5 -18.5t72 -40t21.5 -25.5h8l49 61h201l-144 -1024h-209l-32 90h-2q0 -6 -28 -34.5t-88.5 -53.5t-152.5 -25q-162 0 -260 114t-98 308zM408 358q0 -221 159 -221q70 0 116 32t65 60l83 580q-41 82 -145 82 q-131 0 -204.5 -133t-73.5 -400z" />
<glyph unicode="&#x431;" horiz-adv-x="1077" d="M133 455q0 270 69.5 501.5t226.5 385t400 178.5l285 28l-27 -268l-219 -10q-256 -13 -398 -160t-165 -387h17q16 61 66 136t135 131.5t198 56.5q180 0 279.5 -101.5t99.5 -298.5t-68.5 -349.5t-194.5 -236.5t-292 -84q-135 0 -228.5 66t-138.5 174.5t-45 237.5zM412 362 q0 -111 37.5 -180t109.5 -69q119 0 188.5 139t69.5 432q0 119 -36 173t-113 54q-70 0 -128.5 -60t-93 -184t-34.5 -305z" />
<glyph unicode="&#x432;" horiz-adv-x="1017" d="M119 0l143 1024q37 4 153.5 13.5t196.5 9.5q211 0 314.5 -64.5t103.5 -185.5q0 -193 -225 -273q82 -20 139 -69t57 -129q0 -348 -512 -349q-147 0 -258.5 10.5t-111.5 12.5zM406 100h79q117 0 178.5 66.5t61.5 179.5q0 127 -131 127h-135zM471 569h150q0 -6 37.5 11.5 t68.5 65.5t31 138q0 141 -174 142q-37 0 -62 -2z" />
<glyph unicode="&#x433;" horiz-adv-x="878" d="M113 258q0 115 53 177.5t127 88t194 45.5q72 12 117 57.5t45 153.5q0 59 -44 92t-126 33q-59 0 -112.5 -20.5t-90 -46t-36.5 -27.5l-23 127q0 4 44 31.5t119 51t175 23.5q172 0 270.5 -75.5t98.5 -202.5q0 -111 -56.5 -170t-130 -81.5t-200.5 -45.5q-70 -12 -110 -59.5 t-40 -159.5q0 -59 44 -96t110 -37q74 0 127 27.5t84.5 60.5t31.5 37l82 -72q0 -8 -46 -57.5t-129 -92.5t-197 -43q-178 0 -279.5 75t-101.5 206z" />
<glyph unicode="&#x434;" horiz-adv-x="1112" d="M76 -379l90 117q0 -6 32.5 -40t90 -62.5t137.5 -28.5q86 0 140.5 30.5t90 111.5t58.5 237l2 14l8 47h-10q0 -2 -28 -20.5t-79 -34t-125 -15.5q-170 0 -265 113t-95 313q0 182 66.5 329t182 231t257.5 84q92 0 147 -24t78 -49.5t23 -31.5l57 82h201l-152 -1077 q-37 -256 -191.5 -369t-349.5 -113q-121 0 -201.5 35t-122.5 75t-42 46zM410 381q0 -129 44 -188.5t132 -59.5q45 0 80.5 14.5t56 30t22.5 21.5l84 592q-6 29 -38.5 66.5t-108.5 37.5q-125 0 -198.5 -129t-73.5 -385z" />
<glyph unicode="&#x435;" horiz-adv-x="970" d="M121 399q0 203 70.5 348.5t195.5 221t283 75.5q160 0 252 -81.5t92 -204.5q0 -203 -180.5 -264.5t-430.5 -61.5q-2 -29 -2 -90q0 -123 56.5 -175t158.5 -52q70 0 124.5 24.5t87 54t32.5 33.5l82 -73q0 -9 -45 -54t-129 -84t-205 -39q-199 0 -320.5 105.5t-121.5 316.5z M412 549q106 0 182 15.5t126 66.5t50 153q0 129 -133 129q-86 0 -145.5 -92t-79.5 -272z" />
<glyph unicode="&#x436;" horiz-adv-x="1441" d="M18 0l355 553l-154 471h184l117 -399l160 49l49 350h272l-61 -444l121 49l278 395h187l-305 -420l223 -604h-295l-135 461l-96 -31l-60 -430h-272l73 532l-79 -26l-277 -506h-285z" />
<glyph unicode="&#x437;" horiz-adv-x="903" d="M43 154l90 98q0 -6 31 -41t88 -64.5t141 -29.5q96 0 150.5 61.5t54.5 167.5q0 59 -39 88t-100 29l-166 -10l20 137l176 -8h7q27 4 59.5 26.5t56 67.5t23.5 110q0 61 -47 90t-127 29q-49 0 -106.5 -18.5t-100.5 -38t-55 -25.5l-13 135q15 7 65 28.5t126 41t151 19.5 q184 0 287 -66t103 -176q0 -193 -216 -270q82 -27 134.5 -79.5t52.5 -131.5q0 -164 -127 -255.5t-332 -91.5q-137 0 -223 39t-125 83t-39 55z" />
<glyph unicode="&#x438;" horiz-adv-x="1122" d="M119 0l143 1024h273l-95 -672l469 672h238l-143 -1024h-273l98 711l-497 -711h-213z" />
<glyph unicode="&#x439;" horiz-adv-x="1122" d="M119 0l143 1024h273l-95 -672l469 672h238l-143 -1024h-273l98 711l-497 -711h-213zM457 1368q0 14 1 24.5t1 12.5l213 18l-4 -24q-2 -4 -8.5 -19.5t-6.5 -31.5q0 -70 111 -70q76 0 104.5 28.5t28.5 65.5q0 10 -2 17.5t-2 9.5l4 24l209 -18q0 -23 -24.5 -81 t-104.5 -114.5t-232 -56.5q-170 0 -229 67.5t-59 147.5z" />
<glyph unicode="&#x43a;" horiz-adv-x="1005" d="M119 0l143 1024h273l-62 -430l154 70l278 360h158l-297 -385l217 -639h-309l-137 487l-82 -32l-64 -455h-272z" />
<glyph unicode="&#x43b;" horiz-adv-x="987" d="M-16 -16l28 163q6 -2 21 -2q141 0 234 259.5t132 619.5h611l-144 -1024h-272l123 874h-182q-49 -367 -163 -632t-329 -265q-29 0 -59 7z" />
<glyph unicode="&#x43c;" horiz-adv-x="1382" d="M109 0l198 1024h328l94 -733h4l334 733h322l-117 -1024h-254l76 672l14 110h-4l-373 -782h-186l-137 782h-5l-10 -57l-133 -725h-151z" />
<glyph unicode="&#x43d;" horiz-adv-x="1099" d="M119 0l143 1024h273l-62 -428h318l61 428h272l-143 -1024h-272l63 457h-317l-64 -457h-272z" />
<glyph unicode="&#x43e;" horiz-adv-x="1075" d="M123 399q0 195 66.5 341.5t192.5 226.5t302 80q193 0 302.5 -110t109.5 -312q0 -195 -70 -341.5t-198 -226.5t-296 -80q-190 0 -299.5 110t-109.5 312zM406 326q0 -213 155 -213q121 0 186.5 145t65.5 440q0 104 -37 157.5t-119 53.5q-120 0 -185.5 -144t-65.5 -439z" />
<glyph unicode="&#x43f;" horiz-adv-x="1087" d="M119 0l143 1024h848l-143 -1024h-273l123 874h-303l-123 -874h-272z" />
<glyph unicode="&#x440;" horiz-adv-x="1112" d="M47 -520l215 1544h219l25 -92h4q0 4 35 33.5t96 55.5t147 26q158 0 252.5 -112t94.5 -300q0 -186 -62.5 -335.5t-174.5 -236t-257 -86.5q-80 0 -132 17.5t-77.5 37t-25.5 23.5h-7l-80 -567zM418 197q14 -20 48 -42t95 -22q133 0 209 125t76 399q0 123 -43 176.5 t-125 53.5q-49 0 -88 -19.5t-62.5 -42t-23.5 -26.5l-2 2z" />
<glyph unicode="&#x441;" horiz-adv-x="913" d="M123 414q0 188 68.5 331.5t196.5 222.5t302 79q68 0 134.5 -21.5t109.5 -44.5t55 -31l-39 -131q-10 6 -48 27.5t-89 42t-92 20.5q-154 0 -230.5 -141t-76.5 -416q0 -125 56 -181t142 -56q72 0 124 28.5t81 61.5t29 37l88 -62q0 -10 -40 -61t-122 -96.5t-209 -45.5 q-207 0 -323.5 114t-116.5 323z" />
<glyph unicode="&#x442;" horiz-adv-x="905" d="M143 874l23 150h860l-22 -150h-293l-123 -874h-271l123 874h-297z" />
<glyph unicode="&#x443;" d="M-18 -504l43 160q8 -4 37.5 -13.5t62.5 -9.5q94 0 162.5 74t163.5 252l-285 1065h328l149 -725l313 725h168l-503 -1047q-125 -258 -235 -385t-251 -127q-47 0 -81 7.5t-51 14.5t-21 9z" />
<glyph unicode="&#x444;" horiz-adv-x="1425" d="M123 418q0 193 74.5 335t207 218t302.5 76l18 -5l6 37q35 250 146.5 363.5t277.5 113.5q57 0 98 -13t61.5 -29.5t20.5 -18.5l-53 -117q-4 2 -18.5 12.5t-38 18.5t-47.5 8q-72 0 -114 -75.5t-69 -262.5l-6 -32h21q203 0 318.5 -116t115.5 -327q0 -195 -75 -336t-207 -216 t-302 -75l-20 5l-4 -41q-35 -250 -146.5 -363t-277.5 -113q-59 0 -99.5 13.5t-61 30t-20.5 18.5l54 115q4 -2 18 -12.5t38 -18.5t48 -8q72 0 114 75.5t68 262.5l4 36h-18q-203 0 -318.5 116t-115.5 325zM395 387q0 -145 51.5 -208.5t149.5 -65.5l111 796q-164 -2 -238 -130 t-74 -392zM858 115q154 4 233.5 129t79.5 395q0 143 -51 205.5t-149 66.5z" />
<glyph unicode="&#x445;" horiz-adv-x="968" d="M18 0l385 494l-225 530h326l119 -362l243 362h187l-351 -467l248 -557h-325l-140 383l-276 -383h-191z" />
<glyph unicode="&#x446;" horiz-adv-x="1132" d="M119 0l143 1024h273l-121 -874h301l123 874h272l-123 -874h135l-94 -453h-143l8 303h-774z" />
<glyph unicode="&#x447;" d="M154 590q0 33 6 69l51 365h272l-53 -373q-4 -37 -4 -49q0 -57 24.5 -82.5t75.5 -25.5q39 0 74 8t55.5 17t26.5 11l70 494h272l-143 -1024h-273l60 422h-2q0 -2 -32 -15.5t-89.5 -25.5t-136.5 -12q-254 0 -254 221z" />
<glyph unicode="&#x448;" horiz-adv-x="1538" d="M119 0l143 1024h273l-123 -874h241l123 874h273l-123 -874h239l123 874h273l-144 -1024h-1298z" />
<glyph unicode="&#x449;" horiz-adv-x="1581" d="M119 0l143 1024h273l-123 -874h241l123 874h273l-123 -874h239l123 874h273l-123 -874h135l-92 -453h-144l6 303h-1224z" />
<glyph unicode="&#x44a;" horiz-adv-x="1179" d="M160 874l20 150h539l-49 -346q49 4 96 4q178 0 295 -77t117 -218q0 -190 -128 -300t-378 -110q-111 0 -223.5 9.5t-145.5 13.5l123 874h-266zM590 102q33 -2 86 -2q96 0 153.5 90.5t57.5 212.5q0 158 -150 158q-35 0 -84 -6z" />
<glyph unicode="&#x44b;" horiz-adv-x="1464" d="M119 0l143 1024h273l-50 -346q50 4 97 4q178 0 294.5 -77t116.5 -218q0 -190 -128 -300t-378 -110q-111 0 -223 9.5t-145 13.5zM406 102q33 -2 86 -2q96 0 153 90.5t57 212.5q0 158 -149 158q-35 0 -84 -6zM1073 0l144 1024h272l-143 -1024h-273z" />
<glyph unicode="&#x44c;" horiz-adv-x="997" d="M119 0l143 1024h273l-50 -346q50 4 97 4q178 0 294.5 -77t116.5 -218q0 -190 -128 -300t-378 -110q-111 0 -223 9.5t-145 13.5zM406 102q33 -2 86 -2q96 0 153 90.5t57 212.5q0 158 -149 158q-35 0 -84 -6z" />
<glyph unicode="&#x44d;" horiz-adv-x="923" d="M41 158l86 96q0 -4 35 -41t92 -67.5t133 -30.5q117 0 188.5 77.5t96.5 253.5l-408 -10l23 156h397q2 20 2 65q0 141 -62.5 197.5t-170.5 56.5q-49 0 -100.5 -17t-86.5 -35.5t-43 -24.5l-8 133q12 6 54 25.5t106.5 37t128.5 17.5q201 0 322.5 -111t121.5 -303 q0 -209 -72.5 -356.5t-194.5 -223.5t-269 -76q-129 0 -211 40t-121 85t-39 56z" />
<glyph unicode="&#x44e;" horiz-adv-x="1464" d="M119 0l143 1024h273l-62 -428h111q41 213 168 332t327 119q201 0 304.5 -106.5t103.5 -309.5q0 -305 -137.5 -479.5t-405.5 -174.5q-178 0 -278.5 106.5t-100.5 307.5q0 43 2 66h-112l-64 -457h-272zM815 334q0 -225 148 -225q119 0 186.5 146t67.5 437q0 223 -150 223 q-121 0 -186.5 -141t-65.5 -440z" />
<glyph unicode="&#x44f;" horiz-adv-x="1003" d="M61 0l279 449q-74 35 -119 91t-45 130q0 174 128 275.5t349 101.5q131 0 252 -10.5t121 -12.5l-143 -1024h-273l56 399h-105l-223 -399h-277zM442 670q0 -76 45 -113t119 -37h78l55 404q-29 2 -82 2q-98 0 -156.5 -73t-58.5 -183z" />
<glyph unicode="&#x450;" horiz-adv-x="970" d="M121 399q0 203 70.5 348.5t195.5 221t283 75.5q160 0 252 -81.5t92 -204.5q0 -203 -180.5 -264.5t-430.5 -61.5q-2 -29 -2 -90q0 -123 56.5 -175t158.5 -52q70 0 124.5 24.5t87 54t32.5 33.5l82 -73q0 -9 -45 -54t-129 -84t-205 -39q-199 0 -320.5 105.5t-121.5 316.5z M412 549q106 0 182 15.5t126 66.5t50 153q0 129 -133 129q-86 0 -145.5 -92t-79.5 -272zM442 1440l228 71l131 -301l-131 -34z" />
<glyph unicode="&#x451;" horiz-adv-x="970" d="M121 399q0 203 70.5 348.5t195.5 221t283 75.5q160 0 252 -81.5t92 -204.5q0 -203 -180.5 -264.5t-430.5 -61.5q-2 -29 -2 -90q0 -123 56.5 -175t158.5 -52q70 0 124.5 24.5t87 54t32.5 33.5l82 -73q0 -9 -45 -54t-129 -84t-205 -39q-199 0 -320.5 105.5t-121.5 316.5z M344 1313q0 35 15.5 68.5t41.5 60.5q46 35 101 35q53 0 88 -35q29 -39 28 -84q0 -76 -59 -129q-47 -37 -98 -37q-55 0 -88 37q-29 35 -29 84zM412 549q106 0 182 15.5t126 66.5t50 153q0 129 -133 129q-86 0 -145.5 -92t-79.5 -272zM725 1313q0 35 15.5 68.5t41.5 60.5 q46 35 99 35q51 0 90 -35q29 -39 28 -84q0 -76 -59 -129q-45 -37 -100 -37t-86 37q-29 35 -29 84z" />
<glyph unicode="&#x452;" horiz-adv-x="1097" d="M125 0l147 1067h-96l17 119l100 20l45 322l274 16l-47 -332h332l-20 -145h-332l-39 -289h10l26 24q25 23 92.5 47.5t147.5 24.5q139 0 212 -71.5t73 -210.5q0 -37 -6 -84l-80 -563q-23 -152 -86.5 -260.5t-151.5 -164t-180 -55.5q-94 0 -168 56l62 137q39 -23 75 -23 q121 0 168 256l80 560q10 72 11 108q0 78 -31 112t-94 34q-98 0 -183 -84l-86 -621h-272z" />
<glyph unicode="&#x453;" horiz-adv-x="784" d="M98 258q0 115 53.5 177.5t127 88t194.5 45.5q72 12 117 57.5t45 153.5q0 59 -44 92t-126 33q-59 0 -112.5 -20.5t-90.5 -46t-37 -27.5l-22 127q0 4 44 31.5t118.5 51t175.5 23.5q172 0 270 -75.5t98 -202.5q0 -111 -56 -170t-130 -81.5t-201 -45.5q-70 -12 -109.5 -59.5 t-39.5 -159.5q0 -59 44 -96t109 -37q74 0 127.5 27.5t85 60.5t31.5 37l82 -72q0 -8 -46 -57.5t-129 -92.5t-198 -43q-178 0 -279.5 75t-101.5 206zM508 1184l186 311l213 -63l-284 -267z" />
<glyph unicode="&#x454;" horiz-adv-x="915" d="M123 416q0 180 70.5 323.5t198.5 225.5t294 82q66 0 128.5 -21.5t107.5 -47.5t45 -28l-39 -131q-10 6 -46 27.5t-85 42t-90 20.5q-117 0 -189 -72.5t-98 -254.5l395 8l-22 -158h-385v-72q0 -246 208 -245q70 0 122.5 26.5t84 57t31.5 34.5l64 -79q0 -9 -41 -54t-123 -84 t-205 -39q-195 0 -310.5 116t-115.5 323z" />
<glyph unicode="&#x455;" horiz-adv-x="854" d="M74 123l92 106q0 -4 27.5 -34.5t73.5 -56t108 -25.5q84 0 128 45t44 112q0 53 -35 85t-113 77q-66 37 -106.5 67.5t-70 81t-29.5 121.5q0 113 57 191t150.5 116t201.5 38q66 0 127.5 -19.5t100 -40t49.5 -26.5l-43 -138q-10 6 -46 27.5t-86.5 42t-95.5 20.5 q-70 0 -109.5 -35.5t-39.5 -93.5q0 -55 40 -91t122 -81q72 -41 115.5 -72.5t74.5 -82.5t31 -123q0 -160 -110.5 -258.5t-323.5 -98.5q-117 0 -191 33t-108.5 69t-34.5 44z" />
<glyph unicode="&#x456;" horiz-adv-x="509" d="M119 0l143 1024h273l-144 -1024h-272zM287 1311q0 37 17.5 74.5t47.5 64.5q47 41 113 41q63 0 100 -39q31 -39 31 -92q0 -39 -16.5 -77t-47.5 -66q-51 -39 -112 -39q-66 0 -101 41q-33 35 -32 92z" />
<glyph unicode="&#x457;" horiz-adv-x="509" d="M115 1313q0 35 15 68.5t42 60.5q45 35 100 35q53 0 88 -35q29 -39 29 -84q0 -76 -59 -129q-45 -37 -99 -37q-53 0 -88 37q-29 35 -28 84zM119 0l143 1024h273l-144 -1024h-272zM496 1313q0 35 15 68.5t42 60.5q45 35 98 35q51 0 90 -35q29 -39 29 -84q0 -76 -59 -129 q-45 -37 -101 -37q-55 0 -86 37q-29 35 -28 84z" />
<glyph unicode="&#x458;" horiz-adv-x="565" d="M-172 -473l61 123q4 -2 17.5 -12.5t37 -18.5t48.5 -8q68 0 107.5 72.5t64.5 257.5l151 1083h273l-152 -1083q-35 -248 -148.5 -362t-279.5 -114q-59 0 -99 13.5t-60.5 30t-20.5 18.5zM344 1311q0 37 17.5 74.5t48.5 64.5q46 41 112 41q63 0 101 -39q31 -39 30 -92 q0 -39 -16 -77t-47 -66q-51 -39 -113 -39q-66 0 -100 41q-33 35 -33 92z" />
<glyph unicode="&#x459;" horiz-adv-x="1505" d="M16 -16l29 163q6 -2 21 -2q141 0 234 259.5t132 619.5h610l-49 -346q50 4 97 4q178 0 294.5 -77t116.5 -218q0 -190 -128 -300t-378 -110q-111 0 -223.5 9.5t-144.5 13.5l123 874h-183q-49 -367 -162.5 -632t-328.5 -265q-29 0 -60 7zM913 102q33 -2 86 -2 q96 0 153.5 90.5t57.5 212.5q0 158 -149 158q-35 0 -84 -6z" />
<glyph unicode="&#x45a;" horiz-adv-x="1585" d="M119 0l143 1024h273l-62 -428h315l62 428h274l-49 -346q49 4 94 4q178 0 295 -77t117 -218q0 -190 -128 -300t-378 -110q-111 0 -223.5 9.5t-144.5 13.5l63 457h-315l-64 -457h-272zM995 102q31 -2 84 -2q96 0 153.5 90.5t57.5 212.5q0 158 -149 158q-33 0 -82 -6z" />
<glyph unicode="&#x45b;" horiz-adv-x="1097" d="M125 0l147 1067h-96l17 119l100 20l45 322l274 16l-47 -332h332l-20 -145h-332l-39 -289h10l26 24q25 23 92.5 47.5t147.5 24.5q139 0 212 -71.5t73 -210.5q0 -37 -6 -84l-72 -508h-272l63 451q10 72 11 108q0 78 -31 112t-94 34q-98 0 -183 -84l-86 -621h-272z" />
<glyph unicode="&#x45c;" horiz-adv-x="1005" d="M119 0l143 1024h273l-62 -430l154 70l278 360h158l-297 -385l217 -639h-309l-137 487l-82 -32l-64 -455h-272zM610 1184l187 311l213 -63l-285 -267z" />
<glyph unicode="&#x45d;" horiz-adv-x="1122" d="M119 0l143 1024h273l-95 -672l469 672h238l-143 -1024h-273l98 711l-497 -711h-213zM496 1440l227 71l131 -301l-131 -34z" />
<glyph unicode="&#x45e;" d="M-18 -504l43 160q8 -4 37.5 -13.5t62.5 -9.5q94 0 162.5 74t163.5 252l-285 1065h328l149 -725l313 725h168l-503 -1047q-125 -258 -235 -385t-251 -127q-47 0 -81 7.5t-51 14.5t-21 9zM416 1368q0 14 1 24.5t1 12.5l213 18l-4 -24q-2 -4 -8.5 -19.5t-6.5 -31.5 q0 -70 111 -70q76 0 104.5 28.5t28.5 65.5q0 10 -2 17.5t-2 9.5l4 24l209 -18q0 -23 -24.5 -81t-104.5 -114.5t-231 -56.5q-170 0 -229.5 67.5t-59.5 147.5z" />
<glyph unicode="&#x45f;" horiz-adv-x="1138" d="M119 0l143 1024h273l-121 -874h354l123 874h272l-143 -1024h-348l-68 -303h-151l6 303h-340z" />
<glyph unicode="&#x462;" horiz-adv-x="1265" d="M184 1106l23 158h260l20 141h285l-20 -141h354l-23 -158h-354l-39 -287h107q229 0 346 -78.5t117 -244.5q0 -227 -143.5 -361.5t-426.5 -134.5h-399l153 1106h-260zM594 133h111q133 0 199.5 95.5t66.5 287.5q0 94 -46 133t-145 39h-108z" />
<glyph unicode="&#x463;" horiz-adv-x="1140" d="M152 874l14 150h242l28 197l275 16l-31 -213h278l-18 -133h-278l-31 -219h94q201 0 307.5 -63.5t106.5 -205.5q0 -403 -508 -403h-365l121 874h-235zM555 123h82q102 0 156.5 72.5t54.5 207.5q0 84 -40 116t-110 32h-84z" />
<glyph unicode="&#x46a;" horiz-adv-x="1566" d="M33 0l22 156q53 369 211 518t383 153l-248 504h1098l-395 -504h4q199 0 316.5 -106.5t117.5 -370.5q0 -94 -14 -194l-23 -156h-250l23 160q16 125 16 202q0 182 -70.5 252t-213.5 74l-99 -688h-284l98 688q-119 -4 -199 -48t-135 -157.5t-86 -322.5l-22 -160h-250z M776 1188l160 -369l281 369h-441z" />
<glyph unicode="&#x46b;" horiz-adv-x="1314" d="M61 0q51 358 173 496.5t311 142.5l-203 385h909l-303 -385h4q158 0 244 -88t86 -315q0 -100 -18 -236h-232q25 178 25 283q0 141 -43 191t-140 50l-75 -524h-273l76 524q-88 0 -143.5 -41t-95 -153.5t-70.5 -329.5h-232zM653 913l138 -305l235 305h-373z" />
<glyph unicode="&#x472;" horiz-adv-x="1357" d="M156 530q0 240 81.5 426.5t238.5 291t376 104.5q270 0 402 -154t132 -395q0 -246 -92 -433.5t-251.5 -290t-356.5 -102.5q-252 0 -391 147.5t-139 405.5zM455 461q0 -158 63.5 -248t181.5 -90q142 0 239 114.5t130 364.5h-610q-4 -90 -4 -141zM469 729h612q4 82 4 133 q0 156 -61 249t-186 93q-308 0 -369 -475z" />
<glyph unicode="&#x473;" horiz-adv-x="1075" d="M123 399q0 195 66.5 341.5t192.5 226.5t302 80q193 0 302.5 -110t109.5 -312q0 -195 -70 -341.5t-198 -226.5t-296 -80q-190 0 -299.5 110t-109.5 312zM406 326q0 -213 155 -213q90 0 150.5 83t85.5 253h-387q-4 -78 -4 -123zM422 575h387q4 78 4 123q0 104 -37 157.5 t-119 53.5q-188 0 -235 -334z" />
<glyph unicode="&#x474;" horiz-adv-x="1245" d="M205 1331h299l158 -1124h6l323 827q68 176 164 247t199 71q45 -1 84 -17l-39 -192q-23 8 -49 8q-156 0 -279 -307l-344 -844h-309z" />
<glyph unicode="&#x475;" horiz-adv-x="1009" d="M160 1024h329l93 -729h4l209 504q55 131 121.5 188t152.5 57q45 0 82 -14l-21 -147q-25 6 -45 6q-59 0 -102 -45t-82 -137l-303 -707h-225z" />
<glyph unicode="&#x48a;" horiz-adv-x="1447" d="M154 0l190 1331h283l-127 -882l-33 -134h4l655 971l25 45h262l-170 -1184h176l-6 -45l-266 -460h-152l117 358h-172l123 860l33 148h-2l-652 -963l-22 -45h-266z" />
<glyph unicode="&#x48b;" horiz-adv-x="1185" d="M117 0l145 1024h273l-97 -674l471 674h238l-125 -874h145l-4 -39l-233 -414h-139l98 303h-160l102 715l-501 -715h-213z" />
<glyph unicode="&#x48c;" horiz-adv-x="1157" d="M113 1010l20 147h215l25 174h282l-24 -174h225l-20 -147h-226l-26 -189h96q227 0 349 -81t122 -242q0 -33 -6 -70q-29 -205 -174.5 -316.5t-399.5 -111.5h-387l144 1010h-215zM485 133h99q121 0 184 66.5t84 220.5q6 49 6 86q0 102 -47 144t-149 42h-97z" />
<glyph unicode="&#x48d;" horiz-adv-x="1052" d="M121 874l16 115l182 17l76 522l275 16l-74 -520h217l-22 -150h-218l-28 -202h96q412 0 412 -269q0 -14 -4 -55q-27 -178 -151 -263t-353 -85h-369l125 874h-180zM467 123h84q86 0 137 48t70 177q4 41 4 55q0 84 -40 116t-110 32h-84z" />
<glyph unicode="&#x48e;" horiz-adv-x="1087" d="M156 0l188 1331h408q203 0 312.5 -90t109.5 -268q0 -43 -7 -92q-23 -152 -99.5 -253.5t-190.5 -156.5l71 -162l-129 -67l-82 184q-61 -10 -108 -10h-131l-60 -416h-282zM516 547h98q41 0 68 8l-76 178l129 70l64 -150q39 68 61 215q10 82 10 127q0 111 -41 157t-122 46 h-99z" />
<glyph unicode="&#x48f;" horiz-adv-x="1103" d="M43 -520l219 1544h219l23 -92h6q0 4 39 33.5t104.5 55.5t151.5 26q156 0 242 -104.5t86 -289.5q0 -63 -9 -121q-29 -193 -111.5 -328.5t-207.5 -191.5l59 -141l-129 -70l-76 176h-20q-80 0 -132 17.5t-78 37t-26 23.5h-6l-82 -567zM418 201q0 -4 16.5 -20.5t47 -32 t77.5 -15.5q23 0 33 2l-76 182l129 70l78 -184q74 90 106 323q12 92 13 158q0 113 -38 158t-118 45q-70 0 -119 -33t-65 -55z" />
<glyph unicode="&#x490;" horiz-adv-x="860" d="M158 0l186 1331h492l86 205h137l-35 -360h-418l-166 -1176h-282z" />
<glyph unicode="&#x491;" horiz-adv-x="714" d="M-172 -473l61 123q4 -2 17.5 -12.5t37 -18.5t48.5 -8q68 0 107.5 72.5t64.5 257.5l151 1083h330l92 279h137l-45 -429h-262l-131 -933q-35 -248 -148.5 -362t-279.5 -114q-59 0 -99 13.5t-60.5 30t-20.5 18.5z" />
<glyph unicode="&#x492;" horiz-adv-x="897" d="M145 602l21 127h94l86 602h715l-12 -147h-445l-63 -455h178l-21 -127h-174l-84 -602h-282l86 602h-99z" />
<glyph unicode="&#x493;" horiz-adv-x="761" d="M4 449l16 126h111l66 449h616l-22 -150h-345l-43 -299h170l-16 -126h-172l-63 -449h-273l66 449h-111z" />
<glyph unicode="&#x494;" horiz-adv-x="1171" d="M154 0l190 1331h741l-22 -147h-459l-168 -1184h-282zM442 -399l68 127q37 -23 98 -23q49 0 89 46t77 176t72 372q18 135 18 221q0 119 -34.5 165t-110.5 46q-90 0 -187 -61l21 147q170 82 287 82q109 0 181.5 -30.5t113.5 -112.5t41 -230q0 -94 -19 -227 q-55 -393 -199.5 -566t-326.5 -173q-66 0 -105 8t-84 33z" />
<glyph unicode="&#x495;" horiz-adv-x="997" d="M88 0l145 1024h617l-21 -150h-344l-49 -339l8 51q39 27 108 50t159 23q137 0 204.5 -69.5t67.5 -251.5q0 -92 -18 -221q-49 -340 -173 -496t-276 -156q-111 0 -170 52l60 114q29 -20 83 -20q43 0 77 38t66 148.5t60 319.5q18 127 19 200q0 98 -31 135t-96 37 q-80 0 -162 -55l-62 -434h-272z" />
<glyph unicode="&#x496;" horiz-adv-x="1808" d="M43 0l494 778l-248 553h203l202 -504h180l72 504h283l-72 -504h162l389 504h203l-430 -508l254 -673h118l-94 -453h-143l8 303h-164l-217 680h-106l-95 -680h-282l94 678h-117l-362 -678h-332z" />
<glyph unicode="&#x497;" horiz-adv-x="1486" d="M18 0l355 553l-154 471h184l117 -399l160 49l49 350h272l-61 -444l121 49l278 395h187l-305 -420l168 -454h112l-94 -453h-143l8 303h-123l-135 461l-96 -31l-60 -430h-272l73 532l-79 -26l-277 -506h-285z" />
<glyph unicode="&#x498;" horiz-adv-x="1046" d="M51 190l103 107q0 -8 35.5 -51t104 -80t167.5 -37q119 0 188.5 85t69.5 239q0 88 -39 123.5t-115 35.5l-198 -16l22 158l211 -19q39 2 80 39t69.5 107.5t28.5 167.5q0 160 -178 159q-57 0 -121.5 -19.5t-110.5 -41t-59 -27.5l-8 140q0 2 60.5 26.5t144.5 45t170 20.5 q190 0 295.5 -79t105.5 -216q0 -135 -74.5 -225.5t-185.5 -143.5q215 -49 215 -256q0 -174 -115.5 -295t-316.5 -151l-88 -344h-154l4 344q-115 16 -184 62t-98 89t-29 53z" />
<glyph unicode="&#x499;" horiz-adv-x="903" d="M43 154l90 98q0 -6 31 -41t88 -64.5t141 -29.5q96 0 150.5 61.5t54.5 167.5q0 59 -39 88t-100 29l-166 -10l20 137l176 -8h7q27 4 59.5 26.5t56 67.5t23.5 110q0 61 -47 90t-127 29q-49 0 -106.5 -18.5t-100.5 -38t-55 -25.5l-13 135q14 6 64.5 28t126.5 41.5t151 19.5 q184 0 287 -66t103 -176q0 -193 -216 -270q82 -27 134.5 -79.5t52.5 -131.5q0 -141 -94.5 -228.5t-257.5 -111.5l-60 -287h-143l8 287q-104 12 -171 50t-97.5 75.5t-30.5 44.5z" />
<glyph unicode="&#x49a;" horiz-adv-x="1234" d="M158 0l186 1331h283l-88 -618l135 90l465 528h196l-477 -520l313 -661h109l-94 -453h-144l9 303h-166l-273 598l-98 -61l-74 -537h-282z" />
<glyph unicode="&#x49b;" horiz-adv-x="1011" d="M119 0l143 1024h273l-62 -430l154 70l278 360h158l-297 -385l166 -489h94l-94 -453h-144l9 303h-123l-137 487l-82 -32l-64 -455h-272z" />
<glyph unicode="&#x49c;" horiz-adv-x="1267" d="M96 0l187 1331h282l-94 -663l68 45l36 229h87l-27 -166l39 27l465 528h196l-477 -520l385 -811h-358l-273 598l-8 -4l-33 -205h-86l23 143l-62 -38l-67 -494h-283z" />
<glyph unicode="&#x49d;" horiz-adv-x="1005" d="M49 0l144 1024h272l-66 -465l60 27l28 180h86l-22 -137l76 35l278 360h158l-297 -385l217 -639h-309l-137 487l-9 -4l-24 -147h-86l18 110l-57 -22l-57 -424h-273z" />
<glyph unicode="&#x49e;" horiz-adv-x="1314" d="M113 1010l20 147h215l25 174h282l-24 -174h209l-21 -147h-209l-43 -295l156 88l465 528h196l-477 -520l383 -811h-358l-273 598l-116 -61l-76 -537h-283l144 1010h-215z" />
<glyph unicode="&#x49f;" horiz-adv-x="1071" d="M66 784l16 113l182 16l17 111h272l-14 -92h196l-20 -148h-197l-29 -200l191 67l281 373h157l-299 -395l230 -629h-310l-149 473l-121 -29l-63 -444h-273l113 784h-180z" />
<glyph unicode="&#x4a0;" horiz-adv-x="1495" d="M195 1184l24 147h635l-88 -618l135 90l465 528h197l-478 -520l385 -811h-358l-272 598l-99 -61l-73 -537h-283l166 1184h-356z" />
<glyph unicode="&#x4a1;" horiz-adv-x="1208" d="M143 874l23 150h571l-61 -430l153 70l279 360h158l-297 -385l217 -639h-309l-138 487l-82 -32l-63 -455h-272l122 874h-301z" />
<glyph unicode="&#x4a2;" horiz-adv-x="1341" d="M158 0l186 1331h283l-82 -581h461l81 581h283l-166 -1184h170l-129 -505h-153l4 358h-195l84 606h-461l-84 -606h-282z" />
<glyph unicode="&#x4a3;" horiz-adv-x="1099" d="M119 0l143 1024h273l-62 -428h318l61 428h272l-123 -874h140l-94 -453h-144l8 303h-202l63 457h-317l-64 -457h-272z" />
<glyph unicode="&#x4a4;" horiz-adv-x="1656" d="M158 0l186 1331h283l-82 -581h461l81 581h744l-25 -147h-456l-166 -1184h-283l84 606h-461l-84 -606h-282z" />
<glyph unicode="&#x4a5;" horiz-adv-x="1345" d="M119 0l143 1024h273l-62 -428h318l61 428h618l-24 -150h-342l-123 -874h-272l63 457h-317l-64 -457h-272z" />
<glyph unicode="&#x4a6;" horiz-adv-x="1884" d="M154 0l190 1331h995l-73 -514q170 82 286 82q109 0 181.5 -30.5t113.5 -112.5t41 -230q0 -94 -18 -227q-55 -393 -199.5 -566t-327.5 -173q-65 0 -104 8t-84 33l68 127q37 -23 98 -23q49 0 89 46t77 176t72 372q18 135 18 221q0 119 -35 165t-110 46q-90 0 -187 -61 l-96 -670h-283l168 1184h-430l-168 -1184h-282z" />
<glyph unicode="&#x4a7;" horiz-adv-x="1601" d="M117 0l145 1024h848l-61 -438q39 27 107.5 50t158.5 23q137 0 204.5 -69.5t67.5 -251.5q0 -92 -18 -221q-49 -340 -173 -496t-276 -156q-111 1 -170 52l60 114q29 -20 84 -20q43 0 76.5 38t65.5 148.5t60 319.5q18 127 19 200q0 98 -31 135t-96 37q-78 0 -162 -55 l-61 -434h-273l125 874h-303l-125 -874h-272z" />
<glyph unicode="&#x4a8;" horiz-adv-x="1531" d="M150 504q0 84 10 147q47 334 220 509t429 192l-23 -154q-125 -23 -200.5 -151.5t-114.5 -395.5q-16 -121 -16 -198q0 -178 63.5 -254t177.5 -76q55 0 95 10q-127 178 -127 393q0 59 8 109q39 276 175 402t314 126q358 0 359 -370q0 -74 -11 -138q-23 -160 -113.5 -301 t-221.5 -209q55 -10 94 -10t73.5 9.5t88.5 33.5l28 -115q-61 -40 -142 -63t-169 -23q-135 0 -229 48q-49 -25 -119 -36.5t-131 -11.5q-254 0 -386 140.5t-132 386.5zM952 498q0 -96 18.5 -172t53.5 -101q66 57 114 175t64 233q20 141 21 233q0 80 -19.5 116t-62.5 36 q-70 0 -111 -97.5t-67 -285.5q-11 -76 -11 -137z" />
<glyph unicode="&#x4a9;" horiz-adv-x="1409" d="M117 395q0 59 8 109q37 266 183.5 400t387.5 145l-18 -136q-113 -12 -171 -105t-89 -304q-12 -88 -12 -154q0 -135 51 -185t155 -50q37 0 78 12q-106 123 -106 285q0 41 6 80q29 199 153.5 304t286.5 105q344 0 344 -303q0 -41 -6 -90q-18 -123 -97 -226.5t-202 -156.5 q29 -6 53 -6q96 0 197 39l31 -111q-164 -67 -297 -67q-152 0 -240 45q-45 -20 -108.5 -32.5t-110.5 -12.5q-242 0 -359.5 109.5t-117.5 305.5zM860 416q0 -78 20.5 -140.5t51.5 -80.5q57 45 93 125.5t48 168.5q14 111 14 156q0 61 -17 91t-56 30q-61 0 -94 -71.5t-54 -202.5 q-6 -37 -6 -76z" />
<glyph unicode="&#x4aa;" horiz-adv-x="1179" d="M156 524q0 240 88 427.5t248.5 294t375.5 106.5q94 0 181.5 -24.5t147.5 -55.5t60 -33l-43 -149q-14 8 -65 33.5t-125 50t-141 24.5q-191 0 -306.5 -168t-115.5 -534q0 -186 81 -275.5t226 -89.5q98 0 175 41t125 88t48 53l74 -98q0 -8 -47 -59.5t-133 -103.5t-207 -68 l-86 -342h-154l4 348q-201 37 -306 176t-105 358z" />
<glyph unicode="&#x4ab;" horiz-adv-x="913" d="M123 414q0 188 68.5 331.5t196.5 222.5t302 79q68 0 134.5 -21.5t109.5 -44.5t55 -31l-39 -131q-10 6 -48 27.5t-89 42t-92 20.5q-154 0 -230.5 -141t-76.5 -416q0 -125 56 -181t142 -56q72 0 124 28.5t81 61.5t29 37l88 -62q0 -8 -33 -52t-99.5 -88t-166.5 -58l-60 -285 h-143l8 293q-152 31 -234.5 140.5t-82.5 283.5z" />
<glyph unicode="&#x4ac;" horiz-adv-x="1056" d="M195 1184l22 147h1000l-23 -147h-356l-148 -1037h166l-129 -505h-154l5 358h-193l168 1184h-358z" />
<glyph unicode="&#x4ad;" horiz-adv-x="909" d="M147 874l19 150h862l-20 -150h-295l-105 -724h135l-94 -453h-143l8 303h-197l125 874h-295z" />
<glyph unicode="&#x4ae;" horiz-adv-x="1071" d="M172 1331h317l209 -604h2l373 604h197l-512 -784l-74 -547h-285l72 514z" />
<glyph unicode="&#x4af;" horiz-adv-x="978" d="M160 1024h329l89 -791h8l342 791h178l-483 -1020l-72 -516l-272 -8l71 522z" />
<glyph unicode="&#x4b0;" horiz-adv-x="1071" d="M172 1331h317l209 -604h2l373 604h197l-500 -766h127l-20 -127h-134l-59 -438h-285l62 438h-137l20 127h109z" />
<glyph unicode="&#x4b1;" horiz-adv-x="978" d="M160 1024h329l89 -791h8l342 791h178l-455 -961h119l-20 -126h-138l-61 -449l-272 -8l63 457h-145l20 126h121z" />
<glyph unicode="&#x4b2;" horiz-adv-x="1259" d="M12 0l506 647l-297 684h354l179 -477h6l352 477h201l-477 -614l264 -570h166l-129 -505h-154l4 358h-170l-213 508h-6l-373 -508h-213z" />
<glyph unicode="&#x4b3;" horiz-adv-x="1011" d="M16 0l385 496l-223 528h326l119 -362l243 362h187l-351 -465l179 -409h135l-94 -453h-144l8 303h-163l-138 383l-278 -383h-191z" />
<glyph unicode="&#x4b4;" horiz-adv-x="1626" d="M127 1184l23 147h946l-23 -147h-315l-148 -1037h471l170 1184h283l-170 -1184h166l-129 -505h-154l4 358h-944l168 1184h-348z" />
<glyph unicode="&#x4b5;" horiz-adv-x="1386" d="M96 874l19 150h790l-20 -150h-232l-104 -724h364l125 874h273l-125 -874h135l-94 -453h-144l9 303h-836l125 874h-285z" />
<glyph unicode="&#x4b6;" horiz-adv-x="1200" d="M219 762q0 47 6 96l68 473h282l-61 -438q-10 -76 -10 -115q0 -86 33.5 -119.5t105.5 -33.5q106 0 209 51l92 655h285l-166 -1184h168l-129 -505h-154l4 358h-194l76 545q0 -4 -41 -25.5t-112 -40t-165 -18.5q-156 0 -226.5 80t-70.5 221z" />
<glyph unicode="&#x4b7;" d="M154 590q0 33 6 69l51 365h272l-53 -373q-4 -37 -4 -49q0 -57 24.5 -82.5t75.5 -25.5q39 0 74 8t55.5 17t26.5 11l70 494h272l-123 -874h139l-94 -453h-143l8 303h-203l60 422h-2q0 -2 -32 -15.5t-89.5 -25.5t-136.5 -12q-254 0 -254 221z" />
<glyph unicode="&#x4b8;" horiz-adv-x="1200" d="M219 762q0 47 6 96l68 473h282l-61 -438q-10 -76 -10 -115q0 -86 33.5 -119.5t105.5 -33.5l35 211h86l-33 -201q53 10 86 24.5t35 16.5l92 655h285l-187 -1331h-284l76 545q0 -2 -37 -21.5t-90 -36.5l-33 -204h-86l30 184q-47 -6 -102 -6q-156 0 -226.5 80t-70.5 221z " />
<glyph unicode="&#x4b9;" d="M154 590q0 33 6 69l51 365h272l-53 -373q-4 -37 -4 -49q0 -90 66 -104l22 143h86l-22 -143q39 6 67.5 17t36.5 15l70 494h272l-143 -1024h-273l60 422h-2q-6 -4 -34 -16.5t-73 -22.5l-29 -172h-86l27 160q-20 -2 -63 -2q-254 0 -254 221z" />
<glyph unicode="&#x4ba;" horiz-adv-x="1196" d="M158 0l186 1331h285l-76 -545q0 4 41 26t111.5 40t164.5 18q156 0 226.5 -79.5t70.5 -221.5q0 -47 -6 -96l-67 -473h-283l61 438q10 76 11 115q0 88 -33 121t-107 33q-106 0 -208 -52l-93 -655h-284z" />
<glyph unicode="&#x4bb;" horiz-adv-x="1091" d="M119 0l215 1528l274 16l-84 -590h8l27 22q27 21 96.5 44.5t149.5 23.5q281 0 280 -262q0 -41 -6 -88l-96 -694h-272l94 672q6 49 6 84q0 68 -26.5 93t-90.5 25q-51 0 -94 -16t-66.5 -33.5t-29.5 -23.5l-113 -801h-272z" />
<glyph unicode="&#x4bc;" horiz-adv-x="1542" d="M70 897q0 37 2 57l243 47q-4 -61 -4 -88q0 -74 27 -114.5t98 -53.5q66 276 245 441.5t431 165.5q227 0 348 -133.5t121 -370.5q0 -57 -10 -143l-8 -48q-2 -27 -9 -55h-829q-8 -90 -8 -123q0 -186 75.5 -267t221.5 -81q96 0 180 42t140.5 92t56.5 57l73 -99 q0 -8 -66.5 -72.5t-181 -119t-266.5 -54.5q-260 0 -402 138.5t-142 388.5q0 51 6 102q-176 10 -259 80t-83 211zM748 745h536q12 84 12 150q0 166 -62.5 237.5t-156.5 71.5q-115 0 -205 -105.5t-124 -353.5z" />
<glyph unicode="&#x4bd;" horiz-adv-x="1169" d="M68 705q0 33 2 51l215 39q-2 -25 -2 -72q0 -57 15 -89t58 -44q55 221 191.5 337.5t324.5 116.5q166 0 255.5 -91t89.5 -261q0 -59 -9 -110q-12 -84 -34 -129h-551q-8 -63 -9 -123q0 -115 43 -165t140 -50q70 0 127 29.5t94 65.5t37 40l82 -72q0 -8 -50.5 -59 t-137.5 -96.5t-204 -45.5q-198 0 -306.5 96.5t-108.5 299.5q0 27 4 84q-133 12 -199.5 69.5t-66.5 178.5zM641 586h313l7 47q12 78 12 131q0 80 -29 114.5t-90 34.5q-57 0 -95 -28.5t-66.5 -99t-51.5 -199.5z" />
<glyph unicode="&#x4be;" horiz-adv-x="1609" d="M70 897q0 37 2 57l243 47q-4 -61 -4 -88q0 -74 25.5 -114.5t97.5 -53.5q66 276 245 441.5t431 165.5q227 0 349 -133.5t122 -372.5q0 -59 -10 -141q-2 -14 -8.5 -52.5t-10.5 -50.5h-829q-6 -63 -6 -119q0 -188 75.5 -270t221.5 -82q96 0 180 42t140.5 92t56.5 57l73 -99 q0 -6 -54 -60t-146.5 -107.5t-214.5 -69.5l-97 -404h-157l8 410q-190 35 -293.5 167t-103.5 343q0 49 6 104q-176 10 -259 80t-83 211zM745 745h537q12 84 12 150q0 166 -62.5 237.5t-156.5 71.5q-115 0 -205 -105.5t-125 -353.5z" />
<glyph unicode="&#x4bf;" horiz-adv-x="1169" d="M68 705q0 33 2 51l213 39q-2 -25 -2 -68q0 -59 15 -92t60 -45q55 221 191.5 337.5t324.5 116.5q166 0 255.5 -91t89.5 -265q0 -57 -9 -106q-8 -51 -19 -86t-15 -43h-551q-10 -78 -11 -125q0 -115 44 -164t141 -49q70 0 127 29.5t94 65.5t37 40l82 -72q0 -4 -38 -46 t-104.5 -85t-154.5 -59l-64 -291h-151l6 291q-143 25 -222 119t-79 264q0 55 4 86q-135 12 -200.5 69.5t-65.5 178.5zM641 586h313l7 47q12 78 12 131q0 80 -29 114.5t-90 34.5q-57 0 -95 -28.5t-66.5 -99t-51.5 -199.5z" />
<glyph unicode="&#x4c0;" horiz-adv-x="600" d="M158 0l186 1331h283l-187 -1331h-282z" />
<glyph unicode="&#x4c1;" horiz-adv-x="1832" d="M43 0l494 778l-248 553h203l202 -504h180l72 504h283l-72 -504h162l389 504h203l-430 -508l309 -823h-330l-217 680h-106l-95 -680h-282l94 678h-117l-362 -678h-332zM811 1675q0 14 1 24.5t1 12.5l213 18l-4 -24q-2 -4 -8.5 -19.5t-6.5 -31.5q0 -70 111 -70 q76 0 104.5 28.5t28.5 65.5q0 10 -2 17.5t-2 9.5l4 24l209 -18q0 -23 -24.5 -81t-104.5 -114.5t-231 -56.5q-170 0 -229.5 67.5t-59.5 147.5z" />
<glyph unicode="&#x4c2;" horiz-adv-x="1441" d="M18 0l355 553l-154 471h184l117 -399l160 49l49 350h272l-61 -444l121 49l278 395h187l-305 -420l223 -604h-295l-135 461l-96 -31l-60 -430h-272l73 532l-79 -26l-277 -506h-285zM533 1368q0 14 1 24.5t1 12.5l213 18l-4 -24q-2 -4 -8.5 -19.5t-6.5 -31.5q0 -70 111 -70 q76 0 104.5 28.5t28.5 65.5q0 10 -2 17.5t-2 9.5l4 24l209 -18q0 -23 -24.5 -81t-104.5 -114.5t-231 -56.5q-170 0 -229.5 67.5t-59.5 147.5z" />
<glyph unicode="&#x4c3;" horiz-adv-x="1257" d="M154 0l190 1331h283l-92 -637l133 88l471 549h196l-481 -540q184 -313 253 -492.5t69 -282.5q0 -25 -5 -57q-14 -104 -73.5 -202.5t-210.5 -196.5l-82 84q41 22 72.5 67t31.5 121q0 104 -70.5 290.5t-232.5 455.5l-96 -62l-74 -516h-282z" />
<glyph unicode="&#x4c4;" horiz-adv-x="1015" d="M117 0l145 1024h273l-64 -449l139 68l281 381h158l-299 -403q109 -205 157.5 -338t48.5 -236q0 -23 -4 -63q-12 -94 -72.5 -187.5t-201.5 -185.5l-64 78q2 0 22.5 12t44.5 44t30 71q2 12 2 39q0 178 -193 610l-69 -29l-62 -436h-272z" />
<glyph unicode="&#x4c5;" horiz-adv-x="1353" d="M49 -4l35 180q6 -2 24.5 -6t36.5 -4q143 0 250 272.5t197 892.5h727l-170 -1184h176l-6 -45l-266 -460h-152l117 358h-172l168 1184h-283q-88 -604 -234.5 -904t-338.5 -300q-49 0 -79 7t-30 9z" />
<glyph unicode="&#x4c6;" horiz-adv-x="1050" d="M-16 -16l32 163q8 -2 25 -2q127 0 213 226.5t147 652.5h611l-125 -874h145l-4 -39l-233 -414h-140l99 303h-160l125 874h-184q-70 -412 -195 -654.5t-305 -242.5q-25 0 -51 7z" />
<glyph unicode="&#x4c7;" horiz-adv-x="1337" d="M154 0l190 1331h283l-84 -581h461l83 581h283l-188 -1311q-35 -254 -141.5 -357t-297.5 -103q-92 0 -148 18.5t-79.5 40t-23.5 25.5l79 118q2 -4 17.5 -18t45.5 -26.5t71 -12.5q78 0 123.5 66.5t70.5 248.5l84 586h-461l-86 -606h-282z" />
<glyph unicode="&#x4c8;" horiz-adv-x="1099" d="M117 0l145 1024h273l-62 -428h318l61 428h272l-153 -1083q-35 -248 -148.5 -362t-279.5 -114q-60 0 -100 13.5t-61.5 30t-21.5 18.5l64 123q4 -2 17.5 -12.5t37 -18.5t47.5 -8q66 0 106 72.5t66 257.5l74 516h-317l-66 -457h-272z" />
<glyph unicode="&#x4c9;" horiz-adv-x="1404" d="M154 0l190 1331h283l-84 -581h461l83 581h283l-170 -1184h176l-6 -45l-266 -460h-152l117 358h-172l86 606h-461l-86 -606h-282z" />
<glyph unicode="&#x4ca;" horiz-adv-x="1150" d="M117 0l145 1024h273l-62 -428h318l61 428h272l-125 -874h136l-95 -453h-143l8 303h-198l65 457h-317l-66 -457h-272z" />
<glyph unicode="&#x4cb;" horiz-adv-x="1200" d="M219 762q0 47 6 96l68 473h282l-61 -438q-10 -76 -10 -115q0 -86 33.5 -119.5t105.5 -33.5q106 0 209 51l92 655h285l-166 -1184h168l-129 -505h-154l4 358h-194l76 545q0 -4 -41 -25.5t-112 -40t-165 -18.5q-156 0 -226.5 80t-70.5 221z" />
<glyph unicode="&#x4cc;" d="M154 590q0 33 6 69l51 365h272l-53 -373q-4 -37 -4 -49q0 -57 24.5 -82.5t75.5 -25.5q39 0 74 8t55.5 17t26.5 11l70 494h272l-123 -874h139l-94 -453h-143l8 303h-203l60 422h-2q0 -2 -32 -15.5t-89.5 -25.5t-136.5 -12q-254 0 -254 221z" />
<glyph unicode="&#x4cd;" horiz-adv-x="1798" d="M137 0l207 1331h342l234 -981h8l506 981h317l-158 -1184h176l-6 -45l-266 -460h-151l116 358h-164l129 1008h-6l-514 -1008h-211l-227 1008h-6l-150 -1008h-176z" />
<glyph unicode="&#x4ce;" horiz-adv-x="1441" d="M98 0l201 1024h328l94 -733h2l336 733h321l-102 -874h145l-4 -39l-233 -414h-139l98 303h-137l77 672l15 110h-6l-371 -782h-186l-138 782h-4l-10 -57l-135 -725h-152z" />
<glyph unicode="&#x4cf;" horiz-adv-x="512" d="M119 0l215 1528l274 16l-217 -1544h-272z" />
<glyph unicode="&#x4d0;" horiz-adv-x="1245" d="M39 0l629 1331h313l227 -1331h-299l-61 373h-463l-174 -373h-172zM442 502h385l-96 626h-2zM551 1675q0 14 1 24.5t1 12.5l213 18l-4 -24q-2 -4 -8.5 -19.5t-6.5 -31.5q0 -70 111 -70q76 0 104.5 28.5t28.5 65.5q0 10 -2 17.5t-2 9.5l4 24l209 -18q0 -23 -24.5 -81 t-104.5 -114.5t-231 -56.5q-170 0 -229.5 67.5t-59.5 147.5z" />
<glyph unicode="&#x4d1;" horiz-adv-x="1110" d="M121 399q0 182 66.5 330t187.5 233t274 85q84 0 134.5 -18.5t72 -40t21.5 -25.5h8l49 61h201l-144 -1024h-209l-32 90h-2q0 -6 -28 -34.5t-88.5 -53.5t-152.5 -25q-162 0 -260 114t-98 308zM408 358q0 -221 159 -221q70 0 116 32t65 60l83 580q-41 82 -145 82 q-131 0 -204.5 -133t-73.5 -400zM428 1368q0 14 1 24.5t1 12.5l213 18l-4 -24q-2 -4 -8.5 -19.5t-6.5 -31.5q0 -70 111 -70q76 0 104.5 28.5t28.5 65.5q0 10 -2 17.5t-2 9.5l4 24l209 -18q0 -23 -24.5 -81t-104.5 -114.5t-231 -56.5q-170 0 -229.5 67.5t-59.5 147.5z" />
<glyph unicode="&#x4d2;" horiz-adv-x="1245" d="M39 0l629 1331h313l227 -1331h-299l-61 373h-463l-174 -373h-172zM442 502h385l-96 626h-2zM543 1620q0 35 15.5 68.5t42.5 60.5q45 35 100 35q53 0 88 -35q29 -39 29 -84q0 -76 -60 -129q-47 -37 -98 -37q-55 0 -88 37q-29 35 -29 84zM924 1620q0 35 15.5 68.5 t41.5 60.5q46 35 99 35q51 0 90 -35q29 -39 29 -84q0 -76 -60 -129q-47 -37 -100 -37q-55 0 -86 37q-29 35 -29 84z" />
<glyph unicode="&#x4d3;" horiz-adv-x="1110" d="M121 399q0 182 66.5 330t187.5 233t274 85q84 0 134.5 -18.5t72 -40t21.5 -25.5h8l49 61h201l-144 -1024h-209l-32 90h-2q0 -6 -28 -34.5t-88.5 -53.5t-152.5 -25q-162 0 -260 114t-98 308zM408 358q0 -221 159 -221q70 0 116 32t65 60l83 580q-41 82 -145 82 q-131 0 -204.5 -133t-73.5 -400zM420 1313q0 35 15.5 68.5t42.5 60.5q45 35 100 35q53 0 88 -35q29 -39 29 -84q0 -76 -60 -129q-47 -37 -98 -37q-55 0 -88 37q-29 35 -29 84zM801 1313q0 35 15.5 68.5t41.5 60.5q46 35 99 35q51 0 90 -35q29 -39 29 -84q0 -76 -60 -129 q-47 -37 -100 -37q-55 0 -86 37q-29 35 -29 84z" />
<glyph unicode="&#x4d4;" horiz-adv-x="1683" d="M-29 0l928 1331h873l-19 -147h-516l-61 -439h454l-20 -143h-455l-63 -455h544l-22 -147h-826l54 385h-430l-262 -385h-179zM500 516h360l94 668h-14z" />
<glyph unicode="&#x4d5;" horiz-adv-x="1550" d="M121 399q0 184 68.5 332t196.5 232t300 84q84 0 138.5 -20.5t80 -45.5t25.5 -29h10q133 92 307 92q160 0 252 -81.5t92 -204.5q0 -203 -180 -264.5t-430 -61.5q-2 -29 -2 -90q0 -123 56.5 -175t158.5 -52q70 0 124 24.5t87 54t33 33.5l82 -73q0 -9 -45 -54t-129 -84 t-205 -39q-236 0 -353 138h-8q0 -6 -28.5 -41t-90 -66t-155.5 -31q-180 0 -282.5 113t-102.5 309zM408 358q0 -221 170 -221q51 0 91 20.5t64 49.5q-35 82 -35 192q0 262 123 435q-47 57 -135 57q-131 0 -204.5 -133t-73.5 -400zM989 549q106 0 182 15.5t126.5 66.5 t50.5 153q0 129 -134 129q-86 0 -145 -92t-80 -272z" />
<glyph unicode="&#x4d6;" horiz-adv-x="1073" d="M158 0l186 1331h799l-21 -147h-516l-61 -439h456l-22 -143h-453l-63 -455h543l-21 -147h-827zM561 1675q0 14 1 24.5t1 12.5l213 18l-4 -24q-2 -4 -8.5 -19.5t-6.5 -31.5q0 -70 111 -70q76 0 104.5 28.5t28.5 65.5q0 10 -2 17.5t-2 9.5l4 24l209 -18q0 -23 -24.5 -81 t-104.5 -114.5t-231 -56.5q-170 0 -229.5 67.5t-59.5 147.5z" />
<glyph unicode="&#x4d7;" horiz-adv-x="970" d="M121 399q0 203 70.5 348.5t195.5 221t283 75.5q160 0 252 -81.5t92 -204.5q0 -203 -180.5 -264.5t-430.5 -61.5q-2 -29 -2 -90q0 -123 56.5 -175t158.5 -52q70 0 124.5 24.5t87 54t32.5 33.5l82 -73q0 -9 -45 -54t-129 -84t-205 -39q-199 0 -320.5 105.5t-121.5 316.5z M404 1368q0 14 1 24.5t1 12.5l213 18l-4 -24q-2 -4 -8.5 -19.5t-6.5 -31.5q0 -70 111 -70q76 0 104.5 28.5t28.5 65.5q0 10 -2 17.5t-2 9.5l4 24l209 -18q0 -23 -24.5 -81t-104.5 -114.5t-231 -56.5q-170 0 -229.5 67.5t-59.5 147.5zM412 549q106 0 182 15.5t126 66.5 t50 153q0 129 -133 129q-86 0 -145.5 -92t-79.5 -272z" />
<glyph unicode="&#x4d8;" horiz-adv-x="1173" d="M137 428q0 57 10 143q6 47 16.5 84t18.5 57.5t11 24.5h733q16 121 16 197q0 143 -56.5 204.5t-185.5 61.5q-90 0 -170.5 -45t-136 -97t-55.5 -59l-107 93q0 10 64.5 77.5t177.5 125t264 57.5q215 0 344 -131t129 -383q0 -70 -12 -154q-49 -344 -217 -528.5t-408 -184.5 q-215 0 -325.5 117t-110.5 340zM389 381q0 -137 50 -198.5t134 -61.5q123 0 201 97t127 347h-495l-9 -61q-8 -59 -8 -123z" />
<glyph unicode="&#x4d9;" horiz-adv-x="968" d="M109 332q0 59 8 110t19 86t16 43h550q8 63 9 123q0 115 -43 165t-140 50q-70 0 -127 -29.5t-94 -65.5t-37 -40l-82 72q0 8 50.5 59t137.5 96.5t204 45.5q186 0 299.5 -105.5t113.5 -304.5q0 -57 -8 -107q-37 -266 -180 -408t-352 -142q-166 0 -255 91t-89 261zM352 260 q0 -80 29 -114.5t90 -34.5q57 0 95 28.5t67 99t51 199.5h-313l-6 -47q-12 -76 -13 -131z" />
<glyph unicode="&#x4da;" horiz-adv-x="1173" d="M137 428q0 57 10 143q6 47 16.5 84t18.5 57.5t11 24.5h733q16 121 16 197q0 143 -56.5 204.5t-185.5 61.5q-90 0 -170.5 -45t-136 -97t-55.5 -59l-107 93q0 10 64.5 77.5t177.5 125t264 57.5q215 0 344 -131t129 -383q0 -70 -12 -154q-49 -344 -217 -528.5t-408 -184.5 q-215 0 -325.5 117t-110.5 340zM389 381q0 -137 50 -198.5t134 -61.5q123 0 201 97t127 347h-495l-9 -61q-8 -59 -8 -123zM461 1620q0 35 15.5 68.5t42.5 60.5q45 35 100 35q53 0 88 -35q29 -39 29 -84q0 -76 -60 -129q-47 -37 -98 -37q-55 0 -88 37q-29 35 -29 84z M842 1620q0 35 15.5 68.5t41.5 60.5q46 35 99 35q51 0 90 -35q29 -39 29 -84q0 -76 -60 -129q-47 -37 -100 -37q-55 0 -86 37q-29 35 -29 84z" />
<glyph unicode="&#x4db;" horiz-adv-x="968" d="M109 332q0 59 8 110t19 86t16 43h550q8 63 9 123q0 115 -43 165t-140 50q-70 0 -127 -29.5t-94 -65.5t-37 -40l-82 72q0 8 50.5 59t137.5 96.5t204 45.5q186 0 299.5 -105.5t113.5 -304.5q0 -57 -8 -107q-37 -266 -180 -408t-352 -142q-166 0 -255 91t-89 261zM328 1313 q0 35 15.5 68.5t42.5 60.5q45 35 100 35q53 0 88 -35q29 -39 29 -84q0 -76 -60 -129q-47 -37 -98 -37q-55 0 -88 37q-29 35 -29 84zM352 260q0 -80 29 -114.5t90 -34.5q57 0 95 28.5t67 99t51 199.5h-313l-6 -47q-12 -76 -13 -131zM709 1313q0 35 15.5 68.5t41.5 60.5 q46 35 99 35q51 0 90 -35q29 -39 29 -84q0 -76 -60 -129q-47 -37 -100 -37q-55 0 -86 37q-29 35 -29 84z" />
<glyph unicode="&#x4dc;" horiz-adv-x="1832" d="M43 0l494 778l-248 553h203l202 -504h180l72 504h283l-72 -504h162l389 504h203l-430 -508l309 -823h-330l-217 680h-106l-95 -680h-282l94 678h-117l-362 -678h-332zM803 1620q0 35 15.5 68.5t42.5 60.5q45 35 100 35q53 0 88 -35q29 -39 29 -84q0 -76 -60 -129 q-47 -37 -98 -37q-55 0 -88 37q-29 35 -29 84zM1184 1620q0 35 15.5 68.5t41.5 60.5q46 35 99 35q51 0 90 -35q29 -39 29 -84q0 -76 -60 -129q-47 -37 -100 -37q-55 0 -86 37q-29 35 -29 84z" />
<glyph unicode="&#x4dd;" horiz-adv-x="1441" d="M18 0l355 553l-154 471h184l117 -399l160 49l49 350h272l-61 -444l121 49l278 395h187l-305 -420l223 -604h-295l-135 461l-96 -31l-60 -430h-272l73 532l-79 -26l-277 -506h-285zM524 1313q0 35 15.5 68.5t42.5 60.5q45 35 100 35q53 0 88 -35q29 -39 29 -84 q0 -76 -60 -129q-47 -37 -98 -37q-55 0 -88 37q-29 35 -29 84zM905 1313q0 35 15.5 68.5t41.5 60.5q46 35 99 35q51 0 90 -35q29 -39 29 -84q0 -76 -60 -129q-47 -37 -100 -37q-55 0 -86 37q-29 35 -29 84z" />
<glyph unicode="&#x4de;" horiz-adv-x="1046" d="M51 190l103 107q0 -8 35.5 -51t104 -80t167.5 -37q119 0 188.5 85t69.5 239q0 88 -39 123.5t-115 35.5l-198 -16l22 158l211 -19q39 2 80 39t69.5 107.5t28.5 167.5q0 160 -178 159q-57 0 -121.5 -19.5t-110.5 -41t-59 -27.5l-8 140q0 2 60.5 26.5t144.5 45t170 20.5 q190 0 295.5 -79t105.5 -216q0 -135 -74.5 -225.5t-185.5 -143.5q215 -49 215 -256q0 -131 -68.5 -234.5t-194.5 -162t-294 -58.5q-160 0 -254 47.5t-132 99.5t-38 66zM418 1620q0 35 15.5 68.5t42.5 60.5q45 35 100 35q53 0 88 -35q29 -39 29 -84q0 -76 -60 -129 q-47 -37 -98 -37q-55 0 -88 37q-29 35 -29 84zM799 1620q0 35 15.5 68.5t41.5 60.5q46 35 99 35q51 0 90 -35q29 -39 29 -84q0 -76 -60 -129q-47 -37 -100 -37q-55 0 -86 37q-29 35 -29 84z" />
<glyph unicode="&#x4df;" horiz-adv-x="903" d="M43 154l90 98q0 -6 31 -41t88 -64.5t141 -29.5q96 0 150.5 61.5t54.5 167.5q0 59 -39 88t-100 29l-166 -10l20 137l176 -8h7q27 4 59.5 26.5t56 67.5t23.5 110q0 61 -47 90t-127 29q-49 0 -106.5 -18.5t-100.5 -38t-55 -25.5l-13 135q15 7 65 28.5t126 41t151 19.5 q184 0 287 -66t103 -176q0 -193 -216 -270q82 -27 134.5 -79.5t52.5 -131.5q0 -164 -127 -255.5t-332 -91.5q-137 0 -223 39t-125 83t-39 55zM276 1313q0 35 15.5 68.5t42.5 60.5q45 35 100 35q53 0 88 -35q29 -39 29 -84q0 -76 -60 -129q-47 -37 -98 -37q-55 0 -88 37 q-29 35 -29 84zM657 1313q0 35 15.5 68.5t41.5 60.5q46 35 99 35q51 0 90 -35q29 -39 29 -84q0 -76 -60 -129q-47 -37 -100 -37q-55 0 -86 37q-29 35 -29 84z" />
<glyph unicode="&#x4e0;" horiz-adv-x="1120" d="M82 190l100 107q0 -8 34 -51t100.5 -80t164.5 -37q102 0 174 72.5t90 208.5q6 47 7 84q0 184 -146 184l-250 -16l23 157l143 -6l273 371h-504l20 147h856l-18 -123l-334 -417q141 -31 197.5 -107t56.5 -188q0 -43 -6 -90q-16 -119 -95 -216.5t-203 -155t-269 -57.5 q-160 0 -252 47.5t-127 99.5t-35 66z" />
<glyph unicode="&#x4e1;" horiz-adv-x="944" d="M-53 -399l88 116q39 -59 108.5 -84.5t135.5 -25.5q137 0 203.5 89t90.5 263q10 76 11 119q0 98 -39 147t-121 51l-203 -10l21 140l133 -7l319 486h-489l14 139h782l-16 -121l-367 -518q146 -27 203.5 -98.5t57.5 -188.5q0 -57 -15 -151q-18 -133 -92 -243t-195.5 -174.5 t-281.5 -64.5q-109 0 -203 34t-145 102z" />
<glyph unicode="&#x4e2;" horiz-adv-x="1384" d="M158 0l186 1331h283l-123 -882l-35 -134h4l653 971l25 45h262l-186 -1331h-283l119 860l35 148h-2l-650 -963l-22 -45h-266zM647 1585l16 119h438l-14 -119h-440z" />
<glyph unicode="&#x4e3;" horiz-adv-x="1122" d="M119 0l143 1024h273l-95 -672l469 672h238l-143 -1024h-273l98 711l-497 -711h-213zM547 1278l16 119h438l-14 -119h-440z" />
<glyph unicode="&#x4e4;" horiz-adv-x="1384" d="M158 0l186 1331h283l-123 -882l-35 -134h4l653 971l25 45h262l-186 -1331h-283l119 860l35 148h-2l-650 -963l-22 -45h-266zM545 1620q0 35 15.5 68.5t42.5 60.5q45 35 100 35q53 0 88 -35q29 -39 29 -84q0 -76 -60 -129q-47 -37 -98 -37q-55 0 -88 37q-29 35 -29 84z M926 1620q0 35 15.5 68.5t41.5 60.5q46 35 99 35q51 0 90 -35q29 -39 29 -84q0 -76 -60 -129q-47 -37 -100 -37q-55 0 -86 37q-29 35 -29 84z" />
<glyph unicode="&#x4e5;" horiz-adv-x="1122" d="M119 0l143 1024h273l-95 -672l469 672h238l-143 -1024h-273l98 711l-497 -711h-213zM444 1313q0 35 15.5 68.5t42.5 60.5q45 35 100 35q53 0 88 -35q29 -39 29 -84q0 -76 -60 -129q-47 -37 -98 -37q-55 0 -88 37q-29 35 -29 84zM825 1313q0 35 15.5 68.5t41.5 60.5 q46 35 99 35q51 0 90 -35q29 -39 29 -84q0 -76 -60 -129q-47 -37 -100 -37q-55 0 -86 37q-29 35 -29 84z" />
<glyph unicode="&#x4e6;" horiz-adv-x="1357" d="M156 530q0 240 81.5 426.5t238.5 291t376 104.5q270 0 402 -154t132 -395q0 -246 -92 -433.5t-251.5 -290t-356.5 -102.5q-252 0 -391 147.5t-139 405.5zM455 461q0 -158 63.5 -248t181.5 -90q174 0 279.5 176t105.5 563q0 156 -61 249t-186 93q-383 0 -383 -743z M594 1620q0 35 15.5 68.5t42.5 60.5q45 35 100 35q53 0 88 -35q29 -39 29 -84q0 -76 -60 -129q-47 -37 -98 -37q-55 0 -88 37q-29 35 -29 84zM975 1620q0 35 15.5 68.5t41.5 60.5q46 35 99 35q51 0 90 -35q29 -39 29 -84q0 -76 -60 -129q-47 -37 -100 -37q-55 0 -86 37 q-29 35 -29 84z" />
<glyph unicode="&#x4e7;" horiz-adv-x="1075" d="M123 399q0 195 66.5 341.5t192.5 226.5t302 80q193 0 302.5 -110t109.5 -312q0 -195 -70 -341.5t-198 -226.5t-296 -80q-190 0 -299.5 110t-109.5 312zM397 1313q0 35 15.5 68.5t42.5 60.5q45 35 100 35q53 0 88 -35q29 -39 29 -84q0 -76 -60 -129q-47 -37 -98 -37 q-55 0 -88 37q-29 35 -29 84zM406 326q0 -213 155 -213q121 0 186.5 145t65.5 440q0 104 -37 157.5t-119 53.5q-120 0 -185.5 -144t-65.5 -439zM778 1313q0 35 15.5 68.5t41.5 60.5q46 35 99 35q51 0 90 -35q29 -39 29 -84q0 -76 -60 -129q-47 -37 -100 -37q-55 0 -86 37 q-29 35 -29 84z" />
<glyph unicode="&#x4e8;" horiz-adv-x="1357" d="M156 530q0 240 81.5 426.5t238.5 291t376 104.5q270 0 402 -154t132 -395q0 -246 -92 -433.5t-251.5 -290t-356.5 -102.5q-252 0 -391 147.5t-139 405.5zM455 461q0 -158 63.5 -248t181.5 -90q142 0 239 114.5t130 364.5h-610q-4 -90 -4 -141zM469 729h612q4 82 4 133 q0 156 -61 249t-186 93q-308 0 -369 -475z" />
<glyph unicode="&#x4e9;" horiz-adv-x="1075" d="M123 399q0 195 66.5 341.5t192.5 226.5t302 80q193 0 302.5 -110t109.5 -312q0 -195 -70 -341.5t-198 -226.5t-296 -80q-190 0 -299.5 110t-109.5 312zM406 326q0 -213 155 -213q90 0 150.5 83t85.5 253h-387q-4 -78 -4 -123zM422 575h387q4 78 4 123q0 104 -37 157.5 t-119 53.5q-188 0 -235 -334z" />
<glyph unicode="&#x4ea;" horiz-adv-x="1357" d="M156 530q0 240 81.5 426.5t238.5 291t376 104.5q270 0 402 -154t132 -395q0 -246 -92 -433.5t-251.5 -290t-356.5 -102.5q-252 0 -391 147.5t-139 405.5zM455 461q0 -158 63.5 -248t181.5 -90q142 0 239 114.5t130 364.5h-610q-4 -90 -4 -141zM469 729h612q4 82 4 133 q0 156 -61 249t-186 93q-308 0 -369 -475zM573 1620q0 35 15.5 68.5t42.5 60.5q45 35 100 35q53 0 88 -35q29 -39 29 -84q0 -76 -60 -129q-47 -37 -98 -37q-55 0 -88 37q-29 35 -29 84zM954 1620q0 35 15.5 68.5t41.5 60.5q46 35 99 35q51 0 90 -35q29 -39 29 -84 q0 -76 -60 -129q-47 -37 -100 -37q-55 0 -86 37q-29 35 -29 84z" />
<glyph unicode="&#x4eb;" horiz-adv-x="1075" d="M123 399q0 195 66.5 341.5t192.5 226.5t302 80q193 0 302.5 -110t109.5 -312q0 -195 -70 -341.5t-198 -226.5t-296 -80q-190 0 -299.5 110t-109.5 312zM393 1313q0 35 15.5 68.5t42.5 60.5q45 35 100 35q53 0 88 -35q29 -39 29 -84q0 -76 -60 -129q-47 -37 -98 -37 q-55 0 -88 37q-29 35 -29 84zM406 326q0 -213 155 -213q90 0 150.5 83t85.5 253h-387q-4 -78 -4 -123zM422 575h387q4 78 4 123q0 104 -37 157.5t-119 53.5q-188 0 -235 -334zM774 1313q0 35 15.5 68.5t41.5 60.5q46 35 99 35q51 0 90 -35q29 -39 29 -84q0 -76 -60 -129 q-47 -37 -100 -37q-55 0 -86 37q-29 35 -29 84z" />
<glyph unicode="&#x4ec;" horiz-adv-x="1155" d="M57 201l99 123q0 -7 41 -57t110.5 -92t163.5 -42q152 0 252 107.5t139 353.5h-573l20 145h568q6 72 6 154q0 168 -75 237.5t-220 69.5q-68 0 -135.5 -20.5t-111.5 -42t-56 -27.5l-15 143q14 8 69.5 32t137.5 45.5t164 21.5q266 0 406.5 -141.5t140.5 -393.5 q0 -244 -83 -435.5t-236.5 -298t-356.5 -106.5q-152 0 -253 49.5t-151.5 106.5t-50.5 68zM430 1620q0 35 15.5 68.5t42.5 60.5q45 35 100 35q53 0 88 -35q29 -39 29 -84q0 -76 -60 -129q-47 -37 -98 -37q-55 0 -88 37q-29 35 -29 84zM811 1620q0 35 15.5 68.5t41.5 60.5 q46 35 99 35q51 0 90 -35q29 -39 29 -84q0 -76 -60 -129q-47 -37 -100 -37q-55 0 -86 37q-29 35 -29 84z" />
<glyph unicode="&#x4ed;" horiz-adv-x="923" d="M41 158l86 96q0 -4 35 -41t92 -67.5t133 -30.5q117 0 188.5 77.5t96.5 253.5l-408 -10l23 156h397q2 20 2 65q0 141 -62.5 197.5t-170.5 56.5q-49 0 -100.5 -17t-86.5 -35.5t-43 -24.5l-8 133q12 6 54 25.5t106.5 37t128.5 17.5q201 0 322.5 -111t121.5 -303 q0 -209 -72.5 -356.5t-194.5 -223.5t-269 -76q-129 0 -211 40t-121 85t-39 56zM287 1313q0 35 15.5 68.5t42.5 60.5q45 35 100 35q53 0 88 -35q29 -39 29 -84q0 -76 -60 -129q-47 -37 -98 -37q-55 0 -88 37q-29 35 -29 84zM668 1313q0 35 15.5 68.5t41.5 60.5q46 35 99 35 q51 0 90 -35q29 -39 29 -84q0 -76 -60 -129q-47 -37 -100 -37q-55 0 -86 37q-29 35 -29 84z" />
<glyph unicode="&#x4ee;" horiz-adv-x="1220" d="M164 29l57 172q4 -4 23.5 -14.5t55.5 -19.5t79 -9q78 0 138.5 29.5t121.5 111.5l-403 1032h331l256 -741h4l347 741h190l-487 -921q-121 -229 -244 -331t-273 -102q-59 0 -103 11.5t-66.5 24t-26.5 16.5zM692 1585l16 119h438l-14 -119h-440z" />
<glyph unicode="&#x4ef;" d="M-18 -504l43 160q8 -4 37.5 -13.5t62.5 -9.5q94 0 162.5 74t163.5 252l-285 1065h328l149 -725l313 725h168l-503 -1047q-125 -258 -235 -385t-251 -127q-47 0 -81 7.5t-51 14.5t-21 9zM537 1278l16 119h438l-14 -119h-440z" />
<glyph unicode="&#x4f0;" horiz-adv-x="1220" d="M164 29l57 172q4 -4 23.5 -14.5t55.5 -19.5t79 -9q78 0 138.5 29.5t121.5 111.5l-403 1032h331l256 -741h4l347 741h190l-487 -921q-121 -229 -244 -331t-273 -102q-59 0 -103 11.5t-66.5 24t-26.5 16.5zM590 1620q0 35 15.5 68.5t42.5 60.5q45 35 100 35q53 0 88 -35 q29 -39 29 -84q0 -76 -60 -129q-47 -37 -98 -37q-55 0 -88 37q-29 35 -29 84zM971 1620q0 35 15.5 68.5t41.5 60.5q46 35 99 35q51 0 90 -35q29 -39 29 -84q0 -76 -60 -129q-47 -37 -100 -37q-55 0 -86 37q-29 35 -29 84z" />
<glyph unicode="&#x4f1;" d="M-18 -504l43 160q8 -4 37.5 -13.5t62.5 -9.5q94 0 162.5 74t163.5 252l-285 1065h328l149 -725l313 725h168l-503 -1047q-125 -258 -235 -385t-251 -127q-47 0 -81 7.5t-51 14.5t-21 9zM434 1313q0 35 15.5 68.5t42.5 60.5q45 35 100 35q53 0 88 -35q29 -39 29 -84 q0 -76 -60 -129q-47 -37 -98 -37q-55 0 -88 37q-29 35 -29 84zM815 1313q0 35 15.5 68.5t41.5 60.5q46 35 99 35q51 0 90 -35q29 -39 29 -84q0 -76 -60 -129q-47 -37 -100 -37q-55 0 -86 37q-29 35 -29 84z" />
<glyph unicode="&#x4f2;" horiz-adv-x="1220" d="M164 29l57 172q4 -4 23.5 -14.5t55.5 -19.5t79 -9q78 0 138.5 29.5t121.5 111.5l-403 1032h331l256 -741h4l347 741h190l-487 -921q-121 -229 -244 -331t-273 -102q-59 0 -103 11.5t-66.5 24t-26.5 16.5zM654 1505l151 313l182 -53l-237 -307zM971 1505l154 313l182 -53 l-238 -307z" />
<glyph unicode="&#x4f3;" d="M-18 -504l43 160q8 -4 37.5 -13.5t62.5 -9.5q94 0 162.5 74t163.5 252l-285 1065h328l149 -725l313 725h168l-503 -1047q-125 -258 -235 -385t-251 -127q-47 0 -81 7.5t-51 14.5t-21 9zM498 1198l151 313l182 -53l-237 -307zM815 1198l154 313l182 -53l-238 -307z" />
<glyph unicode="&#x4f4;" horiz-adv-x="1200" d="M219 762q0 47 6 96l68 473h282l-61 -438q-10 -76 -10 -115q0 -86 33.5 -119.5t105.5 -33.5q106 0 209 51l92 655h285l-187 -1331h-284l76 545q0 -4 -41 -25.5t-112 -40t-165 -18.5q-156 0 -226.5 80t-70.5 221zM483 1620q0 35 15.5 68.5t42.5 60.5q45 35 100 35 q53 0 88 -35q29 -39 29 -84q0 -76 -60 -129q-47 -37 -98 -37q-55 0 -88 37q-29 35 -29 84zM864 1620q0 35 15.5 68.5t41.5 60.5q46 35 99 35q51 0 90 -35q29 -39 29 -84q0 -76 -60 -129q-47 -37 -100 -37q-55 0 -86 37q-29 35 -29 84z" />
<glyph unicode="&#x4f5;" d="M154 590q0 33 6 69l51 365h272l-53 -373q-4 -37 -4 -49q0 -57 24.5 -82.5t75.5 -25.5q39 0 74 8t55.5 17t26.5 11l70 494h272l-143 -1024h-273l60 422h-2q0 -2 -32 -15.5t-89.5 -25.5t-136.5 -12q-254 0 -254 221zM336 1313q0 35 15.5 68.5t42.5 60.5q45 35 100 35 q53 0 88 -35q29 -39 29 -84q0 -76 -60 -129q-47 -37 -98 -37q-55 0 -88 37q-29 35 -29 84zM717 1313q0 35 15.5 68.5t41.5 60.5q46 35 99 35q51 0 90 -35q29 -39 29 -84q0 -76 -60 -129q-47 -37 -100 -37q-55 0 -86 37q-29 35 -29 84z" />
<glyph unicode="&#x4f6;" horiz-adv-x="897" d="M158 0l188 1331h715l-12 -147h-445l-143 -1037h170l-129 -505h-154l4 358h-194z" />
<glyph unicode="&#x4f7;" horiz-adv-x="878" d="M113 258q0 115 53 177.5t127 88t194 45.5q72 12 117 57.5t45 153.5q0 59 -44 92t-126 33q-59 0 -112.5 -20.5t-90 -46t-36.5 -27.5l-23 127q0 4 44 31.5t119 51t175 23.5q172 0 270.5 -75.5t98.5 -202.5q0 -111 -56.5 -170t-130 -81.5t-200.5 -45.5q-70 -12 -110 -59.5 t-40 -159.5q0 -59 44 -96t110 -37q73 0 126.5 27.5t85 60.5t31.5 37l82 -72q0 -6 -35.5 -46t-99 -81t-153.5 -57l-60 -289h-143l8 289q-129 23 -199.5 92t-70.5 180z" />
<glyph unicode="&#x4f8;" horiz-adv-x="1648" d="M158 0l186 1331h283l-72 -510h96q473 0 473 -329q0 -223 -148.5 -357.5t-430.5 -134.5h-387zM459 133h98q131 0 205 97.5t74 281.5q0 96 -51.5 138t-151.5 42h-96zM719 1620q0 35 15.5 68.5t42.5 60.5q45 35 100 35q53 0 88 -35q29 -39 29 -84q0 -76 -60 -129 q-47 -37 -98 -37q-55 0 -88 37q-29 35 -29 84zM1100 1620q0 35 15.5 68.5t41.5 60.5q46 35 99 35q51 0 90 -35q29 -39 29 -84q0 -76 -60 -129q-47 -37 -100 -37q-55 0 -86 37q-29 35 -29 84zM1208 0l187 1331h282l-186 -1331h-283z" />
<glyph unicode="&#x4f9;" horiz-adv-x="1464" d="M119 0l143 1024h273l-50 -346q50 4 97 4q178 0 294.5 -77t116.5 -218q0 -190 -128 -300t-378 -110q-111 0 -223 9.5t-145 13.5zM406 102q33 -2 86 -2q96 0 153 90.5t57 212.5q0 158 -149 158q-35 0 -84 -6zM598 1313q0 35 15.5 68.5t42.5 60.5q45 35 100 35q53 0 88 -35 q29 -39 29 -84q0 -76 -60 -129q-47 -37 -98 -37q-55 0 -88 37q-29 35 -29 84zM979 1313q0 35 15.5 68.5t41.5 60.5q46 35 99 35q51 0 90 -35q29 -39 29 -84q0 -76 -60 -129q-47 -37 -100 -37q-55 0 -86 37q-29 35 -29 84zM1073 0l144 1024h272l-143 -1024h-273z" />
<glyph unicode="&#x4fa;" horiz-adv-x="1036" d="M111 549l20 143h178l90 639h809l-20 -147h-526l-70 -492h352l-20 -143h-353l-57 -402h166l-18 -129q-29 -203 -127.5 -295t-241.5 -92q-51 0 -78 10.5t-29 10.5l21 117q6 -2 28.5 -5.5t51.5 -3.5q61 0 102 47.5t60 176.5l4 16h-242l78 549h-178z" />
<glyph unicode="&#x4fb;" horiz-adv-x="782" d="M61 444l21 136h143l64 444h616l-22 -150h-344l-41 -294h247l-20 -136h-248l-41 -297h164l-16 -116q-27 -184 -113 -267t-211 -83q-47 0 -70.5 9t-25.5 9l18 106q6 -2 26.5 -5t47.5 -3q51 0 85 44t54 159h-252l62 444h-144z" />
<glyph unicode="&#x4fc;" horiz-adv-x="1122" d="M12 0l506 647l-297 684h354l177 -477h6l354 477h201l-477 -614q158 -319 213 -467t55 -234q0 -20 -4 -57q-14 -104 -73.5 -202.5t-211.5 -196.5l-82 84q41 22 73 68t32 122t-51.5 227.5t-182.5 446.5h-6l-373 -508h-213z" />
<glyph unicode="&#x4fd;" horiz-adv-x="940" d="M16 0l404 504l-242 520h326l135 -354l227 354h187l-334 -457l131 -274q72 -150 72 -266q0 -29 -2 -43q-12 -94 -73 -187.5t-202 -185.5l-63 78q2 0 22.5 12t44 44t29.5 71q2 10 2 34q0 51 -19.5 119t-62.5 176l-96 246l-295 -391h-191z" />
<glyph unicode="&#x4fe;" horiz-adv-x="1187" d="M14 0l480 614h-267l21 140h225l-252 577h354l179 -477h6l352 477h201l-449 -577h264l-20 -140h-225l288 -614h-352l-213 508h-6l-373 -508h-213z" />
<glyph unicode="&#x4ff;" horiz-adv-x="964" d="M14 0l363 463h-191l19 131h155l-182 430h326l117 -362l245 362h187l-326 -430h191l-19 -131h-156l203 -463h-325l-138 383l-278 -383h-191z" />
<glyph unicode="&#x2000;" horiz-adv-x="909" />
<glyph unicode="&#x2001;" horiz-adv-x="1818" />
<glyph unicode="&#x2002;" horiz-adv-x="909" />
<glyph unicode="&#x2003;" horiz-adv-x="1818" />
<glyph unicode="&#x2004;" horiz-adv-x="606" />
<glyph unicode="&#x2005;" horiz-adv-x="454" />
<glyph unicode="&#x2006;" horiz-adv-x="303" />
<glyph unicode="&#x2007;" horiz-adv-x="303" />
<glyph unicode="&#x2008;" horiz-adv-x="227" />
<glyph unicode="&#x2009;" horiz-adv-x="363" />
<glyph unicode="&#x200a;" horiz-adv-x="101" />
<glyph unicode="&#x2010;" horiz-adv-x="681" d="M133 487l21 152h555l-21 -152h-555z" />
<glyph unicode="&#x2011;" horiz-adv-x="681" d="M133 487l21 152h555l-21 -152h-555z" />
<glyph unicode="&#x2012;" horiz-adv-x="681" d="M133 487l21 152h555l-21 -152h-555z" />
<glyph unicode="&#x2013;" horiz-adv-x="1073" d="M131 487l21 152h950l-21 -152h-950z" />
<glyph unicode="&#x2014;" horiz-adv-x="1388" d="M131 487l21 152h1265l-20 -152h-1266z" />
<glyph unicode="&#x2018;" horiz-adv-x="370" d="M184 1038q0 121 90.5 273.5t208.5 240.5l60 -75q-78 -61 -134.5 -146.5t-70.5 -163.5h10q61 0 96 -34q29 -35 29 -84q0 -35 -15.5 -68t-41.5 -59q-48 -37 -103 -37q-59 0 -92 37q-37 43 -37 116z" />
<glyph unicode="&#x2019;" horiz-adv-x="368" d="M162 958q78 61 134 145.5t71 162.5h-15q-59 0 -92 37q-29 31 -29 83q0 35 15.5 68t42.5 59q45 37 102 37t94 -37q37 -45 37 -116q0 -123 -90 -275.5t-211 -238.5z" />
<glyph unicode="&#x201a;" horiz-adv-x="368" d="M-10 -272q78 61 133 145t72 164h-17q-57 0 -92 35q-29 39 -29 84q0 35 15.5 67.5t44.5 59.5q43 36 102 36q55 0 92 -36q37 -43 37 -117q0 -121 -90 -274.5t-209 -239.5z" />
<glyph unicode="&#x201c;" horiz-adv-x="753" d="M184 1038q0 121 90.5 273.5t208.5 240.5l60 -75q-78 -61 -134.5 -146.5t-70.5 -163.5h10q61 0 96 -34q29 -35 29 -84q0 -35 -15.5 -68t-41.5 -59q-48 -37 -103 -37q-59 0 -92 37q-37 43 -37 116zM567 1038q0 121 90.5 273.5t208.5 240.5l60 -75q-78 -61 -134.5 -146.5 t-70.5 -163.5h10q61 0 96 -34q29 -35 29 -84q0 -35 -15.5 -68t-41.5 -59q-46 -37 -103 -37q-59 0 -92 37q-37 43 -37 116z" />
<glyph unicode="&#x201d;" horiz-adv-x="753" d="M162 958q78 61 134 145.5t71 162.5h-15q-59 0 -92 37q-29 31 -29 83q0 35 15.5 68t42.5 59q45 37 102 37t94 -37q37 -45 37 -116q0 -123 -90 -275.5t-211 -238.5zM545 958q78 61 134 145.5t71 162.5h-15q-57 0 -92 37q-29 31 -29 83q0 35 15.5 68t42.5 59q47 37 102 37 q57 0 94 -37q37 -45 37 -116q0 -123 -90 -275.5t-211 -238.5z" />
<glyph unicode="&#x201e;" horiz-adv-x="753" d="M-10 -272q78 61 133 145t72 164h-17q-57 0 -92 35q-29 39 -29 84q0 35 15.5 67.5t44.5 59.5q43 36 102 36q55 0 92 -36q37 -43 37 -117q0 -121 -90 -274.5t-209 -239.5zM373 -272q78 61 133 145t72 164h-17q-57 0 -92 35q-29 39 -29 84q0 35 15.5 67.5t44.5 59.5 q43 36 102 36q55 0 92 -36q37 -43 37 -117q0 -121 -90 -274.5t-209 -239.5z" />
<glyph unicode="&#x2022;" horiz-adv-x="778" d="M215 635q0 61 27.5 122.5t76.5 108.5q79 64 185 64q102 0 166 -64q51 -63 51 -151q0 -63 -27.5 -124t-79.5 -106q-82 -66 -182 -65q-49 0 -92 16.5t-74 48.5q-51 59 -51 150z" />
<glyph unicode="&#x2026;" horiz-adv-x="1656" d="M156 106q0 39 18.5 78t50.5 70q53 43 119 43t109 -43q33 -39 32 -96q0 -41 -17 -80t-50 -68q-55 -43 -121 -43t-107 43q-35 41 -34 96zM680 106q0 39 18.5 78t51.5 70q52 43 118 43t109 -43q33 -39 33 -96q0 -41 -17.5 -80t-50.5 -68q-55 -43 -121 -43t-106 43 q-35 41 -35 96zM1202 106q0 39 18.5 78t51.5 70q53 43 119 43t108 -43q33 -39 33 -96q0 -41 -17.5 -80t-50.5 -68q-55 -43 -121 -43t-106 43q-35 41 -35 96z" />
<glyph unicode="&#x202f;" horiz-adv-x="363" />
<glyph unicode="&#x2039;" horiz-adv-x="720" d="M233 512l418 381l60 -76l-226 -309l138 -307l-80 -80z" />
<glyph unicode="&#x203a;" horiz-adv-x="720" d="M147 195l228 309l-137 309l81 80l308 -391l-416 -381z" />
<glyph unicode="&#x205f;" horiz-adv-x="454" />
<glyph unicode="&#x20ac;" horiz-adv-x="1163" d="M145 457l19 121h98q2 70 12 137l-90 10l17 121h96q55 233 203.5 368.5t410.5 135.5q88 0 160 -20.5t119 -44t47 -25.5l-49 -142q-10 6 -47 26.5t-96.5 40t-120.5 19.5q-137 0 -221.5 -80t-120.5 -278h471l-21 -141h-469q-4 -45 -8 -127h461l-21 -144h-442 q2 -172 68.5 -244.5t189.5 -72.5q76 0 140.5 32.5t106.5 71.5t42 43l39 -102q0 -8 -49.5 -55.5t-138.5 -88.5t-214 -41q-219 0 -337.5 123t-135.5 344z" />
<glyph unicode="&#x2122;" horiz-adv-x="1630" d="M305 1421l17 115h632l-16 -113l-242 -2l-84 -602h-168l84 602h-223zM887 819l145 717h170l90 -571l275 571h164l-84 -717h-160l51 457l-223 -457h-148l-92 479l-78 -479h-110z" />
<glyph unicode="&#x25fc;" horiz-adv-x="1024" d="M0 0v1024h1024v-1024h-1024z" />
</font>
</defs>
</svg>
