<?xml version="1.0" standalone="no"?>
<!DOCTYPE svg PUBLIC "-//W3C//DTD SVG 1.1//EN" "http://www.w3.org/Graphics/SVG/1.1/DTD/svg11.dtd" >
<svg xmlns="http://www.w3.org/2000/svg" xmlns:xlink="http://www.w3.org/1999/xlink" version="1.1">
<metadata></metadata>
<defs>
<font id="arsenalbold" horiz-adv-x="1073" >
<font-face units-per-em="2048" ascent="1638" descent="-410" />
<missing-glyph horiz-adv-x="522" />
<glyph horiz-adv-x="0" />
<glyph unicode="&#xd;" horiz-adv-x="522" />
<glyph horiz-adv-x="0" />
<glyph horiz-adv-x="0" />
<glyph unicode=" "  horiz-adv-x="522" />
<glyph unicode="&#x09;" horiz-adv-x="522" />
<glyph unicode="&#xa0;" horiz-adv-x="522" />
<glyph unicode="!" horiz-adv-x="681" d="M186 131q0 72 50 123q45 43 114 43q68 0 113 -43q49 -51 49 -123t-49 -121q-45 -43 -113 -43q-69 0 -114 43q-49 49 -50 121zM193 1411v125h311v-125l-88 -940h-137z" />
<glyph unicode="&#x22;" horiz-adv-x="815" d="M63 1536l250 -8l-96 -537h-129zM455 1536l250 -8l-97 -537h-129z" />
<glyph unicode="#" horiz-adv-x="1060" d="M92 381v131h164l66 305h-230v131h256l60 277l110 -33l-51 -244h240l49 238l110 -33l-43 -205h144v-131h-170l-64 -305h234v-131h-262l-58 -279l-110 35l51 244h-242l-49 -240l-111 35l43 205h-137zM375 512h239l64 305h-240z" />
<glyph unicode="$" horiz-adv-x="854" d="M49 270l76 107q0 -4 32.5 -37t83 -60.5t111.5 -27.5q76 0 117 39t41 102q0 61 -43 97t-129 75q-80 39 -128 71t-83 88t-35 144q0 119 66.5 197t175.5 106l26 263h134l26 -252q53 -8 104.5 -22.5t84 -28t41.5 -17.5l-37 -137q-10 6 -47 24.5t-89.5 35t-95.5 16.5 q-63 0 -98 -31t-35 -82q0 -61 46 -99t141 -81q84 -41 135 -75t88 -91t37 -143q0 -125 -71 -212t-204 -112l-20 -229h-133l-29 221q-94 10 -158.5 44t-97.5 67.5t-33 39.5z" />
<glyph unicode="%" horiz-adv-x="1775" d="M74 954q0 186 95 299t261 113q164 0 261 -113.5t97 -298.5q0 -188 -94 -302.5t-264 -114.5q-174 0 -265 113.5t-91 303.5zM299 958q0 -154 30.5 -223t98.5 -69q70 0 103.5 70.5t33.5 221.5q0 152 -32.5 216.5t-102.5 64.5t-100.5 -64.5t-30.5 -216.5zM528 16l553 1284 l138 -40l-555 -1285zM987 379q0 186 95.5 299t260.5 113q164 0 261.5 -114t97.5 -298q0 -188 -94.5 -303t-264.5 -115q-174 0 -265 113.5t-91 304.5zM1212 383q0 -154 31 -223.5t98 -69.5q70 0 104 70.5t34 222.5t-33 216.5t-103 64.5t-100.5 -64.5t-30.5 -216.5z" />
<glyph unicode="&#x26;" horiz-adv-x="1312" d="M74 367q0 131 75.5 211.5t190.5 119.5q-178 94 -178 301q0 164 107.5 258.5t283.5 94.5q61 0 121.5 -14.5t101.5 -30t51 -19.5l-22 -133q-8 4 -40 18.5t-75 27.5t-82 13q-84 0 -126 -53t-42 -176q0 -217 113 -225h229l133 264h107v-264h227v-135h-227v-283q0 -96 10 -143 t35 -63.5t70 -16.5q41 0 77.5 12t36.5 14l9 -118q0 -2 -23 -14.5t-69 -24t-115 -11.5q-168 0 -234 101q-109 -100 -295 -101q-229 0 -339.5 105.5t-110.5 284.5zM365 371q0 -139 47 -196.5t159 -57.5q72 0 122 26.5t79 63.5q-8 47 -8 119v299h-229q-74 -2 -122 -63.5 t-48 -190.5z" />
<glyph unicode="'" horiz-adv-x="423" d="M63 1536l250 -8l-96 -537h-129z" />
<glyph unicode="(" horiz-adv-x="735" d="M158 557q0 301 86 511t194.5 330t108.5 101l117 -72q0 18 -68 -91t-122 -302.5t-54 -476.5q0 -287 54 -478.5t122 -297t68 -86.5l-109 -70q0 -18 -110.5 99.5t-198.5 324.5t-88 508z" />
<glyph unicode=")" horiz-adv-x="735" d="M72 -305q0 -18 67.5 93.5t120.5 306t53 472.5q0 279 -53 470.5t-120.5 300t-67.5 89.5l108 72q0 18 109.5 -99.5t197.5 -324.5t88 -508t-88 -511t-197.5 -329.5t-109.5 -101.5z" />
<glyph unicode="*" horiz-adv-x="839" d="M20 1028l78 264l273 -198l-76 370h252l-84 -368l278 196l76 -264l-325 -31l251 -252l-202 -163l-121 350l-123 -350l-201 163l250 248z" />
<glyph unicode="+" horiz-adv-x="933" d="M63 487v152h334v377h146v-377h327v-152h-327v-378h-146v378h-334z" />
<glyph unicode="," horiz-adv-x="542" d="M115 178q0 66 45 111q43 39 100 39t102 -39q20 -23 31 -45q25 -51 25 -119q0 -119 -65.5 -254t-162.5 -213l-69 76q68 61 110.5 141t49.5 156l-23 -2q-55 0 -98 39q-45 43 -45 110z" />
<glyph unicode="-" horiz-adv-x="681" d="M63 487v152h558v-152h-558z" />
<glyph unicode="." horiz-adv-x="608" d="M139 131q0 72 49 123q47 43 115 43t113 -43q49 -51 49 -123t-49 -121q-45 -43 -113 -43t-115 43q-49 49 -49 121z" />
<glyph unicode="/" horiz-adv-x="935" d="M16 -512l752 2048h184l-751 -2048h-185z" />
<glyph unicode="0" horiz-adv-x="1185" d="M90 662q0 690 504 690q502 0 502 -690q0 -332 -120 -508.5t-382 -176.5q-504 1 -504 685zM397 662q0 -219 17.5 -334t59.5 -162t120 -47t120 47t59.5 162.5t17.5 333.5q0 219 -17.5 335.5t-59.5 164.5t-120 48t-120 -48t-59.5 -164.5t-17.5 -335.5z" />
<glyph unicode="1" horiz-adv-x="815" d="M86 1157l307 174h219v-1331h-268v1143l-203 -109z" />
<glyph unicode="2" horiz-adv-x="991" d="M70 0v211q96 37 221 142.5t217 260t92 328.5q0 150 -45 204t-149 54q-47 0 -105.5 -22.5t-101.5 -46t-56 -31.5l-28 143q0 2 55 31t131 53.5t154 24.5q219 0 332.5 -107.5t113.5 -283.5q0 -201 -151.5 -381.5t-362.5 -323.5h533v-256h-850z" />
<glyph unicode="3" horiz-adv-x="1007" d="M72 127l73 121q0 -4 43 -37t106.5 -60.5t133.5 -27.5q111 0 162 61.5t51 202.5q0 133 -35 189.5t-112 56.5q-51 0 -107 -55l-4 -5l-84 95l328 405h-492l15 258h718v-172l-327 -395h12q104 0 191 -45t137.5 -130t50.5 -204q0 -129 -65.5 -221t-173 -139.5t-230.5 -47.5 q-121 0 -208 33t-135 72t-48 45z" />
<glyph unicode="4" horiz-adv-x="1091" d="M61 446q90 164 185.5 429.5t140.5 488.5l260 -33q-49 -215 -156.5 -424t-250.5 -440h387l73 663h205v-663h131v-117l-131 -24v-326h-278v326h-551z" />
<glyph unicode="5" horiz-adv-x="1001" d="M45 125l82 115q0 -4 36 -35t92 -56.5t128 -25.5q119 0 183.5 69.5t64.5 233.5q0 152 -54.5 217.5t-154.5 65.5q-51 0 -92 -18.5t-60 -45.5l-10 -20l-96 14l78 692h610l-14 -266h-486l-24 -244q59 18 118 19q217 0 346.5 -104.5t129.5 -303.5q0 -152 -75 -254 t-192.5 -151.5t-248.5 -49.5q-111 0 -191 33t-125 71t-45 44z" />
<glyph unicode="6" horiz-adv-x="1085" d="M90 545q0 51 3 105.5t7 88.5q39 319 163 466t315 147q66 0 131 -17.5t109 -37t56 -25.5l-34 -137q-10 6 -47 23.5t-89.5 33.5t-99.5 16q-119 0 -177 -94t-67 -336q106 84 228 84q190 0 307 -110.5t117 -325.5q0 -211 -120 -330t-333 -119q-223 0 -346 138.5t-123 429.5z M383 455q0 -131 17.5 -205t55.5 -105.5t103 -31.5q88 0 124 72.5t36 244.5q0 162 -38 232.5t-126 70.5q-96 0 -166 -96q-6 -55 -6 -182z" />
<glyph unicode="7" horiz-adv-x="923" d="M74 1059v272h819v-215q-123 -217 -235.5 -535.5t-170.5 -580.5h-294q61 223 183 471t310 588h-612z" />
<glyph unicode="8" horiz-adv-x="1097" d="M74 360q0 121 75.5 198t190.5 116q-102 35 -171 110.5t-69 204.5q0 174 123 268.5t326 94.5t325.5 -95.5t122.5 -269.5q0 -217 -245 -309q115 -29 194.5 -103.5t79.5 -218.5q0 -199 -124 -289t-353 -90q-230 0 -352.5 90.5t-122.5 292.5zM381 365q0 -141 42 -201t126 -60 t127 60.5t43 200.5q0 129 -54.5 185t-123.5 64q-63 -10 -111.5 -65t-48.5 -184zM393 981q0 -127 46 -184.5t110 -71.5q63 12 109.5 68.5t46.5 187.5q0 135 -37 189.5t-119 54.5t-119 -54.5t-37 -189.5z" />
<glyph unicode="9" horiz-adv-x="1085" d="M74 883q0 139 57 245.5t161.5 165t244.5 58.5q221 0 338.5 -138.5t117.5 -429.5q0 -86 -4 -143q-16 -227 -90 -375.5t-182.5 -218.5t-233.5 -70q-96 0 -161.5 20.5t-100.5 43t-35 27.5l60 133q0 -2 31.5 -23.5t81 -39t106.5 -17.5q113 0 181.5 95t76.5 331 q-90 -90 -227 -90q-190 0 -306 105.5t-116 320.5zM365 893q0 -162 37.5 -234.5t125.5 -72.5q70 0 113 39t57 102q4 86 4 147q0 190 -37.5 266.5t-127.5 76.5q-88 0 -130 -79t-42 -245z" />
<glyph unicode=":" horiz-adv-x="610" d="M139 131q0 72 49 123q47 43 115 43t113 -43q49 -51 49 -123t-49 -121q-45 -43 -113 -43t-115 43q-49 49 -49 121zM139 850q0 72 49 123q47 43 115 43t113 -43q49 -51 49 -123t-49 -121q-45 -43 -113 -43t-115 43q-49 49 -49 121z" />
<glyph unicode=";" horiz-adv-x="608" d="M139 850q0 72 49 123q47 43 115 43t113 -43q49 -51 49 -123t-49 -121q-45 -43 -113 -43t-115 43q-49 49 -49 121zM154 178q0 66 45 111q43 39 100 39t102 -39q20 -23 31 -45q25 -51 25 -119q0 -119 -65.5 -254t-162.5 -213l-69 76q68 61 110.5 141t48.5 156l-22 -2 q-55 0 -98 39q-45 43 -45 110z" />
<glyph unicode="&#x3c;" horiz-adv-x="774" d="M96 645l490 463l80 -94l-330 -367l338 -368l-88 -95z" />
<glyph unicode="=" d="M63 289v151h949v-151h-949zM63 686v152h949v-152h-949z" />
<glyph unicode="&#x3e;" horiz-adv-x="774" d="M109 279l321 366l-321 369l79 94l490 -463l-490 -461z" />
<glyph unicode="?" horiz-adv-x="911" d="M117 1468q0 2 48 26t120.5 43t160.5 19q133 0 222.5 -51t132.5 -135t43 -178q0 -102 -35 -173t-84 -116t-131 -100q-70 -47 -109 -81t-65.5 -83t-26.5 -115q0 -16 4 -53l-96 -8q-29 87 -29 155q0 72 28 116t85 97q49 47 78 83t49 95.5t20 143.5q0 139 -37.5 201.5 t-123.5 62.5q-51 0 -103.5 -17.5t-87.5 -37t-43 -25.5zM199 131q0 72 49 123q47 43 114 43q66 0 113 -43q49 -51 49 -123t-49 -121q-45 -43 -113 -43q-67 0 -114 43q-49 49 -49 121z" />
<glyph unicode="@" horiz-adv-x="1765" d="M94 377q0 283 98.5 493.5t292 325.5t471.5 115q356 0 539.5 -187.5t183.5 -531.5q0 -317 -109.5 -473t-295.5 -156q-80 0 -131 20.5t-78 69.5q-70 -92 -207 -92q-158 0 -253 109.5t-95 322.5q0 129 49 230.5t135 158t193 56.5q106 0 186 -72l37 35h117v-555 q0 -96 16.5 -133t56.5 -37q76 0 120 108.5t44 401.5q0 315 -122.5 458.5t-385.5 143.5q-293 0 -456.5 -194.5t-163.5 -616.5q0 -383 152.5 -565.5t437.5 -182.5q133 0 234.5 40t159.5 87t58 54l58 -113q0 -8 -60.5 -61.5t-173 -99.5t-276.5 -46q-424 0 -628 229.5 t-204 657.5zM743 393q0 -172 40 -244.5t128 -72.5q86 0 125 92v494q-16 25 -45.5 44t-77.5 19q-92 0 -131 -77t-39 -255z" />
<glyph unicode="A" horiz-adv-x="1245" d="M39 0l442 1331h314l413 -1331h-299l-114 373h-463l-121 -373h-172zM373 502h383l-183 626h-4z" />
<glyph unicode="B" horiz-adv-x="1165" d="M158 0v1331h405q158 0 263.5 -48t156.5 -127t51 -171q0 -102 -56 -174t-142 -117q117 -37 186.5 -116.5t69.5 -194.5q0 -174 -132.5 -278.5t-386.5 -104.5h-415zM440 133h127q111 0 174.5 64.5t63.5 195.5q0 223 -182 223h-183v-483zM440 739h168q57 0 103.5 54.5 t46.5 175.5q0 119 -55.5 174t-147.5 55h-115v-459z" />
<glyph unicode="C" horiz-adv-x="1179" d="M74 655q0 209 71.5 367t209 244t325.5 86q94 0 185 -23.5t158 -51.5t67 -30l-29 -149q-14 8 -69.5 31.5t-132.5 46t-144 22.5q-115 0 -186.5 -51t-107.5 -168t-36 -313q0 -289 84 -412t260 -123q98 0 173 42t121 92t46 57l90 -99q0 -10 -54 -73.5t-158.5 -118 t-256.5 -54.5q-301 0 -458.5 181.5t-157.5 496.5z" />
<glyph unicode="D" horiz-adv-x="1325" d="M158 0v1331h452q309 0 476 -171t167 -498q0 -324 -163.5 -493t-477.5 -169h-454zM440 145h174q119 0 189.5 50.5t103.5 162t33 304.5t-34 307t-105.5 165.5t-190.5 51.5h-170v-1041z" />
<glyph unicode="E" d="M158 0v1331h798v-147h-516v-439h455v-143h-455v-455h545v-147h-827z" />
<glyph unicode="F" horiz-adv-x="999" d="M158 0v1331h809v-147h-527v-492h459v-143h-459v-549h-282z" />
<glyph unicode="G" horiz-adv-x="1280" d="M74 662q0 324 161.5 507t452.5 183q94 0 186.5 -23.5t159 -51.5t66.5 -30l-31 -149q-14 8 -68.5 31.5t-131 46t-144.5 22.5q-127 0 -200.5 -54t-106.5 -171t-33 -314q0 -279 80 -403.5t229 -124.5q111 0 160 59.5t64 124.5v248h-207v139h446v-702h-123l-71 117 q-47 -61 -126 -100.5t-192 -39.5q-272 0 -421.5 180.5t-149.5 504.5z" />
<glyph unicode="H" horiz-adv-x="1341" d="M158 0v1331h282v-581h461v581h283v-1331h-283v606h-461v-606h-282z" />
<glyph unicode="I" horiz-adv-x="600" d="M158 0v1331h282v-1331h-282z" />
<glyph unicode="J" horiz-adv-x="786" d="M8 61l62 119q4 -4 20 -18.5t48 -26.5t73 -12q78 0 114.5 66.5t36.5 248.5v893h283v-893q0 -254 -91 -357.5t-282 -103.5q-92 0 -150.5 18.5t-86 40t-27.5 25.5z" />
<glyph unicode="K" horiz-adv-x="1267" d="M158 0v1331h282v-616l121 88l391 528h197l-404 -520l498 -811h-358l-357 598l-88 -61v-537h-282z" />
<glyph unicode="L" horiz-adv-x="980" d="M158 0v1331h282v-1184h516v-147h-798z" />
<glyph unicode="M" horiz-adv-x="1753" d="M158 0l16 1331h342l373 -981h8l367 981h317l14 -1331h-276l-14 1008h-7l-370 -1008h-211l-371 1008h-6l-6 -1008h-176z" />
<glyph unicode="N" horiz-adv-x="1333" d="M158 0v1331h293l559 -903h4l-15 92v811h177v-1331h-222l-632 999h-5l17 -118v-881h-176z" />
<glyph unicode="O" horiz-adv-x="1357" d="M74 664q0 319 156.5 503.5t445.5 184.5q291 0 449.5 -185.5t158.5 -502.5t-158.5 -502t-449.5 -185q-289 0 -445.5 183.5t-156.5 503.5zM385 664q0 -285 67.5 -413t223.5 -128q158 0 226.5 128t68.5 413q0 283 -70 411.5t-225 128.5q-154 0 -222.5 -129t-68.5 -411z" />
<glyph unicode="P" horiz-adv-x="1091" d="M158 0v1331h407q227 0 353 -113.5t126 -336.5q0 -160 -69.5 -264.5t-178 -152.5t-225.5 -48h-131v-416h-282zM440 547h99q102 0 151 70.5t49 250.5q0 182 -49 256t-151 74h-99v-651z" />
<glyph unicode="Q" horiz-adv-x="1357" d="M74 664q0 319 156.5 503.5t445.5 184.5q293 0 450.5 -178.5t157.5 -495.5q0 -268 -114.5 -448.5t-325.5 -231.5q135 -274 276 -274q27 0 58 12l12 -119q-55 -20 -121 -20q-149 0 -286.5 112.5t-204.5 274.5q-244 31 -374 210t-130 470zM385 664q0 -281 67.5 -411 t223.5 -130q155 0 225 131t70 410q0 276 -71 408t-224 132q-152 0 -221.5 -131t-69.5 -409z" />
<glyph unicode="R" horiz-adv-x="1183" d="M158 0v1331h409q225 0 352.5 -109.5t127.5 -308.5q0 -129 -63.5 -224t-166.5 -148l307 -541h-325l-250 483h-109v-483h-282zM440 618h105q76 0 118 26t60 87.5t18 169.5q0 160 -46 228.5t-156 68.5h-99v-580z" />
<glyph unicode="S" horiz-adv-x="1007" d="M63 139l78 119q0 -4 40 -38t108.5 -62.5t159.5 -28.5q96 0 149 51t53 135q0 53 -28.5 93.5t-70.5 68t-118 70.5q-98 51 -161.5 98t-108.5 123t-45 186q0 121 55 211t153.5 138.5t223.5 48.5q82 0 154.5 -20.5t123 -46t50.5 -28.5l-33 -139q-10 6 -50 27.5t-101.5 42 t-125.5 20.5q-78 0 -125 -44t-47 -122q0 -86 55.5 -137t170.5 -112q102 -55 163.5 -100.5t105.5 -122t44 -191.5q0 -125 -62.5 -215t-169 -138.5t-237.5 -48.5q-135 0 -225 36t-134.5 77t-44.5 49z" />
<glyph unicode="T" horiz-adv-x="1056" d="M29 1184v147h999v-147h-356v-1184h-285v1184h-358z" />
<glyph unicode="U" horiz-adv-x="1257" d="M139 483v848h285v-784q0 -221 60.5 -317.5t189.5 -96.5q137 0 202.5 100.5t65.5 313.5v784h174v-848q0 -242 -114.5 -374t-372.5 -132q-242 0 -366 133.5t-124 372.5z" />
<glyph unicode="V" horiz-adv-x="1179" d="M18 1331h299l316 -1124h6l342 1124h178l-428 -1331h-313z" />
<glyph unicode="W" horiz-adv-x="1787" d="M18 1331h301l246 -1007h4l273 1007h227l281 -1001h6l231 1001h180l-348 -1331h-241l-279 983h-4l-277 -983h-245z" />
<glyph unicode="X" horiz-adv-x="1189" d="M16 0l414 647l-395 684h354l246 -477h6l285 477h200l-389 -614l437 -717h-353l-284 508h-7l-301 -508h-213z" />
<glyph unicode="Y" horiz-adv-x="1071" d="M-14 1331h317l293 -604h4l287 604h196l-399 -786v-545h-285v514z" />
<glyph unicode="Z" horiz-adv-x="1161" d="M86 0v119l641 1065h-604v147h946v-123l-641 -1061h639v-147h-981z" />
<glyph unicode="[" horiz-adv-x="790" d="M174 -182v1638h600v-141h-362v-1358h362v-139h-600z" />
<glyph unicode="\" horiz-adv-x="935" d="M-14 1536h184l750 -2048h-183z" />
<glyph unicode="]" horiz-adv-x="790" d="M14 -43h363v1358h-363v139h602v-1636h-602v139z" />
<glyph unicode="^" horiz-adv-x="731" d="M61 1087l304 343l305 -343l-80 -90l-225 217l-224 -217z" />
<glyph unicode="_" horiz-adv-x="1390" d="M63 -180h1264v-152h-1264v152z" />
<glyph unicode="`" horiz-adv-x="495" d="M-74 1440l217 71l174 -301l-127 -34z" />
<glyph unicode="a" horiz-adv-x="1050" d="M55 246q0 180 169 261t394 99v60q0 139 -38.5 191t-130.5 52q-43 0 -97.5 -16t-94.5 -34.5t-52 -24.5l-27 131q12 6 58.5 25.5t117 38t142.5 18.5q193 0 294 -81t101 -278v-465q0 -108 42 -108h1q16 0 38.5 6t31.5 8l8 -106q-10 -4 -49 -14.5t-89.5 -21t-89.5 -10.5 q-59 0 -92 30t-43 97h-10q0 -6 -27.5 -37.5t-87 -60.5t-153.5 -29q-144 0 -230 72t-86 197zM340 281q0 -82 33 -124t88 -42q49 0 85 24.5t54 54t18 33.5v271q-137 -14 -207.5 -64.5t-70.5 -152.5z" />
<glyph unicode="b" horiz-adv-x="1116" d="M123 0v1528l272 16v-588h8q0 4 27 30t82 47.5t137 21.5q121 0 213 -65.5t143.5 -184.5t51.5 -273q0 -254 -114 -408.5t-314 -154.5q-82 0 -142.5 22.5t-94.5 48.5t-34 30h-4l-45 -70h-186zM395 201q0 -4 18.5 -23.5t54.5 -36t89 -16.5q113 0 160 91t47 310 q0 141 -19.5 221t-62.5 114t-115 34q-53 0 -92 -23.5t-59.5 -51t-20.5 -32.5v-587z" />
<glyph unicode="c" horiz-adv-x="913" d="M59 506q0 250 131.5 395.5t362.5 145.5q63 0 130 -17.5t112 -37t57 -25.5l-27 -131q-10 6 -51 23.5t-94 33.5t-96 16q-78 0 -127 -32.5t-76 -119.5t-27 -247q0 -227 57.5 -311t163.5 -84q72 0 124.5 31.5t81 67.5t28.5 42l96 -61q0 -12 -37 -66.5t-116.5 -103 t-204.5 -48.5q-236 0 -362 135.5t-126 393.5z" />
<glyph unicode="d" horiz-adv-x="1116" d="M59 489q0 166 51.5 292t145.5 194.5t219 68.5q80 0 133.5 -17t80 -36.5t26.5 -23.5h6v561l272 16v-1544h-227l-31 92h-2q0 -6 -24.5 -34.5t-79 -54.5t-142.5 -26q-127 0 -224 63.5t-150.5 179.5t-53.5 269zM352 498q0 -143 21.5 -221t63.5 -109t112 -31q51 0 89 20.5 t60.5 45t22.5 28.5v590q-4 6 -23.5 21.5t-55.5 31t-83 15.5q-111 0 -159 -88t-48 -303z" />
<glyph unicode="e" horiz-adv-x="970" d="M59 494q0 266 123 408t332 142q190 0 295.5 -119.5t105.5 -342.5q0 -51 -7 -86t-9 -43h-551q2 -184 54.5 -261t168.5 -77q70 0 123.5 29.5t84 65.5t30.5 40l92 -72q0 -8 -42 -59t-123 -96.5t-197 -45.5q-228 0 -354 126t-126 391zM348 586h314v47q0 156 -33 218t-115 62 q-57 0 -91 -28.5t-52.5 -99t-22.5 -199.5z" />
<glyph unicode="f" horiz-adv-x="708" d="M72 866v123l100 29v151q0 184 76 285.5t248 101.5q51 0 102 -15t85 -31.5t42 -22.5l-35 -117q-6 4 -30.5 15.5t-57.5 22.5t-57 11q-39 0 -59.5 -20.5t-31 -81t-10.5 -178.5v-115h256v-158h-256v-866h-272v866h-100z" />
<glyph unicode="g" horiz-adv-x="944" d="M20 -195q0 172 130 252q-23 49 -23 111q0 123 90 201q-74 47 -116 124.5t-42 182.5q0 184 119 276t303 92q82 0 156 -22l276 -2v-121l-98 -6q57 -86 57 -217q0 -182 -107.5 -278.5t-289.5 -96.5q-70 0 -141 16q-39 -31 -39 -75q0 -41 47 -62.5t162 -21.5q225 0 333.5 -82 t108.5 -242q0 -180 -117.5 -275.5t-349.5 -95.5q-231 0 -345 92.5t-114 249.5zM211 -188q0 -100 66.5 -154.5t201.5 -54.5q121 0 180.5 43t59.5 125t-64.5 118.5t-193.5 36.5q-121 0 -199 33q-51 -55 -51 -147zM322 676q0 -133 37.5 -191.5t109.5 -58.5q70 0 104.5 59.5 t34.5 194.5t-34.5 184t-106.5 49t-108.5 -50t-36.5 -187z" />
<glyph unicode="h" horiz-adv-x="1099" d="M123 0v1528l272 16v-590h8q0 4 34 27t93.5 43t139.5 20q160 0 237.5 -85t77.5 -265v-694h-270v672q0 119 -31 160.5t-109 41.5q-51 0 -91 -16t-64.5 -35.5t-24.5 -21.5v-801h-272z" />
<glyph unicode="i" horiz-adv-x="518" d="M104 1335q0 68 48 115q43 41 108 41q63 0 105 -39q45 -47 45 -117q0 -72 -45 -118q-45 -39 -105 -39q-61 0 -108 41q-47 47 -48 116zM123 0v1024h272v-1024h-272z" />
<glyph unicode="j" horiz-adv-x="573" d="M-102 -473l45 123q4 -2 19 -12.5t40 -18.5t49 -8q66 0 95.5 72.5t29.5 257.5v1083h273v-1083q0 -248 -97.5 -362t-263.5 -114q-59 0 -101 13.5t-65.5 30t-23.5 18.5zM160 1335q0 68 47 115q43 41 108 41q63 0 105 -39q45 -47 45 -117q0 -72 -45 -118q-45 -39 -105 -39 q-61 0 -108 41q-47 47 -47 116z" />
<glyph unicode="k" horiz-adv-x="1005" d="M121 0v1528l272 16v-954l142 96l217 338h168l-267 -381l332 -643h-311l-230 479l-51 -33v-446h-272z" />
<glyph unicode="l" horiz-adv-x="520" d="M123 0v1528l272 16v-1544h-272z" />
<glyph unicode="m" horiz-adv-x="1556" d="M123 0v1024h219l35 -92h6q0 4 37 33.5t97.5 54t135.5 24.5q84 0 139.5 -26.5t86.5 -81.5q35 29 60.5 46t88 39.5t141.5 22.5q145 0 209 -76.5t64 -252.5v-715h-273v694q0 111 -25.5 147t-82.5 36q-51 0 -88 -26t-58 -52q4 -49 5 -80v-719h-273v694q0 109 -25.5 146 t-80.5 37q-53 0 -92 -27t-54 -47v-803h-272z" />
<glyph unicode="n" horiz-adv-x="1101" d="M123 0v1024h219l35 -84h8q0 4 34 30.5t97.5 50t157.5 23.5q158 0 236.5 -85t78.5 -265v-694h-272v639q0 137 -30 186t-107 49q-53 0 -94.5 -16t-66 -35.5t-24.5 -21.5v-801h-272z" />
<glyph unicode="o" horiz-adv-x="1075" d="M59 512q0 256 124 395.5t354 139.5q231 0 355 -139.5t124 -395.5q0 -254 -128 -394.5t-351 -140.5q-230 0 -354 139.5t-124 395.5zM352 514q0 -150 18.5 -237t58.5 -125.5t108 -38.5q67 0 107 38.5t58.5 124.5t18.5 236t-18.5 236t-57.5 123.5t-108 37.5 q-70 0 -109 -37.5t-57.5 -123.5t-18.5 -234z" />
<glyph unicode="p" horiz-adv-x="1116" d="M123 -520v1544h219l37 -92h6q0 4 35 33.5t96.5 55.5t147.5 26q182 0 286.5 -139.5t104.5 -375.5q0 -166 -49.5 -291.5t-140.5 -194.5t-216 -69q-80 0 -135 17.5t-84 37t-29 23.5h-6v-567zM395 201q4 -6 20.5 -21.5t50.5 -31t81 -15.5q78 0 124 37t68.5 122t22.5 234 q0 141 -21.5 220t-63.5 110t-110 31q-49 0 -87 -18.5t-59.5 -39t-25.5 -30.5v-598z" />
<glyph unicode="q" horiz-adv-x="1116" d="M61 489q0 166 54.5 292t152 196t221.5 70q76 0 133.5 -19.5t90 -41t32.5 -25.5h3l61 63h182v-1536l-272 -8v594h-8q0 -4 -27 -29t-81 -46.5t-136 -21.5q-121 0 -213 63.5t-142.5 179.5t-50.5 269zM352 498q0 -147 24.5 -226t68.5 -107t114 -28q72 0 110 31t50 55v602 q-14 18 -52 42t-100 24q-109 0 -162 -85t-53 -308z" />
<glyph unicode="r" horiz-adv-x="727" d="M123 0v1024h192l45 -172h9q0 12 16 60.5t60 91.5t118 43q41 0 93.5 -12.5t68.5 -16.5l-25 -191q-16 4 -72.5 16.5t-97.5 12.5q-47 0 -76.5 -27.5t-44 -58.5t-14.5 -37v-733h-272z" />
<glyph unicode="s" horiz-adv-x="854" d="M49 131l76 107q0 -4 32.5 -37t83 -60.5t111.5 -27.5q76 0 117 38.5t41 102.5q0 61 -43 97t-129 75q-80 39 -128 70.5t-83 88t-35 144.5q0 152 104.5 235t258.5 83q66 0 131 -16.5t108 -33t56 -22.5l-37 -137q-10 6 -47 24.5t-89.5 34.5t-95.5 16q-63 0 -98 -30.5 t-35 -81.5q0 -61 46 -99t141 -81q84 -41 135 -75t88 -91.5t37 -143.5q0 -150 -99.5 -242t-285.5 -92q-119 0 -199 34t-121 73t-41 47z" />
<glyph unicode="t" horiz-adv-x="722" d="M61 866v123l101 29l131 346h139v-340h225v-158h-225v-506q0 -96 9.5 -146t30 -69.5t56.5 -19.5q41 0 74 8t33 10l16 -116q0 -2 -22.5 -14.5t-68.5 -24t-116 -11.5q-145 0 -214.5 72t-69.5 242v575h-99z" />
<glyph unicode="u" horiz-adv-x="1101" d="M115 328v696h272v-639q0 -135 33 -186.5t106 -51.5q49 0 88 17.5t61.5 36t29.5 24.5v799h272v-1024h-219l-39 90h-4q0 -4 -33 -33.5t-96.5 -54.5t-155.5 -25q-158 0 -236.5 85t-78.5 266z" />
<glyph unicode="v" horiz-adv-x="966" d="M10 1024h330l201 -729h8l229 729h178l-362 -1024h-225z" />
<glyph unicode="w" horiz-adv-x="1433" d="M12 1024h310l149 -682h6l195 682h186l215 -682h6l166 682h176l-301 -1024h-217l-184 668v2h-6l-191 -670h-217z" />
<glyph unicode="x" horiz-adv-x="968" d="M18 0l316 496l-299 528h325l170 -362l193 362h186l-284 -465l325 -559h-325l-193 383l-223 -383h-191z" />
<glyph unicode="y" horiz-adv-x="985" d="M14 1024h330l250 -729l211 729h170l-354 -1047q-63 -174 -120 -282.5t-128.5 -169t-167.5 -60.5q-47 0 -83 7.5t-54.5 14.5t-22.5 9l23 160q8 -4 40.5 -13.5t65.5 -9.5q92 0 149.5 73t127.5 253z" />
<glyph unicode="z" horiz-adv-x="888" d="M53 0v123l469 762h-430l-6 139h748v-123l-465 -762h446l4 -139h-766z" />
<glyph unicode="{" horiz-adv-x="831" d="M195 522v150q57 0 118.5 34.5t61.5 92.5q0 57 -27 186q-33 152 -33 232q0 106 40 174.5t139.5 104.5t271.5 36v-133q-115 0 -166 -44t-51 -132q0 -61 29 -222q31 -145 30 -223q0 -125 -141 -180q141 -59 141 -182q0 -74 -30 -223q-29 -156 -29 -220q0 -88 51 -132 t166 -44v-135q-254 0 -352.5 79t-98.5 239q0 76 33 231q4 16 15.5 78.5t11.5 107.5q0 57 -61.5 91t-118.5 34z" />
<glyph unicode="|" horiz-adv-x="700" d="M272 -512v2048h158v-2048h-158z" />
<glyph unicode="}" horiz-adv-x="831" d="M115 -203q115 0 166 44t51 132q0 63 -29 220q-31 150 -31 223q0 123 142 182q-141 55 -142 180q0 78 31 223q29 160 29 222q0 88 -51.5 132t-165.5 44v133q254 0 353 -78t99 -237q0 -80 -32 -232q-10 -51 -19.5 -101t-9.5 -85q0 -57 62.5 -92t119.5 -35v-150 q-57 0 -119.5 -33.5t-62.5 -91.5q0 -51 29 -186q33 -156 32 -231q0 -160 -99 -239t-353 -79v135z" />
<glyph unicode="~" horiz-adv-x="1224" d="M51 649q0 20 27.5 91t100.5 135.5t198 64.5q102 0 178 -36t170 -101q78 -53 127 -78t109 -25q49 0 78.5 21.5t42 45.5t12.5 30l84 -54q0 -18 -27 -90.5t-95.5 -138t-183.5 -65.5q-90 0 -157.5 32.5t-159.5 96.5q-80 57 -134 84.5t-122 27.5q-55 0 -90 -22.5t-52.5 -48 t-17.5 -31.5z" />
<glyph unicode="&#xa2;" horiz-adv-x="913" d="M59 649q0 211 96.5 350.5t270.5 178.5l23 256h133l26 -248q55 -8 109.5 -24.5t89.5 -32t45 -19.5l-27 -131q-10 6 -51 23.5t-94 34t-96 16.5q-78 0 -127 -33t-76 -120t-27 -247q0 -227 57.5 -311t163.5 -84q72 0 124.5 32t81 67.5t28.5 41.5l96 -61q0 -10 -30.5 -58.5 t-97 -96.5t-169.5 -60l-18 -225h-135l-27 231q-180 33 -274.5 165t-94.5 355z" />
<glyph unicode="&#xa3;" horiz-adv-x="1087" d="M82 0v250h84q96 63 96 227q0 45 -6 94l-174 15v131h156q-20 156 -21 241q0 195 107.5 294.5t302.5 99.5q66 0 131 -18.5t108 -39t56 -26.5l-41 -133q-8 6 -41 22.5t-77 31.5t-77 15q-59 0 -94 -20.5t-52.5 -76.5t-17.5 -165q0 -133 -8 -225h420v-150h-436 q-35 -209 -119 -317h663v-250h-960z" />
<glyph unicode="&#xa5;" horiz-adv-x="1208" d="M53 1331h318l293 -604h4l286 604h197l-326 -641h168v-129h-233l-8 -16v-119h241v-131h-241v-295h-285v295h-260v131h260v88l-25 47h-235v129h170z" />
<glyph unicode="&#xa8;" horiz-adv-x="864" d="M2 1335q0 63 41 107q41 35 94 35t94 -35q41 -47 41 -107q0 -61 -41 -106q-39 -37 -94 -37t-94 37q-41 41 -41 106zM383 1335q0 63 41 107q39 35 94 35q53 0 94 -35q41 -47 41 -107q0 -61 -41 -106q-39 -37 -94 -37q-57 0 -94 37q-41 41 -41 106z" />
<glyph unicode="&#xa9;" horiz-adv-x="1492" d="M121 662q0 213 72.5 371.5t213 245.5t336.5 87q197 0 339.5 -87t216 -246t73.5 -371q0 -213 -72.5 -371t-215 -244t-341.5 -86q-301 0 -461.5 188.5t-160.5 512.5zM248 659q0 -276 130 -428.5t363 -152.5q234 0 369 152.5t135 428.5q0 182 -61.5 316.5t-175 205 t-267.5 70.5q-231 0 -362 -157.5t-131 -434.5zM444 653q0 111 44 194t121 126t169 43q53 0 98.5 -15.5t72 -32t32.5 -22.5l-37 -96q-6 4 -26.5 18.5t-51 26.5t-63.5 12q-78 0 -118 -57t-40 -197q0 -135 41 -192.5t119 -57.5q49 0 84 24t53.5 50.5t18.5 30.5l59 -59 q0 -10 -22.5 -48.5t-80 -73t-153.5 -34.5q-137 0 -228.5 96t-91.5 264z" />
<glyph unicode="&#xab;" horiz-adv-x="1097" d="M162 512l364 381l70 -76l-182 -307l182 -309l-72 -80zM541 512l364 381l70 -76l-182 -307l182 -309l-72 -80z" />
<glyph unicode="&#xad;" horiz-adv-x="681" d="M63 487v152h558v-152h-558z" />
<glyph unicode="&#xae;" horiz-adv-x="1370" d="M94 881q0 201 72 353t205 236t311 84q180 0 315.5 -84t208 -236.5t72.5 -352.5q0 -201 -69.5 -354.5t-204 -237.5t-322.5 -84q-186 0 -318.5 84t-201 236.5t-68.5 355.5zM219 879q0 -258 121 -407.5t340 -149.5t345 150.5t126 406.5q0 170 -56.5 298t-163 197.5 t-251.5 69.5t-248.5 -72t-158 -200t-54.5 -293zM481 561v635h201q256 0 256 -197q0 -61 -29.5 -107t-85.5 -73l115 -260h-160l-98 234h-55v-232h-144zM625 872h61q43 0 66.5 29t23.5 96q0 61 -22.5 88t-69.5 27h-59v-240z" />
<glyph unicode="&#xb4;" horiz-adv-x="495" d="M125 1184l143 311l221 -63l-247 -267z" />
<glyph unicode="&#xb8;" horiz-adv-x="509" d="M51 -420l53 60q4 -4 17.5 -18.5t38 -28t57.5 -13.5q102 0 102 117q0 49 -31.5 68.5t-61 25.5t-29.5 8l24 199h90l-12 -117q0 -2 49 -19.5t91 -58.5t42 -110q0 -94 -60.5 -150.5t-172.5 -56.5q-68 0 -112 20.5t-64.5 45t-20.5 28.5z" />
<glyph unicode="&#xbb;" horiz-adv-x="1097" d="M121 195l184 307l-182 311l74 80l358 -391l-360 -381zM500 195l184 307l-182 311l73 80l359 -391l-361 -381z" />
<glyph unicode="&#x2c6;" horiz-adv-x="731" d="M92 1292l201 250h143l199 -250l-57 -92l-213 174l-213 -174z" />
<glyph unicode="&#x2da;" horiz-adv-x="860" d="M90 1343q0 102 60.5 161t154.5 59q92 0 153.5 -59.5t61.5 -160.5q0 -102 -59.5 -161.5t-155.5 -59.5q-98 0 -156.5 58.5t-58.5 162.5zM184 1346q0 -68 33 -102t88 -34t88 34t33 102q0 63 -34 97t-87 34t-87 -34t-34 -97z" />
<glyph unicode="&#x2dc;" horiz-adv-x="876" d="M72 1290q0 8 30.5 55.5t87 88.5t134.5 41q55 0 95 -14.5t89 -41.5q43 -20 69.5 -30.5t57.5 -10.5q33 0 55.5 14.5t33.5 31t13 20.5l74 -72q0 -8 -24.5 -49t-76 -77t-128.5 -36q-45 0 -81 12.5t-91 39.5q-43 23 -76 35t-70 12q-33 0 -59.5 -20.5t-40.5 -43t-19 -28.5z" />
<glyph unicode="&#x400;" d="M158 0v1331h798v-147h-516v-439h455v-143h-455v-455h545v-147h-827zM381 1747l217 71l174 -301l-127 -34z" />
<glyph unicode="&#x401;" d="M158 0v1331h798v-147h-516v-439h455v-143h-455v-455h545v-147h-827zM252 1642q0 63 41 107q41 35 94 35t94 -35q41 -47 41 -107q0 -61 -41 -106q-41 -37 -94 -37q-55 0 -94 37q-41 41 -41 106zM633 1642q0 63 41 107q39 35 94 35q53 0 94 -35q41 -47 41 -107 q0 -61 -41 -106q-41 -37 -94 -37q-57 0 -94 37q-41 41 -41 106z" />
<glyph unicode="&#x402;" horiz-adv-x="1366" d="M29 1186v145h915v-145h-315v-457h4q0 4 38 31.5t106.5 51.5t162.5 24q182 0 262 -92.5t80 -268.5v-51q0 -250 -86 -348.5t-260 -98.5q-57 0 -98 12.5t-61.5 28t-20.5 17.5l39 102q2 -2 14 -10t30.5 -15.5t41.5 -7.5q49 0 80.5 45.5t35.5 180.5v90q0 104 -15 157.5t-50 72 t-101 18.5q-74 0 -126 -28t-76 -52v-588h-285v1186h-315z" />
<glyph unicode="&#x403;" horiz-adv-x="897" d="M158 0v1331h741v-147h-459v-1184h-282zM430 1491l144 311l221 -63l-248 -267z" />
<glyph unicode="&#x404;" horiz-adv-x="1200" d="M74 643q0 209 70.5 368.5t204.5 250t319 90.5q94 0 184 -23.5t154.5 -51.5t64.5 -30l-29 -149q-14 8 -67 31.5t-129 46t-144 22.5q-154 0 -229.5 -109.5t-83.5 -363.5h588v-143h-590q8 -254 93 -352.5t253 -98.5q96 0 172 42t122 92t46 57l88 -99q0 -10 -54 -73.5 t-158.5 -118t-256.5 -54.5q-295 0 -456.5 176.5t-161.5 489.5z" />
<glyph unicode="&#x405;" horiz-adv-x="1007" d="M63 139l78 119q0 -4 40 -38t108.5 -62.5t159.5 -28.5q96 0 149 51t53 135q0 53 -28.5 93.5t-70.5 68t-118 70.5q-98 51 -161.5 98t-108.5 123t-45 186q0 121 55 211t153.5 138.5t223.5 48.5q82 0 154.5 -20.5t123 -46t50.5 -28.5l-33 -139q-10 6 -50 27.5t-101.5 42 t-125.5 20.5q-78 0 -125 -44t-47 -122q0 -86 55.5 -137t170.5 -112q102 -55 163.5 -100.5t105.5 -122t44 -191.5q0 -125 -62.5 -215t-169 -138.5t-237.5 -48.5q-135 0 -225 36t-134.5 77t-44.5 49z" />
<glyph unicode="&#x406;" horiz-adv-x="600" d="M158 0v1331h282v-1331h-282z" />
<glyph unicode="&#x407;" horiz-adv-x="600" d="M-24 1642q0 63 41 107q41 35 94 35t94 -35q41 -47 41 -107q0 -61 -41 -106q-41 -37 -94 -37q-55 0 -94 37q-41 41 -41 106zM158 0v1331h282v-1331h-282zM357 1642q0 63 41 107q39 35 94 35q53 0 94 -35q41 -47 41 -107q0 -61 -41 -106q-41 -37 -94 -37q-57 0 -94 37 q-41 41 -41 106z" />
<glyph unicode="&#x408;" horiz-adv-x="786" d="M8 61l62 119q4 -4 20 -18.5t48 -26.5t73 -12q78 0 114.5 66.5t36.5 248.5v893h283v-893q0 -254 -91 -357.5t-282 -103.5q-92 0 -150.5 18.5t-86 40t-27.5 25.5z" />
<glyph unicode="&#x409;" horiz-adv-x="1820" d="M49 -4l10 180q6 -2 24.5 -6t37.5 -4q143 0 211.5 273.5t68.5 891.5h727v-510h97q252 0 387 -98t135 -295q0 -205 -130 -316.5t-384 -111.5h-387v1184h-283q-2 -604 -106.5 -904t-296.5 -300q-49 0 -80 7t-31 9zM1128 133h99q121 0 174 66.5t53 220.5q0 152 -55.5 212 t-173.5 60h-97v-559z" />
<glyph unicode="&#x40a;" horiz-adv-x="1873" d="M158 0v1331h282v-581h459v581h285v-510h94q252 0 387 -98t135 -295q0 -205 -130 -316.5t-384 -111.5h-387v606h-459v-606h-282zM1184 133h96q121 0 174 66.5t53 220.5q0 152 -55 212t-174 60h-94v-559z" />
<glyph unicode="&#x40b;" horiz-adv-x="1423" d="M29 1186v145h915v-145h-315v-457h4q0 4 38 31.5t106.5 51.5t162.5 24q182 0 262 -92.5t80 -268.5v-475h-285v420q0 104 -15 157.5t-50 72t-101 18.5q-74 0 -126 -28t-76 -52v-588h-285v1186h-315z" />
<glyph unicode="&#x40c;" horiz-adv-x="1282" d="M158 0v1331h282v-616l121 88l391 528h197l-404 -520l498 -811h-358l-357 598l-88 -61v-537h-282zM458 1491l144 311l221 -63l-248 -267z" />
<glyph unicode="&#x40d;" horiz-adv-x="1384" d="M158 0v1331h282v-882l-14 -134h4l516 971l19 45h262v-1331h-283v860l12 148h-2l-514 -963l-16 -45h-266zM496 1747l217 71l174 -301l-127 -34z" />
<glyph unicode="&#x40e;" horiz-adv-x="1220" d="M47 1331h332l360 -741h6l242 741h189l-355 -921q-90 -229 -200.5 -331t-258.5 -102q-59 0 -104 11.5t-68.5 24t-29.5 16.5l37 172q6 -4 26.5 -14.5t57 -19.5t81.5 -9q78 0 131.5 28.5t102.5 110.5zM366 1681l213 19v-25q-2 -4 -5 -15t-3 -26q0 -33 26.5 -56.5t92.5 -23.5 q68 0 94.5 24t26.5 56q0 14 -3 25.5t-5 15.5v25l213 -19q0 -70 -56.5 -160.5t-269.5 -90.5t-268.5 91t-55.5 160z" />
<glyph unicode="&#x40f;" horiz-adv-x="1310" d="M158 0v1331h282v-1184h430v1184h283v-1331h-373l-41 -418h-157l-50 418h-374z" />
<glyph unicode="&#x410;" horiz-adv-x="1245" d="M39 0l442 1331h314l413 -1331h-299l-114 373h-463l-121 -373h-172zM373 502h383l-183 626h-4z" />
<glyph unicode="&#x411;" horiz-adv-x="1132" d="M158 0v1331h747v-147h-463v-363h86q254 0 392.5 -98t138.5 -295q0 -203 -133 -315.5t-389 -112.5h-379zM442 133h90q123 0 178.5 63.5t55.5 223.5q0 156 -56.5 214t-179.5 58h-88v-559z" />
<glyph unicode="&#x412;" horiz-adv-x="1165" d="M158 0v1331h405q158 0 263.5 -48t156.5 -127t51 -171q0 -102 -56 -174t-142 -117q117 -37 186.5 -116.5t69.5 -194.5q0 -174 -132.5 -278.5t-386.5 -104.5h-415zM440 133h127q111 0 174.5 64.5t63.5 195.5q0 223 -182 223h-183v-483zM440 739h168q57 0 103.5 54.5 t46.5 175.5q0 119 -55.5 174t-147.5 55h-115v-459z" />
<glyph unicode="&#x413;" horiz-adv-x="897" d="M158 0v1331h741v-147h-459v-1184h-282z" />
<glyph unicode="&#x414;" horiz-adv-x="1323" d="M47 147h137q86 180 122 441.5t36 742.5h768v-1184h166l-49 -505h-160l-45 358h-729l-82 -358h-141zM352 147h475v1037h-319q-4 -395 -41 -630t-115 -407z" />
<glyph unicode="&#x415;" d="M158 0v1331h798v-147h-516v-439h455v-143h-455v-455h545v-147h-827z" />
<glyph unicode="&#x416;" horiz-adv-x="1832" d="M43 0l383 778l-324 553h203l273 -504h182v504h282v-504h160l320 504h202l-360 -508l426 -823h-330l-315 680h-103v-680h-282v678h-117l-268 -678h-332z" />
<glyph unicode="&#x417;" horiz-adv-x="1046" d="M25 190l86 107q0 -6 39.5 -50t112.5 -81t171 -37q223 0 223 250q0 131 -44 182t-134 51l-196 -16v158l215 -19q55 2 95 63.5t40 188.5q0 121 -45 171t-150 50q-57 0 -120.5 -19.5t-108.5 -41t-57 -27.5l-27 140q0 2 59.5 26.5t141.5 45t168 20.5q211 0 325.5 -94.5 t114.5 -256.5q0 -115 -60.5 -191.5t-152.5 -123.5q254 -61 254 -311q0 -117 -63.5 -207t-179.5 -140.5t-263 -50.5q-160 0 -258 47.5t-142 100.5t-44 65z" />
<glyph unicode="&#x418;" horiz-adv-x="1384" d="M158 0v1331h282v-882l-14 -134h4l516 971l19 45h262v-1331h-283v860l12 148h-2l-514 -963l-16 -45h-266z" />
<glyph unicode="&#x419;" horiz-adv-x="1384" d="M158 0v1331h282v-882l-14 -134h4l516 971l19 45h262v-1331h-283v860l12 148h-2l-514 -963l-16 -45h-266zM366 1681l213 19v-25q-2 -4 -5 -15t-3 -26q0 -33 26.5 -56.5t92.5 -23.5q68 0 94.5 24t26.5 56q0 14 -3 25.5t-5 15.5v25l213 -19q0 -70 -56.5 -160.5t-269.5 -90.5 t-268.5 91t-55.5 160z" />
<glyph unicode="&#x41a;" horiz-adv-x="1282" d="M158 0v1331h282v-616l121 88l391 528h197l-404 -520l498 -811h-358l-357 598l-88 -61v-537h-282z" />
<glyph unicode="&#x41b;" horiz-adv-x="1286" d="M49 -4l10 180q6 -2 24.5 -6t37.5 -4q143 0 211.5 273.5t68.5 891.5h727v-1331h-282v1184h-283q-2 -604 -106.5 -904t-296.5 -300q-49 0 -80 7t-31 9z" />
<glyph unicode="&#x41c;" horiz-adv-x="1753" d="M158 0l16 1331h342l373 -981h8l367 981h317l14 -1331h-276l-14 1008h-7l-370 -1008h-211l-371 1008h-6l-6 -1008h-176z" />
<glyph unicode="&#x41d;" horiz-adv-x="1341" d="M158 0v1331h282v-581h461v581h283v-1331h-283v606h-461v-606h-282z" />
<glyph unicode="&#x41e;" horiz-adv-x="1357" d="M74 664q0 319 156.5 503.5t445.5 184.5q291 0 449.5 -185.5t158.5 -502.5t-158.5 -502t-449.5 -185q-289 0 -445.5 183.5t-156.5 503.5zM385 664q0 -285 67.5 -413t223.5 -128q158 0 226.5 128t68.5 413q0 283 -70 411.5t-225 128.5q-154 0 -222.5 -129t-68.5 -411z" />
<glyph unicode="&#x41f;" horiz-adv-x="1310" d="M158 0v1331h995v-1331h-283v1184h-430v-1184h-282z" />
<glyph unicode="&#x420;" horiz-adv-x="1091" d="M158 0v1331h407q227 0 353 -113.5t126 -336.5q0 -160 -69.5 -264.5t-178 -152.5t-225.5 -48h-131v-416h-282zM440 547h99q102 0 151 70.5t49 250.5q0 182 -49 256t-151 74h-99v-651z" />
<glyph unicode="&#x421;" horiz-adv-x="1179" d="M74 655q0 209 71.5 367t209 244t325.5 86q94 0 185 -23.5t158 -51.5t67 -30l-29 -149q-14 8 -69.5 31.5t-132.5 46t-144 22.5q-115 0 -186.5 -51t-107.5 -168t-36 -313q0 -289 84 -412t260 -123q98 0 173 42t121 92t46 57l90 -99q0 -10 -54 -73.5t-158.5 -118 t-256.5 -54.5q-301 0 -458.5 181.5t-157.5 496.5z" />
<glyph unicode="&#x422;" horiz-adv-x="1056" d="M29 1184v147h999v-147h-356v-1184h-285v1184h-358z" />
<glyph unicode="&#x423;" horiz-adv-x="1220" d="M47 1331h332l360 -741h6l242 741h189l-355 -921q-90 -229 -200.5 -331t-258.5 -102q-59 0 -104 11.5t-68.5 24t-29.5 16.5l37 172q6 -4 26.5 -14.5t57 -19.5t81.5 -9q78 0 131.5 28.5t102.5 110.5z" />
<glyph unicode="&#x424;" horiz-adv-x="1572" d="M51 674q0 250 160 387t434 143v127h283v-127q272 -6 434 -143t162 -385q0 -250 -163 -391.5t-433 -147.5v-137h-283v137q-272 6 -433 146.5t-161 390.5zM350 674q0 -199 68.5 -300.5t226.5 -109.5v815q-158 -8 -226.5 -107.5t-68.5 -297.5zM928 264q155 8 225 110.5 t70 301.5q0 197 -70 296t-225 107v-815z" />
<glyph unicode="&#x425;" horiz-adv-x="1189" d="M16 0l414 647l-395 684h354l246 -477h6l285 477h200l-389 -614l437 -717h-353l-284 508h-7l-301 -508h-213z" />
<glyph unicode="&#x426;" horiz-adv-x="1366" d="M158 0v1331h282v-1184h430v1184h283v-1184h166l-57 -505h-154l-47 358h-903z" />
<glyph unicode="&#x427;" horiz-adv-x="1200" d="M104 858v473h285v-438q0 -106 17.5 -164.5t53.5 -81t97 -22.5q66 0 118 17t83 34v655h284v-1331h-284v545l-28 -21q-28 -20 -105.5 -41.5t-171.5 -21.5q-182 0 -265.5 107.5t-83.5 289.5z" />
<glyph unicode="&#x428;" horiz-adv-x="1781" d="M158 0v1331h282v-1184h310v1184h282v-1184h307v1184h285v-1331h-1466z" />
<glyph unicode="&#x429;" horiz-adv-x="1830" d="M158 0v1331h282v-1184h310v1184h282v-1184h307v1184h285v-1184h156l-51 -505h-156l-45 358h-1370z" />
<glyph unicode="&#x42a;" horiz-adv-x="1318" d="M29 1184v147h598v-510h96q252 0 387 -98t135 -295q0 -205 -130 -316.5t-384 -111.5h-387v1184h-315zM627 133h98q121 0 174 66.5t53 220.5q0 152 -55 212t-174 60h-96v-559z" />
<glyph unicode="&#x42b;" horiz-adv-x="1648" d="M158 0v1331h282v-510h97q252 0 387 -98t135 -295q0 -205 -130 -316.5t-384 -111.5h-387zM440 133h99q121 0 174 66.5t53 220.5q0 152 -55.5 212t-173.5 60h-97v-559zM1208 0v1331h283v-1331h-283z" />
<glyph unicode="&#x42c;" horiz-adv-x="1132" d="M158 0v1331h282v-510h97q252 0 387 -98t135 -295q0 -205 -130 -316.5t-384 -111.5h-387zM440 133h99q121 0 174 66.5t53 220.5q0 152 -55.5 212t-173.5 60h-97v-559z" />
<glyph unicode="&#x42d;" horiz-adv-x="1155" d="M23 166l81 123q0 -6 42 -46t113 -75t165 -35q158 0 241 102.5t95 358.5h-555v145h555q-4 186 -33 284.5t-93.5 137.5t-182.5 39q-68 0 -134.5 -20.5t-109.5 -42l-55 -27.5l-27 143q0 2 58.5 29t138 48.5t161.5 21.5q305 0 451.5 -178.5t146.5 -501.5q0 -207 -72.5 -363.5 t-207.5 -244t-314 -87.5q-153 0 -256.5 42t-155.5 90.5t-52 56.5z" />
<glyph unicode="&#x42e;" horiz-adv-x="1890" d="M158 0v1331h282v-594h170q16 287 171 451t427 164q193 0 330 -84t208 -240t71 -364q0 -317 -160 -502t-449 -185q-272 0 -426.5 164t-171.5 453h-170v-594h-282zM909 664q0 -279 72 -413t227 -134q156 0 225.5 133t69.5 414q0 279 -70.5 413.5t-224.5 134.5t-226.5 -136 t-72.5 -412z" />
<glyph unicode="&#x42f;" horiz-adv-x="1183" d="M74 0l276 549q-111 43 -179.5 135t-68.5 229q0 203 123 310.5t318 107.5h483v-1331h-285v514h-151l-225 -514h-291zM387 920q0 -133 44 -199t124 -66h186v541h-188q-78 0 -122 -69.5t-44 -206.5z" />
<glyph unicode="&#x430;" horiz-adv-x="1050" d="M55 246q0 180 169 261t394 99v60q0 139 -38.5 191t-130.5 52q-43 0 -97.5 -16t-94.5 -34.5t-52 -24.5l-27 131q12 6 58.5 25.5t117 38t142.5 18.5q193 0 294 -81t101 -278v-465q0 -109 43 -108q16 0 38.5 6t31.5 8l8 -106q-10 -4 -49 -14.5t-89.5 -21t-89.5 -10.5 q-59 0 -92 30t-43 97h-10q0 -6 -27.5 -37.5t-87 -60.5t-153.5 -29q-144 0 -230 72t-86 197zM340 281q0 -82 33 -124t88 -42q49 0 85 24.5t54 54t18 33.5v271q-137 -14 -207.5 -64.5t-70.5 -152.5z" />
<glyph unicode="&#x431;" horiz-adv-x="1077" d="M63 563q0 260 34 448.5t154 329t359 170.5l287 37l10 -268l-223 -16q-256 -18 -367.5 -144.5t-109.5 -365.5h16q12 53 53 120.5t118 120t188 52.5q205 0 319.5 -137.5t114.5 -391.5t-128 -397.5t-349 -143.5q-240 0 -358 156t-118 430zM356 551q0 -240 41 -339t142 -99 q100 0 142 92t42 313q0 147 -18.5 232.5t-57.5 123t-108 37.5q-96 0 -139.5 -90t-43.5 -270z" />
<glyph unicode="&#x432;" horiz-adv-x="1021" d="M123 0v1024h391q217 0 315.5 -75t98.5 -199q0 -154 -180 -226q90 -25 152.5 -81t62.5 -144q0 -143 -102.5 -221t-342.5 -78h-395zM395 123h117q90 0 131 51t41 137q0 160 -158 160h-131v-348zM395 567h150q0 -4 30.5 9.5t55 51.5t24.5 107q0 166 -145 166h-115v-334z" />
<glyph unicode="&#x433;" horiz-adv-x="761" d="M123 0v1024h616v-150h-344v-874h-272z" />
<glyph unicode="&#x434;" horiz-adv-x="1087" d="M14 145h136q63 166 83.5 365t20.5 514h666v-879h145l-31 -448h-129l-47 303h-631l-61 -303h-131zM322 145h325v734h-241q-2 -242 -18.5 -413t-65.5 -321z" />
<glyph unicode="&#x435;" horiz-adv-x="970" d="M59 494q0 266 123 408t332 142q190 0 295.5 -119.5t105.5 -342.5q0 -51 -7 -86t-9 -43h-551q2 -184 54.5 -261t168.5 -77q70 0 123.5 29.5t84 65.5t30.5 40l92 -72q0 -8 -42 -59t-123 -96.5t-197 -45.5q-228 0 -354 126t-126 391zM348 586h314v47q0 156 -33 218t-115 62 q-57 0 -91 -28.5t-52.5 -99t-22.5 -199.5z" />
<glyph unicode="&#x436;" horiz-adv-x="1472" d="M25 0l294 580l-247 444h186l197 -391l145 -4v395h272v-393l144 4l217 389h178l-258 -451l295 -573h-295l-217 492l-64 -3v-489h-272v492l-61 4l-222 -496h-292z" />
<glyph unicode="&#x437;" horiz-adv-x="894" d="M16 139l76 99q0 -6 31 -38t88 -59.5t139 -27.5q94 0 147.5 50t53.5 146q0 80 -43 117t-115 37l-172 -10v139l185 -8h12q41 6 74.5 45t33.5 121q0 86 -41 123.5t-129 37.5q-47 0 -100 -17t-92 -35.5t-49 -24.5l-25 133q12 6 59.5 25.5t116 37t131.5 17.5q205 0 303.5 -73 t98.5 -204q0 -160 -166 -231q90 -25 145.5 -83.5t55.5 -160.5q0 -156 -118 -237t-327 -81q-137 0 -220 36t-118 76t-35 50z" />
<glyph unicode="&#x438;" horiz-adv-x="1130" d="M123 0v1024h272v-674l375 674h238v-1024h-273v715l-399 -715h-213z" />
<glyph unicode="&#x439;" horiz-adv-x="1130" d="M123 0v1024h272v-674l375 674h238v-1024h-273v715l-399 -715h-213zM254 1405l213 18v-24q-2 -4 -5 -15.5t-3 -25.5q0 -33 26.5 -56.5t92.5 -23.5q68 0 94.5 23.5t26.5 56.5q0 14 -3 25.5t-5 15.5v24l213 -18q0 -70 -56.5 -161t-269.5 -91t-268.5 91t-55.5 161z" />
<glyph unicode="&#x43a;" horiz-adv-x="1009" d="M123 0v1024h272v-428l129 68l228 360h157l-241 -383l319 -641h-309l-217 485l-66 -28v-457h-272z" />
<glyph unicode="&#x43b;" horiz-adv-x="1024" d="M18 -16l11 163q8 -2 24 -2q127 0 181.5 226.5t54.5 652.5h610v-1024h-272v874h-185q-10 -410 -100 -653.5t-270 -243.5q-25 1 -54 7z" />
<glyph unicode="&#x43c;" horiz-adv-x="1390" d="M113 0l55 1024h328l198 -733h2l232 733h321l27 -1024h-254l-18 672v110h-7l-260 -782h-186l-248 782h-4l-2 -57l-33 -725h-151z" />
<glyph unicode="&#x43d;" horiz-adv-x="1107" d="M123 0v1024h272v-428h318v428h272v-1024h-272v457h-318v-457h-272z" />
<glyph unicode="&#x43e;" horiz-adv-x="1075" d="M59 512q0 256 124 395.5t354 139.5q231 0 355 -139.5t124 -395.5q0 -254 -128 -394.5t-351 -140.5q-230 0 -354 139.5t-124 395.5zM352 514q0 -150 18.5 -237t58.5 -125.5t108 -38.5q67 0 107 38.5t58.5 124.5t18.5 236t-18.5 236t-57.5 123.5t-108 37.5 q-70 0 -109 -37.5t-57.5 -123.5t-18.5 -234z" />
<glyph unicode="&#x43f;" horiz-adv-x="1095" d="M123 0v1024h848v-1024h-273v874h-303v-874h-272z" />
<glyph unicode="&#x440;" horiz-adv-x="1116" d="M123 -520v1544h219l37 -92h6q0 4 35 33.5t96.5 55.5t147.5 26q182 0 286.5 -139.5t104.5 -375.5q0 -166 -49.5 -291.5t-140.5 -194.5t-216 -69q-80 0 -135 17.5t-84 37t-29 23.5h-6v-567zM395 201q4 -6 20.5 -21.5t50.5 -31t81 -15.5q78 0 124 37t68.5 122t22.5 234 q0 141 -21.5 220t-63.5 110t-110 31q-49 0 -87 -18.5t-59.5 -39t-25.5 -30.5v-598z" />
<glyph unicode="&#x441;" horiz-adv-x="913" d="M59 506q0 250 131.5 395.5t362.5 145.5q63 0 130 -17.5t112 -37t57 -25.5l-27 -131q-10 6 -51 23.5t-94 33.5t-96 16q-78 0 -127 -32.5t-76 -119.5t-27 -247q0 -227 57.5 -311t163.5 -84q72 0 124.5 31.5t81 67.5t28.5 42l96 -61q0 -12 -37 -66.5t-116.5 -103 t-204.5 -48.5q-236 0 -362 135.5t-126 393.5z" />
<glyph unicode="&#x442;" horiz-adv-x="905" d="M20 1024h863v-150h-295v-874h-271v874h-294z" />
<glyph unicode="&#x443;" horiz-adv-x="985" d="M14 1024h330l250 -729l211 729h170l-354 -1047q-63 -174 -120 -282.5t-128.5 -169t-167.5 -60.5q-47 0 -83 7.5t-54.5 14.5t-22.5 9l23 160q8 -4 40.5 -13.5t65.5 -9.5q92 0 149.5 73t127.5 253z" />
<glyph unicode="&#x444;" horiz-adv-x="1425" d="M59 510q0 256 136.5 396.5t365.5 140.5l14 -3v484l273 16v-497h14q229 0 366.5 -140.5t137.5 -394.5t-137 -394.5t-367 -140.5l-14 3v-492l-273 -8v497h-14q-229 0 -365.5 139.5t-136.5 393.5zM338 510q0 -223 58.5 -309t178.5 -88v796q-80 -2 -132 -36.5t-78.5 -121.5 t-26.5 -241zM848 115q80 2 132 36.5t79.5 120.5t27.5 240q0 225 -59 311t-180 88v-796z" />
<glyph unicode="&#x445;" horiz-adv-x="968" d="M18 0l316 496l-299 528h325l170 -362l193 362h186l-284 -465l325 -559h-325l-193 383l-223 -383h-191z" />
<glyph unicode="&#x446;" horiz-adv-x="1140" d="M123 0v1024h272v-874h303v874h273v-874h135l-31 -453h-143l-35 303h-774z" />
<glyph unicode="&#x447;" horiz-adv-x="1013" d="M76 659v365h272v-373q0 -84 27.5 -120.5t89.5 -36.5q39 0 72.5 8t54 17t24.5 11v494h273v-1024h-273v422h-2q0 -2 -30.5 -15.5t-86 -25.5t-132.5 -12q-289 0 -289 290z" />
<glyph unicode="&#x448;" horiz-adv-x="1546" d="M123 0v1024h272v-874h242v874h272v-874h240v874h272v-1024h-1298z" />
<glyph unicode="&#x449;" horiz-adv-x="1589" d="M123 0v1024h272v-874h242v874h272v-874h240v874h272v-874h135l-28 -453h-144l-36 303h-1225z" />
<glyph unicode="&#x44a;" horiz-adv-x="1179" d="M37 874v150h538v-352h97q453 0 452 -324q0 -178 -111.5 -263t-340.5 -85h-369v874h-266zM575 123h84q86 0 130.5 48t44.5 177q0 117 -47.5 160t-127.5 43h-84v-428z" />
<glyph unicode="&#x44b;" horiz-adv-x="1472" d="M123 0v1024h272v-352h97q453 0 452 -324q0 -178 -111.5 -263t-340.5 -85h-369zM395 123h84q86 0 130 48t44 177q0 117 -47 160t-127 43h-84v-428zM1077 0v1024h273v-1024h-273z" />
<glyph unicode="&#x44c;" horiz-adv-x="1001" d="M123 0v1024h272v-352h97q453 0 452 -324q0 -178 -111.5 -263t-340.5 -85h-369zM395 123h84q86 0 130 48t44 177q0 117 -47 160t-127 43h-84v-428z" />
<glyph unicode="&#x44d;" horiz-adv-x="923" d="M20 135l74 96q0 -4 34 -34.5t91 -56t133 -25.5q84 0 135.5 29.5t78 101t30.5 198.5l-393 -8v156h393q-4 127 -31.5 196.5t-76 96t-126.5 26.5q-49 0 -106 -17t-99 -35.5t-53 -24.5l-24 133q14 6 63.5 25.5t119 37t132.5 17.5q221 0 345 -134.5t124 -373.5 q0 -186 -64.5 -312.5t-173 -188t-241.5 -61.5q-125 0 -206 35t-120 75t-39 48z" />
<glyph unicode="&#x44e;" horiz-adv-x="1468" d="M123 0v1024h272v-428h123q18 219 127 335t299 116q229 0 346 -137.5t117 -397.5t-116.5 -397.5t-346.5 -137.5q-194 0 -305 123t-123 357h-121v-457h-272zM776 514q0 -215 38 -310t136 -95q101 0 139.5 95t38.5 308q0 150 -16 237t-54 126.5t-108 39.5 q-68 0 -105.5 -39.5t-53 -125.5t-15.5 -236z" />
<glyph unicode="&#x44f;" horiz-adv-x="1007" d="M61 0l215 451q-88 41 -143 105.5t-55 150.5q0 162 112.5 239.5t319.5 77.5h373v-1024h-273v399h-108l-164 -399h-277zM346 705q0 -94 51.5 -139.5t134.5 -45.5h78v381h-80q-90 0 -137 -46t-47 -150z" />
<glyph unicode="&#x450;" horiz-adv-x="970" d="M59 494q0 266 123 408t332 142q190 0 295.5 -119.5t105.5 -342.5q0 -51 -7 -86t-9 -43h-551q2 -184 54.5 -261t168.5 -77q70 0 123.5 29.5t84 65.5t30.5 40l92 -72q0 -8 -42 -59t-123 -96.5t-197 -45.5q-228 0 -354 126t-126 391zM330 1440l217 71l174 -301l-127 -34z M348 586h314v47q0 156 -33 218t-115 62q-57 0 -91 -28.5t-52.5 -99t-22.5 -199.5z" />
<glyph unicode="&#x451;" horiz-adv-x="970" d="M59 494q0 266 123 408t332 142q190 0 295.5 -119.5t105.5 -342.5q0 -51 -7 -86t-9 -43h-551q2 -184 54.5 -261t168.5 -77q70 0 123.5 29.5t84 65.5t30.5 40l92 -72q0 -8 -42 -59t-123 -96.5t-197 -45.5q-228 0 -354 126t-126 391zM201 1335q0 63 41 107q41 35 94 35 t94 -35q41 -47 41 -107q0 -61 -41 -106q-41 -37 -94 -37q-55 0 -94 37q-41 41 -41 106zM348 586h314v47q0 156 -33 218t-115 62q-57 0 -91 -28.5t-52.5 -99t-22.5 -199.5zM582 1335q0 63 41 107q39 35 94 35q53 0 94 -35q41 -47 41 -107q0 -61 -41 -106q-41 -37 -94 -37 q-57 0 -94 37q-41 41 -41 106z" />
<glyph unicode="&#x452;" horiz-adv-x="1101" d="M27 1067v119l98 20v322l272 16v-332h330v-145h-330v-289h11q0 4 29.5 28.5t86 46t135.5 21.5q160 0 245 -93t85 -273v-563q0 -152 -49 -260.5t-130 -164t-173 -55.5q-90 1 -174 56l43 137q41 -23 80 -23q131 0 131 310v506q0 141 -34 197.5t-114 56.5q-49 0 -87 -17.5 t-59.5 -38t-25.5 -28.5v-621h-272v1067h-98z" />
<glyph unicode="&#x453;" horiz-adv-x="761" d="M123 0v1024h616v-150h-344v-874h-272zM301 1184l144 311l221 -63l-248 -267z" />
<glyph unicode="&#x454;" horiz-adv-x="915" d="M59 514q0 158 57.5 278.5t164 187.5t249.5 67q66 0 134.5 -18.5t114.5 -38t59 -25.5l-27 -131q-10 6 -51 24.5t-94.5 34.5t-96.5 16q-76 0 -122 -26.5t-70.5 -97t-28.5 -203.5l383 8v-158h-381q12 -184 71.5 -250.5t164.5 -66.5q70 0 121 29.5t81.5 64.5t30.5 39l76 -78 q0 -10 -39 -58.5t-120 -91.5t-204 -43q-219 0 -346 140.5t-127 396.5z" />
<glyph unicode="&#x455;" horiz-adv-x="854" d="M49 131l76 107q0 -4 32.5 -37t83 -60.5t111.5 -27.5q76 0 117 38.5t41 102.5q0 61 -43 97t-129 75q-80 39 -128 70.5t-83 88t-35 144.5q0 152 104.5 235t258.5 83q66 0 131 -16.5t108 -33t56 -22.5l-37 -137q-10 6 -47 24.5t-89.5 34.5t-95.5 16q-63 0 -98 -30.5 t-35 -81.5q0 -61 46 -99t141 -81q84 -41 135 -75t88 -91.5t37 -143.5q0 -150 -99.5 -242t-285.5 -92q-119 0 -199 34t-121 73t-41 47z" />
<glyph unicode="&#x456;" horiz-adv-x="518" d="M104 1335q0 68 48 115q43 41 108 41q63 0 105 -39q45 -47 45 -117q0 -72 -45 -118q-45 -39 -105 -39q-61 0 -108 41q-47 47 -48 116zM123 0v1024h272v-1024h-272z" />
<glyph unicode="&#x457;" horiz-adv-x="518" d="M-65 1335q0 63 41 107q41 35 94 35t94 -35q41 -47 41 -107q0 -61 -41 -106q-41 -37 -94 -37q-55 0 -94 37q-41 41 -41 106zM123 0v1024h272v-1024h-272zM316 1335q0 63 41 107q39 35 94 35q53 0 94 -35q41 -47 41 -107q0 -61 -41 -106q-41 -37 -94 -37q-57 0 -94 37 q-41 41 -41 106z" />
<glyph unicode="&#x458;" horiz-adv-x="573" d="M-102 -473l45 123q4 -2 19 -12.5t40 -18.5t49 -8q66 0 95.5 72.5t29.5 257.5v1083h273v-1083q0 -248 -97.5 -362t-263.5 -114q-59 0 -101 13.5t-65.5 30t-23.5 18.5zM160 1335q0 68 47 115q43 41 108 41q63 0 105 -39q45 -47 45 -117q0 -72 -45 -118q-45 -39 -105 -39 q-61 0 -108 41q-47 47 -47 116z" />
<glyph unicode="&#x459;" horiz-adv-x="1505" d="M18 -16l11 163q8 -2 24 -2q127 0 181.5 226.5t54.5 652.5h610v-352h96q453 0 453 -324q0 -178 -111.5 -263t-341.5 -85h-368v874h-185q-10 -410 -100 -653.5t-270 -243.5q-25 1 -54 7zM899 123h84q86 0 130 48t44 177q0 117 -47 160t-127 43h-84v-428z" />
<glyph unicode="&#x45a;" horiz-adv-x="1589" d="M123 0v1024h272v-428h316v428h274v-352h94q453 0 453 -324q0 -178 -111.5 -263t-341.5 -85h-368v457h-316v-457h-272zM985 123h82q86 0 130 48t44 177q0 117 -47 160t-127 43h-82v-428z" />
<glyph unicode="&#x45b;" horiz-adv-x="1097" d="M27 1067v119l98 20v322l272 16v-332h330v-145h-330v-289h11q0 4 29.5 28.5t86 46t135.5 21.5q160 0 245 -93t85 -273v-508h-272v451q0 141 -34 197.5t-116 56.5q-49 0 -86 -18.5t-60.5 -41t-23.5 -24.5v-621h-272v1067h-98z" />
<glyph unicode="&#x45c;" horiz-adv-x="1009" d="M123 0v1024h272v-428l129 68l228 360h157l-241 -383l319 -641h-309l-217 485l-66 -28v-457h-272zM344 1184l144 311l221 -63l-248 -267z" />
<glyph unicode="&#x45d;" horiz-adv-x="1130" d="M123 0v1024h272v-674l375 674h238v-1024h-273v715l-399 -715h-213zM383 1440l217 71l174 -301l-127 -34z" />
<glyph unicode="&#x45e;" horiz-adv-x="985" d="M14 1024h330l250 -729l211 729h170l-354 -1047q-63 -174 -120 -282.5t-128.5 -169t-167.5 -60.5q-47 0 -83 7.5t-54.5 14.5t-22.5 9l23 160q8 -4 40.5 -13.5t65.5 -9.5q92 0 149.5 73t127.5 253zM231 1405l213 18v-24q-2 -4 -5 -15.5t-3 -25.5q0 -33 26.5 -56.5 t92.5 -23.5q68 0 94.5 23.5t26.5 56.5q0 14 -3 25.5t-5 15.5v24l213 -18q0 -70 -56.5 -161t-269.5 -91t-268.5 91t-55.5 161z" />
<glyph unicode="&#x45f;" horiz-adv-x="1146" d="M123 0v1024h272v-874h357v874h272v-1024h-348l-25 -303h-151l-37 303h-340z" />
<glyph unicode="&#x462;" horiz-adv-x="1265" d="M29 1034v156h262v141h284v-141h353v-156h-353v-215h107q512 0 512 -391q0 -205 -125 -316.5t-379 -111.5h-399v1034h-262zM575 133h111q119 0 167 65.5t48 221.5q0 154 -49 211t-168 57h-109v-555z" />
<glyph unicode="&#x463;" horiz-adv-x="1140" d="M20 1024h246v197l273 16v-213h276v-133h-276v-219h92q217 0 335.5 -78t118.5 -246q0 -178 -111.5 -263t-342.5 -85h-365v874h-237zM539 123h82q86 0 130 48t44 177q0 117 -47.5 160t-126.5 43h-82v-428z" />
<glyph unicode="&#x46a;" horiz-adv-x="1558" d="M43 0v156q0 369 137 518t363 153l-320 504h1098l-324 -504h4q233 0 374 -148.5t141 -522.5v-156h-250v160q0 209 -40 322.5t-113 157.5t-191 48v-688h-285v688q-119 -4 -191.5 -48t-112.5 -157.5t-40 -322.5v-160h-250zM618 1188l211 -369l230 369h-441z" />
<glyph unicode="&#x46b;" horiz-adv-x="1345" d="M72 0q0 246 49 386t134 195.5t208 57.5l-258 385h909l-248 -385h4q125 0 213 -54.5t139.5 -194.5t51.5 -390h-232q0 219 -23.5 330.5t-72.5 152.5t-137 41v-524h-272v524q-88 0 -137.5 -41t-73 -152.5t-23.5 -330.5h-231zM532 913l181 -305l192 305h-373z" />
<glyph unicode="&#x472;" horiz-adv-x="1357" d="M74 664q0 319 156.5 503.5t445.5 184.5q291 0 449.5 -185.5t158.5 -502.5t-158.5 -502t-449.5 -185q-289 0 -445.5 183.5t-156.5 503.5zM385 602q8 -252 75.5 -365.5t215.5 -113.5q147 0 217 113.5t78 365.5h-586zM385 729h586q-8 246 -79 360.5t-216 114.5 q-144 0 -213.5 -114.5t-77.5 -360.5z" />
<glyph unicode="&#x473;" horiz-adv-x="1075" d="M59 512q0 256 124 395.5t354 139.5q231 0 355 -139.5t124 -395.5q0 -254 -128 -394.5t-351 -140.5q-229 0 -353.5 139.5t-124.5 395.5zM352 449q6 -184 48 -260t137 -76q94 0 136 75.5t48 260.5h-369zM352 575h369q-6 184 -48 259t-136 75q-95 0 -137 -74.5t-48 -259.5z " />
<glyph unicode="&#x474;" horiz-adv-x="1230" d="M18 1331h299l316 -1061h8l207 764q86 317 317 318q43 -1 86 -17l-10 -192q-25 8 -51 8q-156 0 -236 -307l-223 -844h-313z" />
<glyph unicode="&#x475;" horiz-adv-x="1001" d="M10 1024h330l197 -729h4l137 504q37 131 94 188t146 57q42 0 83 -14v-147q-25 6 -45 6q-59 0 -96 -46t-63 -136l-203 -707h-225z" />
<glyph unicode="&#x48a;" horiz-adv-x="1449" d="M158 0v1331h282v-882l-14 -134h4l516 971l19 45h262v-1184h176v-45l-201 -460h-151l65 358h-172v860l12 148h-2l-514 -963l-16 -45h-266z" />
<glyph unicode="&#x48b;" horiz-adv-x="1187" d="M123 0v1024h272v-674l375 674h238v-874h145v-39l-174 -414h-139l55 303h-160v715l-399 -715h-213z" />
<glyph unicode="&#x48c;" horiz-adv-x="1218" d="M29 1010v147h215v174h282v-174h226v-147h-226v-189h97q252 0 387 -98t135 -295q0 -205 -130 -316.5t-384 -111.5h-387v1010h-215zM526 133h99q121 0 174 66.5t53 220.5q0 152 -55.5 212t-173.5 60h-97v-559z" />
<glyph unicode="&#x48d;" horiz-adv-x="1077" d="M20 874v115l181 17v522l272 16v-520h217v-150h-217v-202h96q453 0 453 -324q0 -178 -111.5 -263t-341.5 -85h-368v874h-181zM473 123h84q86 0 130 48t44 177q0 117 -47 160t-127 43h-84v-428z" />
<glyph unicode="&#x48e;" horiz-adv-x="1091" d="M158 0v1331h407q227 0 353 -113.5t126 -336.5q0 -152 -63 -253.5t-168 -156.5l94 -162l-121 -67l-106 184q-61 -10 -109 -10h-131v-416h-282zM440 547h99q41 0 67 8l-102 178l119 70l86 -150q31 74 30 215q0 182 -49 256t-151 74h-99v-651z" />
<glyph unicode="&#x48f;" horiz-adv-x="1116" d="M123 -520v1544h219l37 -92h6q0 4 35 33.5t96.5 55.5t147.5 26q182 0 286.5 -139.5t104.5 -375.5q0 -193 -64.5 -328.5t-181.5 -191.5l80 -141l-119 -70l-100 176h-21q-80 0 -135 17.5t-84 37t-29 23.5h-6v-567zM395 201q4 -6 20.5 -21.5t50.5 -31t81 -15.5q23 0 33 2 l-103 182l119 70l104 -184q61 90 62 323q0 141 -21.5 220t-63.5 110t-110 31q-49 0 -87 -18.5t-59.5 -39t-25.5 -30.5v-598z" />
<glyph unicode="&#x490;" horiz-adv-x="860" d="M158 0v1331h491l58 205h137l16 -360h-420v-1176h-282z" />
<glyph unicode="&#x491;" horiz-adv-x="718" d="M123 0v1024h383l53 279h137l15 -429h-316v-874h-272z" />
<glyph unicode="&#x492;" horiz-adv-x="897" d="M68 602v127h90v602h741v-147h-459v-455h181v-127h-181v-602h-282v602h-90z" />
<glyph unicode="&#x493;" horiz-adv-x="761" d="M12 449v126h111v449h616v-150h-344v-299h170v-126h-170v-449h-272v449h-111z" />
<glyph unicode="&#x494;" horiz-adv-x="1204" d="M158 0v1331h741v-147h-459v-367q158 82 275 82q133 0 220 -48t135 -179t48 -373q0 -393 -118.5 -566t-301.5 -173q-66 0 -106.5 8t-87.5 33l49 127q39 -23 100 -23q49 0 82 46t52.5 176t19.5 372q0 172 -19.5 265t-60.5 130t-109 37q-90 0 -178 -61v-670h-282z" />
<glyph unicode="&#x495;" horiz-adv-x="1064" d="M123 0v1024h616v-150h-344v-288q37 27 101.5 50t154.5 23q113 0 184.5 -45t109.5 -163.5t38 -333.5q0 -231 -50 -378t-130 -210.5t-176 -63.5q-111 0 -176 52l43 114q33 -20 86 -20q43 0 70.5 38t44 147.5t16.5 320.5q0 154 -16.5 234.5t-51.5 109t-94 28.5 q-80 0 -154 -55v-434h-272z" />
<glyph unicode="&#x496;" horiz-adv-x="1843" d="M43 0l383 778l-324 553h203l273 -504h182v504h282v-504h160l320 504h202l-360 -508l350 -676h129l-57 -505h-154l-47 358h-125l-315 680h-103v-680h-282v678h-117l-268 -678h-332z" />
<glyph unicode="&#x497;" horiz-adv-x="1511" d="M25 0l294 580l-247 444h186l197 -391l145 -4v395h272v-393l144 4l217 389h178l-258 -451l217 -423h121l-31 -453h-143l-35 303h-129l-217 492l-64 -3v-489h-272v492l-61 4l-222 -496h-292z" />
<glyph unicode="&#x498;" horiz-adv-x="1046" d="M25 190l86 107q0 -6 39.5 -50t112.5 -81t171 -37q223 0 223 250q0 131 -44 182t-134 51l-196 -16v158l215 -19q55 2 95 63.5t40 188.5q0 121 -45 171t-150 50q-57 0 -120.5 -19.5t-108.5 -41t-57 -27.5l-27 140q0 2 59.5 26.5t141.5 45t168 20.5q211 0 325.5 -94.5 t114.5 -256.5q0 -115 -60.5 -191.5t-152.5 -123.5q254 -61 254 -311q0 -148 -100.5 -251.5t-268.5 -133.5l-51 -348h-154l-45 344q-117 16 -190.5 61t-107 90t-33.5 53z" />
<glyph unicode="&#x499;" horiz-adv-x="894" d="M16 139l76 99q0 -6 31 -38t88 -59.5t139 -27.5q94 0 147.5 50t53.5 146q0 80 -43 117t-115 37l-172 -10v139l185 -8h12q41 6 74.5 45t33.5 121q0 86 -41 123.5t-129 37.5q-47 0 -100 -17t-92 -35.5t-49 -24.5l-25 133q12 6 59.5 25.5t116 37t131.5 17.5q205 0 303.5 -73 t98.5 -204q0 -160 -166 -231q90 -25 145.5 -83.5t55.5 -160.5q0 -129 -81 -207t-231 -100l-28 -291h-144l-33 285q-111 8 -177 43.5t-95 70.5t-29 43z" />
<glyph unicode="&#x49a;" horiz-adv-x="1267" d="M158 0v1331h282v-616l121 88l391 528h197l-404 -520l408 -664h115l-58 -505h-153l-47 358h-125l-357 598l-88 -61v-537h-282z" />
<glyph unicode="&#x49b;" horiz-adv-x="1036" d="M123 0v1024h272v-428l129 68l228 360h157l-241 -383l245 -491h103l-31 -453h-143l-35 303h-129l-217 485l-66 -28v-457h-272z" />
<glyph unicode="&#x49c;" horiz-adv-x="1343" d="M158 0v1331h282v-661l60 43v256h86v-193l37 27l391 528h196l-403 -520l498 -811h-359l-356 598l-4 -2v-180h-86v119l-60 -41v-494h-282z" />
<glyph unicode="&#x49d;" horiz-adv-x="1091" d="M123 0v1024h272v-471l56 29v184h86v-139l69 37l228 360h157l-241 -383l319 -641h-309l-217 485l-6 -2v-147h-86v108l-56 -22v-422h-272z" />
<glyph unicode="&#x49e;" horiz-adv-x="1288" d="M-57 1010v147h215v174h282v-174h209v-147h-209v-295l142 88l391 528h196l-403 -520l498 -811h-359l-356 598l-109 -61v-537h-282v1010h-215z" />
<glyph unicode="&#x49f;" horiz-adv-x="1138" d="M20 784v113l181 16v111h272v-92h197v-148h-197v-200l180 67l228 373h157l-241 -395l319 -629h-309l-217 473l-117 -29v-444h-272v784h-181z" />
<glyph unicode="&#x4a0;" horiz-adv-x="1511" d="M29 1184v147h641v-616l121 88l391 528h196l-403 -520l498 -811h-359l-356 598l-88 -61v-537h-283v1184h-358z" />
<glyph unicode="&#x4a1;" horiz-adv-x="1204" d="M20 1024h570v-428l129 68l227 360h158l-242 -383l320 -641h-310l-217 485l-65 -28v-457h-273v874h-294z" />
<glyph unicode="&#x4a2;" horiz-adv-x="1396" d="M158 0v1331h282v-581h461v581h283v-1184h166l-58 -505h-153l-47 358h-191v606h-461v-606h-282z" />
<glyph unicode="&#x4a3;" horiz-adv-x="1155" d="M123 0v1024h272v-428h318v428h272v-874h135l-30 -453h-144l-35 303h-198v457h-318v-457h-272z" />
<glyph unicode="&#x4a4;" horiz-adv-x="1640" d="M158 0v1331h282v-581h461v581h741v-147h-458v-1184h-283v606h-461v-606h-282z" />
<glyph unicode="&#x4a5;" horiz-adv-x="1351" d="M123 0v1024h272v-428h318v428h616v-150h-344v-874h-272v457h-318v-457h-272z" />
<glyph unicode="&#x4a6;" horiz-adv-x="1916" d="M158 0v1331h995v-514q158 82 274 82q133 0 220.5 -48t135.5 -179t48 -373q0 -393 -119 -566t-301 -173q-65 0 -106 8t-88 33l49 127q39 -23 100 -23q49 0 82 46t52.5 176t19.5 372q0 172 -19.5 265t-60.5 130t-109 37q-90 0 -178 -61v-670h-283v1184h-430v-1184h-282z " />
<glyph unicode="&#x4a7;" horiz-adv-x="1640" d="M123 0v1024h848v-438q37 27 101.5 50t154.5 23q113 0 184.5 -45t109.5 -163.5t38 -333.5q0 -231 -50.5 -378t-130.5 -210.5t-176 -63.5q-110 1 -176 52l43 114q33 -20 86 -20q43 0 70.5 38t44 147.5t16.5 320.5q0 154 -16.5 234.5t-51 109t-94.5 28.5q-80 0 -153 -55 v-434h-273v874h-303v-874h-272z" />
<glyph unicode="&#x4a8;" horiz-adv-x="1529" d="M74 651q0 334 147.5 509t401.5 192v-154q-123 -23 -180.5 -151.5t-57.5 -395.5q0 -289 80 -408.5t221 -119.5q57 0 92 10q-190 219 -190 502q0 276 117.5 402t295.5 126q195 0 308.5 -118.5t113.5 -389.5q0 -160 -70.5 -301t-193.5 -209q57 -10 96 -10t73 9.5t83 33.5 l45 -115q-55 -40 -133 -63t-166 -23q-135 0 -237 48q-45 -25 -113 -36.5t-129 -11.5q-291 0 -447.5 182.5t-156.5 491.5zM879 635q0 -133 33.5 -254t86.5 -156q57 57 88 176t31 232q0 211 -25.5 298t-91.5 87q-68 0 -95 -96.5t-27 -286.5z" />
<glyph unicode="&#x4a9;" horiz-adv-x="1409" d="M59 504q0 266 127 400t367 145v-136q-111 -12 -156 -105t-45 -304q0 -156 29 -241t82 -116.5t139 -31.5q37 0 76 12q-152 147 -152 365q0 133 51.5 225t138.5 138t191 46q393 0 393 -393q0 -123 -64.5 -226.5t-178.5 -156.5q29 -6 53 -6q96 0 193 39l45 -111 q-152 -67 -287 -67q-154 0 -246 45q-43 -20 -104.5 -32.5t-108.5 -12.5q-274 0 -408.5 139t-134.5 385zM803 492q0 -99 31.5 -187t74.5 -110q53 43 77 123.5t24 170.5q0 145 -20.5 211t-80.5 66q-61 0 -83.5 -71.5t-22.5 -202.5z" />
<glyph unicode="&#x4aa;" horiz-adv-x="1179" d="M74 655q0 209 71.5 367t209 244t325.5 86q94 0 185 -23.5t158 -51.5t67 -30l-29 -149q-14 8 -69.5 31.5t-132.5 46t-144 22.5q-115 0 -186.5 -51t-107.5 -168t-36 -313q0 -289 84 -412t260 -123q98 0 173 42t121 92t46 57l90 -99q0 -8 -42 -59t-119.5 -103.5 t-192.5 -72.5l-51 -346h-154l-45 346q-236 39 -358.5 215t-122.5 452z" />
<glyph unicode="&#x4ab;" horiz-adv-x="913" d="M59 506q0 250 131.5 395.5t362.5 145.5q63 0 130 -17.5t112 -37t57 -25.5l-27 -131q-10 6 -51 23.5t-94 33.5t-96 16q-78 0 -127 -32.5t-76 -119.5t-27 -247q0 -227 57.5 -311t163.5 -84q72 0 124.5 31.5t81 67.5t28.5 42l96 -61q0 -9 -27.5 -54t-87 -91t-151.5 -64 l-29 -289h-143l-33 289q-182 31 -278.5 163t-96.5 357z" />
<glyph unicode="&#x4ac;" horiz-adv-x="1056" d="M29 1184v147h999v-147h-356v-1037h166l-58 -505h-153l-47 358h-193v1184h-358z" />
<glyph unicode="&#x4ad;" horiz-adv-x="905" d="M20 1024h863v-150h-295v-724h135l-31 -453h-143l-35 303h-197v874h-294z" />
<glyph unicode="&#x4ae;" horiz-adv-x="1071" d="M-14 1331h317l293 -604h4l287 604h196l-399 -786v-545h-285v514z" />
<glyph unicode="&#x4af;" horiz-adv-x="966" d="M10 1024h330l201 -788h8l229 788h178l-335 -1008v-528l-273 -8v520z" />
<glyph unicode="&#x4b0;" horiz-adv-x="1071" d="M-14 1331h317l293 -604h4l287 604h196l-385 -758h117v-127h-131v-446h-285v446h-137v127h107z" />
<glyph unicode="&#x4b1;" horiz-adv-x="966" d="M10 1024h330l201 -788h8l229 788h178l-319 -961h123v-126h-139v-449l-273 -8v457h-141v126h121z" />
<glyph unicode="&#x4b2;" horiz-adv-x="1296" d="M16 0l414 647l-395 684h354l246 -477h6l285 477h200l-389 -614l346 -570h166l-57 -505h-154l-47 358h-170l-284 508h-7l-301 -508h-213z" />
<glyph unicode="&#x4b3;" horiz-adv-x="1032" d="M18 0l316 496l-299 528h325l170 -362l193 362h186l-284 -465l237 -409h135l-30 -453h-144l-35 303h-163l-193 383l-223 -383h-191z" />
<glyph unicode="&#x4b4;" horiz-adv-x="1626" d="M29 1184v147h946v-147h-316v-1037h471v1184h283v-1184h166l-57 -505h-154l-47 358h-944v1184h-348z" />
<glyph unicode="&#x4b5;" horiz-adv-x="1386" d="M20 1024h791v-150h-231v-724h364v874h273v-874h135l-31 -453h-143l-35 303h-836v874h-284z" />
<glyph unicode="&#x4b6;" horiz-adv-x="1253" d="M104 858v473h285v-438q0 -106 17.5 -164.5t53.5 -81t97 -22.5q66 0 118 17t83 34v655h284v-1184h164l-57 -505h-154l-47 358h-190v545l-28 -21q-28 -20 -105.5 -41.5t-171.5 -21.5q-182 0 -265.5 107.5t-83.5 289.5z" />
<glyph unicode="&#x4b7;" horiz-adv-x="1058" d="M76 659v365h272v-373q0 -84 27.5 -120.5t89.5 -36.5q39 0 72.5 8t54 17t24.5 11v494h273v-874h135l-31 -453h-143l-35 303h-199v422h-2q0 -2 -30.5 -15.5t-86 -25.5t-132.5 -12q-289 0 -289 290z" />
<glyph unicode="&#x4b8;" horiz-adv-x="1200" d="M104 858v473h285v-438q0 -145 34 -203.5t112 -64.5v213h86v-209q78 14 137 47v655h284v-1331h-284v545q-2 0 -31 -21.5t-106 -42.5v-196h-86v180q-49 -4 -82 -4q-182 0 -265.5 107.5t-83.5 289.5z" />
<glyph unicode="&#x4b9;" horiz-adv-x="1013" d="M76 659v365h272v-373q0 -78 23.5 -114.5t74.5 -42.5v165h86v-159q33 8 55.5 17t28.5 13v494h273v-1024h-273v422h-2q-4 -4 -24.5 -14.5t-57.5 -18.5v-160h-86v144q-49 -4 -81 -4q-289 0 -289 290z" />
<glyph unicode="&#x4ba;" horiz-adv-x="1200" d="M158 0v1331h284v-545l28 20q28 21 105.5 42.5t172.5 21.5q182 0 265 -107.5t83 -289.5v-473h-285v438q0 106 -17.5 165t-53 81.5t-97.5 22.5q-66 0 -118 -17.5t-83 -34.5v-655h-284z" />
<glyph unicode="&#x4bb;" horiz-adv-x="1099" d="M123 0v1528l272 16v-590h8q0 4 34 27t93.5 43t139.5 20q160 0 237.5 -85t77.5 -265v-694h-270v672q0 119 -31 160.5t-109 41.5q-51 0 -91 -16t-64.5 -35.5t-24.5 -21.5v-801h-272z" />
<glyph unicode="&#x4bc;" horiz-adv-x="1607" d="M0 954l238 47q4 -81 15 -129.5t43 -82t97 -44.5q27 276 182.5 441.5t407.5 165.5q172 0 296 -79t189.5 -224.5t65.5 -343.5q0 -84 -2 -103h-830q8 -254 99.5 -362.5t257.5 -108.5q96 0 174 42t127 92t49 57l88 -99q0 -10 -57.5 -73.5t-164 -118t-257.5 -54.5 q-287 0 -453 167t-176 462q-195 12 -288 94t-101 254zM705 745h536q0 248 -79 353.5t-193 105.5q-115 0 -189.5 -105.5t-74.5 -353.5z" />
<glyph unicode="&#x4bd;" horiz-adv-x="1218" d="M0 756l209 39q8 -96 26.5 -143.5t75.5 -61.5q23 221 142.5 337.5t308.5 116.5q190 0 295.5 -119.5t105.5 -342.5q0 -86 -16 -129h-551q2 -184 54 -261t169 -77q70 0 123 29.5t84 65.5t31 40l92 -72q0 -8 -42 -59t-123 -96.5t-198 -45.5q-217 0 -344 118t-135 362 q-150 14 -225.5 82.5t-81.5 216.5zM596 586h313v47q0 156 -32.5 218t-114.5 62q-57 0 -91 -28.5t-52.5 -99t-22.5 -199.5z" />
<glyph unicode="&#x4be;" horiz-adv-x="1607" d="M0 954l238 47q4 -82 15 -130t43 -81.5t97 -44.5q27 276 182.5 441.5t407.5 165.5q172 0 296 -79t189.5 -224.5t65.5 -343.5q0 -84 -2 -103h-830q8 -254 99.5 -362.5t257.5 -108.5q96 0 174 42t127 92t49 57l88 -99q0 -8 -46 -61t-131 -106.5t-206 -69.5l-39 -404h-157 l-50 410q-221 41 -346 200.5t-133 413.5q-195 12 -288 94t-101 254zM705 745h536q0 248 -79 353.5t-193 105.5q-115 0 -189.5 -105.5t-74.5 -353.5z" />
<glyph unicode="&#x4bf;" horiz-adv-x="1218" d="M0 756l209 39q8 -96 26.5 -143.5t75.5 -61.5q23 221 142.5 337.5t308.5 116.5q190 0 295.5 -119.5t105.5 -342.5q0 -51 -7 -86t-9 -43h-551q2 -184 54 -261t169 -77q70 0 123 29.5t84 65.5t31 40l92 -72q0 -6 -32 -47t-91 -84t-145 -59l-23 -291h-151l-35 291 q-168 27 -262.5 142.5t-102.5 326.5q-150 14 -225.5 82.5t-81.5 216.5zM596 586h313v47q0 156 -32.5 218t-114.5 62q-57 0 -91 -28.5t-52.5 -99t-22.5 -199.5z" />
<glyph unicode="&#x4c0;" horiz-adv-x="600" d="M158 0v1331h282v-1331h-282z" />
<glyph unicode="&#x4c1;" horiz-adv-x="1832" d="M43 0l383 778l-324 553h203l273 -504h182v504h282v-504h160l320 504h202l-360 -508l426 -823h-330l-315 680h-103v-680h-282v678h-117l-268 -678h-332zM569 1681l213 19v-25q-2 -4 -5 -15t-3 -26q0 -33 26.5 -56.5t92.5 -23.5q68 0 94.5 24t26.5 56q0 14 -3 25.5t-5 15.5 v25l213 -19q0 -70 -56.5 -160.5t-269.5 -90.5t-268.5 91t-55.5 160z" />
<glyph unicode="&#x4c2;" horiz-adv-x="1472" d="M25 0l294 580l-247 444h186l197 -391l145 -4v395h272v-393l144 4l217 389h178l-258 -451l295 -573h-295l-217 492l-64 -3v-489h-272v492l-61 4l-222 -496h-292zM411 1405l213 18v-24q-2 -4 -5 -15.5t-3 -25.5q0 -33 26.5 -56.5t92.5 -23.5q68 0 94.5 23.5t26.5 56.5 q0 14 -3 25.5t-5 15.5v24l213 -18q0 -70 -56.5 -161t-269.5 -91t-268.5 91t-55.5 161z" />
<glyph unicode="&#x4c3;" horiz-adv-x="1232" d="M158 0v1331h282v-637l121 88l391 549h197l-404 -540q264 -360 350.5 -544t86.5 -288t-45 -202.5t-183 -196.5l-94 84q80 49 80 155q0 94 -96 290t-316 489l-88 -62v-516h-282z" />
<glyph unicode="&#x4c4;" horiz-adv-x="1009" d="M123 0v1024h272v-449l129 68l228 381h157l-241 -403q158 -233 225.5 -378t67.5 -259q0 -94 -46.5 -187.5t-175.5 -185.5l-73 78q2 2 39.5 25.5t37.5 101.5q0 170 -282 649l-66 -29v-436h-272z" />
<glyph unicode="&#x4c5;" horiz-adv-x="1351" d="M49 -4l10 180q6 -2 24.5 -6t37.5 -4q143 0 211.5 273.5t68.5 891.5h727v-1184h177v-45l-201 -460h-152l66 358h-172v1184h-283q-2 -604 -106.5 -904t-296.5 -300q-49 0 -80 7t-31 9z" />
<glyph unicode="&#x4c6;" horiz-adv-x="1079" d="M18 -16l11 163q8 -2 24 -2q127 0 181.5 226.5t54.5 652.5h610v-874h145v-39l-174 -414h-139l55 303h-159v874h-185q-10 -410 -100 -653.5t-270 -243.5q-25 0 -54 7z" />
<glyph unicode="&#x4c7;" horiz-adv-x="1341" d="M158 0v1331h282v-581h461v581h283v-1311q0 -254 -91.5 -357t-281.5 -103q-92 0 -150.5 18.5t-86 40t-27.5 25.5l61 118q4 -4 20.5 -18t48.5 -26.5t73 -12.5q78 0 114.5 66.5t36.5 248.5v586h-461v-606h-282z" />
<glyph unicode="&#x4c8;" horiz-adv-x="1107" d="M123 0v1024h272v-428h318v428h272v-1083q0 -248 -97 -362t-263 -114q-60 0 -102 13.5t-65.5 30t-23.5 18.5l45 123q4 -2 19.5 -12.5t40 -18.5t49.5 -8q66 0 95.5 72.5t29.5 257.5v516h-318v-457h-272z" />
<glyph unicode="&#x4c9;" horiz-adv-x="1406" d="M158 0v1331h282v-581h461v581h283v-1184h176v-45l-201 -460h-151l65 358h-172v606h-461v-606h-282z" />
<glyph unicode="&#x4ca;" horiz-adv-x="1155" d="M123 0v1024h272v-428h318v428h272v-874h135l-30 -453h-144l-35 303h-198v457h-318v-457h-272z" />
<glyph unicode="&#x4cb;" horiz-adv-x="1200" d="M104 858v473h285v-438q0 -106 17.5 -164.5t53.5 -81t97 -22.5q66 0 118 17t83 34v655h284v-1184h164l-57 -505h-154l-47 358h-190v545l-28 -21q-28 -20 -105.5 -41.5t-171.5 -21.5q-182 0 -265.5 107.5t-83.5 289.5z" />
<glyph unicode="&#x4cc;" horiz-adv-x="1013" d="M76 659v365h272v-373q0 -84 27.5 -120.5t89.5 -36.5q39 0 72.5 8t54 17t24.5 11v494h273v-874h135l-31 -453h-143l-35 303h-199v422h-2q0 -2 -30.5 -15.5t-86 -25.5t-132.5 -12q-289 0 -289 290z" />
<glyph unicode="&#x4cd;" horiz-adv-x="1816" d="M158 0l16 1331h342l373 -981h8l367 981h317l12 -1184h176v-45l-200 -460h-152l66 358h-164l-14 1008h-7l-370 -1008h-211l-371 1008h-6l-6 -1008h-176z" />
<glyph unicode="&#x4ce;" horiz-adv-x="1452" d="M113 0l55 1024h328l198 -733h2l232 733h321l23 -874h145v-39l-174 -414h-139l55 303h-137l-18 672v110h-7l-260 -782h-186l-248 782h-4l-2 -57l-33 -725h-151z" />
<glyph unicode="&#x4cf;" horiz-adv-x="520" d="M123 0v1528l272 16v-1544h-272z" />
<glyph unicode="&#x4d0;" horiz-adv-x="1245" d="M39 0l442 1331h314l413 -1331h-299l-114 373h-463l-121 -373h-172zM297 1681l213 19v-25q-2 -4 -5 -15t-3 -26q0 -33 26.5 -56.5t92.5 -23.5q68 0 94.5 24t26.5 56q0 14 -3 25.5t-5 15.5v25l213 -19q0 -70 -56.5 -160.5t-269.5 -90.5t-268.5 91t-55.5 160zM373 502h383 l-183 626h-4z" />
<glyph unicode="&#x4d1;" horiz-adv-x="1050" d="M55 246q0 180 169 261t394 99v60q0 139 -38.5 191t-130.5 52q-43 0 -97.5 -16t-94.5 -34.5t-52 -24.5l-27 131q12 6 58.5 25.5t117 38t142.5 18.5q193 0 294 -81t101 -278v-465q0 -109 43 -108q16 0 38.5 6t31.5 8l8 -106q-10 -4 -49 -14.5t-89.5 -21t-89.5 -10.5 q-59 0 -92 30t-43 97h-10q0 -6 -27.5 -37.5t-87 -60.5t-153.5 -29q-144 0 -230 72t-86 197zM200 1405l213 18v-24q-2 -4 -5 -15.5t-3 -25.5q0 -33 26.5 -56.5t92.5 -23.5q68 0 94.5 23.5t26.5 56.5q0 14 -3 25.5t-5 15.5v24l213 -18q0 -70 -56.5 -161t-269.5 -91t-268.5 91 t-55.5 161zM340 281q0 -82 33 -124t88 -42q49 0 85 24.5t54 54t18 33.5v271q-137 -14 -207.5 -64.5t-70.5 -152.5z" />
<glyph unicode="&#x4d2;" horiz-adv-x="1245" d="M39 0l442 1331h314l413 -1331h-299l-114 373h-463l-121 -373h-172zM297 1642q0 63 41 107q41 35 94 35t94 -35q41 -47 41 -107q0 -61 -41 -106q-41 -37 -94 -37q-55 0 -94 37q-41 41 -41 106zM373 502h383l-183 626h-4zM678 1642q0 63 41 107q39 35 94 35q53 0 94 -35 q41 -47 41 -107q0 -61 -41 -106q-41 -37 -94 -37q-57 0 -94 37q-41 41 -41 106z" />
<glyph unicode="&#x4d3;" horiz-adv-x="1050" d="M55 246q0 180 169 261t394 99v60q0 139 -38.5 191t-130.5 52q-43 0 -97.5 -16t-94.5 -34.5t-52 -24.5l-27 131q12 6 58.5 25.5t117 38t142.5 18.5q193 0 294 -81t101 -278v-465q0 -109 43 -108q16 0 38.5 6t31.5 8l8 -106q-10 -4 -49 -14.5t-89.5 -21t-89.5 -10.5 q-59 0 -92 30t-43 97h-10q0 -6 -27.5 -37.5t-87 -60.5t-153.5 -29q-144 0 -230 72t-86 197zM201 1335q0 63 41 107q41 35 94 35t94 -35q41 -47 41 -107q0 -61 -41 -106q-41 -37 -94 -37q-55 0 -94 37q-41 41 -41 106zM340 281q0 -82 33 -124t88 -42q49 0 85 24.5t54 54 t18 33.5v271q-137 -14 -207.5 -64.5t-70.5 -152.5zM582 1335q0 63 41 107q39 35 94 35q53 0 94 -35q41 -47 41 -107q0 -61 -41 -106q-41 -37 -94 -37q-57 0 -94 37q-41 41 -41 106z" />
<glyph unicode="&#x4d4;" horiz-adv-x="1683" d="M-29 0l742 1331h872v-147h-514v-439h455v-143h-455v-455h543v-147h-826v385h-430l-208 -385h-179zM428 516h360v668h-14z" />
<glyph unicode="&#x4d5;" horiz-adv-x="1531" d="M57 254q0 182 168 263t393 99v39q0 104 -15 158.5t-49 75t-95 20.5q-43 0 -97.5 -16t-94.5 -34.5t-52 -24.5l-27 131q12 6 58.5 25.5t117 38t142.5 18.5q100 0 164.5 -27t101.5 -84q119 109 299 108q190 0 296 -119.5t106 -342.5q0 -51 -7.5 -86t-9.5 -43h-551 q2 -184 54.5 -261t168.5 -77q70 0 123.5 29.5t84 65.5t30.5 40l92 -72q0 -8 -42 -59t-123 -96.5t-197 -45.5q-293 0 -408 197q-35 -84 -110.5 -140.5t-206.5 -56.5q-142 0 -228 76t-86 201zM340 289q0 -82 33 -128t88 -46q82 0 117.5 75.5t44.5 184.5q-6 55 -7 119v14 q-135 -14 -205.5 -65.5t-70.5 -153.5zM905 586h314v47q0 156 -33 218t-115 62q-57 0 -91 -28.5t-52.5 -99t-22.5 -199.5z" />
<glyph unicode="&#x4d6;" d="M158 0v1331h798v-147h-516v-439h455v-143h-455v-455h545v-147h-827zM252 1681l213 19v-25q-2 -4 -5 -15t-3 -26q0 -33 26.5 -56.5t92.5 -23.5q68 0 94.5 24t26.5 56q0 14 -3 25.5t-5 15.5v25l213 -19q0 -70 -56.5 -160.5t-269.5 -90.5t-268.5 91t-55.5 160z" />
<glyph unicode="&#x4d7;" horiz-adv-x="970" d="M59 494q0 266 123 408t332 142q190 0 295.5 -119.5t105.5 -342.5q0 -51 -7 -86t-9 -43h-551q2 -184 54.5 -261t168.5 -77q70 0 123.5 29.5t84 65.5t30.5 40l92 -72q0 -8 -42 -59t-123 -96.5t-197 -45.5q-228 0 -354 126t-126 391zM200 1405l213 18v-24q-2 -4 -5 -15.5 t-3 -25.5q0 -33 26.5 -56.5t92.5 -23.5q68 0 94.5 23.5t26.5 56.5q0 14 -3 25.5t-5 15.5v24l213 -18q0 -70 -56.5 -161t-269.5 -91t-268.5 91t-55.5 161zM348 586h314v47q0 156 -33 218t-115 62q-57 0 -91 -28.5t-52.5 -99t-22.5 -199.5z" />
<glyph unicode="&#x4d8;" horiz-adv-x="1189" d="M74 571q0 47 5 84t10 57.5t7 24.5h713q-4 170 -34 270.5t-91 146.5t-164 46q-90 0 -158.5 -45t-108.5 -96t-40 -60l-121 93q0 12 54.5 78.5t159 124t255.5 57.5q262 0 408.5 -162t146.5 -506q0 -229 -64.5 -390t-182 -242t-275.5 -81q-248 0 -384 156t-136 444zM342 504 q0 -201 64.5 -292t166.5 -91q111 0 168.5 97t67.5 347h-467v-61z" />
<glyph unicode="&#x4d9;" horiz-adv-x="970" d="M55 442q0 51 7.5 86t9.5 43h551q-2 184 -54.5 261t-169.5 77q-70 0 -123 -29.5t-83.5 -65.5t-30.5 -40l-92 72q0 8 42 59t122.5 96.5t197.5 45.5q227 0 353 -126t126 -391q0 -266 -122.5 -408t-331.5 -142q-190 0 -296 119.5t-106 342.5zM309 391q0 -156 33 -218t115 -62 q57 0 91 28.5t52 99t23 199.5h-314v-47z" />
<glyph unicode="&#x4da;" horiz-adv-x="1189" d="M74 571q0 47 5 84t10 57.5t7 24.5h713q-4 170 -34 270.5t-91 146.5t-164 46q-90 0 -158.5 -45t-108.5 -96t-40 -60l-121 93q0 12 54.5 78.5t159 124t255.5 57.5q262 0 408.5 -162t146.5 -506q0 -229 -64.5 -390t-182 -242t-275.5 -81q-248 0 -384 156t-136 444zM266 1642 q0 63 41 107q41 35 94 35t94 -35q41 -47 41 -107q0 -61 -41 -106q-41 -37 -94 -37q-55 0 -94 37q-41 41 -41 106zM342 504q0 -201 64.5 -292t166.5 -91q111 0 168.5 97t67.5 347h-467v-61zM647 1642q0 63 41 107q39 35 94 35q53 0 94 -35q41 -47 41 -107q0 -61 -41 -106 q-41 -37 -94 -37q-57 0 -94 37q-41 41 -41 106z" />
<glyph unicode="&#x4db;" horiz-adv-x="970" d="M55 442q0 51 7.5 86t9.5 43h551q-2 184 -54.5 261t-169.5 77q-70 0 -123 -29.5t-83.5 -65.5t-30.5 -40l-92 72q0 8 42 59t122.5 96.5t197.5 45.5q227 0 353 -126t126 -391q0 -266 -122.5 -408t-331.5 -142q-190 0 -296 119.5t-106 342.5zM144 1335q0 63 41 107 q41 35 94 35t94 -35q41 -47 41 -107q0 -61 -41 -106q-41 -37 -94 -37q-55 0 -94 37q-41 41 -41 106zM309 391q0 -156 33 -218t115 -62q57 0 91 28.5t52 99t23 199.5h-314v-47zM525 1335q0 63 41 107q39 35 94 35q53 0 94 -35q41 -47 41 -107q0 -61 -41 -106q-41 -37 -94 -37 q-57 0 -94 37q-41 41 -41 106z" />
<glyph unicode="&#x4dc;" horiz-adv-x="1832" d="M43 0l383 778l-324 553h203l273 -504h182v504h282v-504h160l320 504h202l-360 -508l426 -823h-330l-315 680h-103v-680h-282v678h-117l-268 -678h-332zM570 1642q0 63 41 107q41 35 94 35t94 -35q41 -47 41 -107q0 -61 -41 -106q-41 -37 -94 -37q-55 0 -94 37 q-41 41 -41 106zM951 1642q0 63 41 107q39 35 94 35q53 0 94 -35q41 -47 41 -107q0 -61 -41 -106q-41 -37 -94 -37q-57 0 -94 37q-41 41 -41 106z" />
<glyph unicode="&#x4dd;" horiz-adv-x="1472" d="M25 0l294 580l-247 444h186l197 -391l145 -4v395h272v-393l144 4l217 389h178l-258 -451l295 -573h-295l-217 492l-64 -3v-489h-272v492l-61 4l-222 -496h-292zM412 1335q0 63 41 107q41 35 94 35t94 -35q41 -47 41 -107q0 -61 -41 -106q-41 -37 -94 -37q-55 0 -94 37 q-41 41 -41 106zM793 1335q0 63 41 107q39 35 94 35q53 0 94 -35q41 -47 41 -107q0 -61 -41 -106q-41 -37 -94 -37q-57 0 -94 37q-41 41 -41 106z" />
<glyph unicode="&#x4de;" horiz-adv-x="1046" d="M25 190l86 107q0 -6 39.5 -50t112.5 -81t171 -37q223 0 223 250q0 131 -44 182t-134 51l-196 -16v158l215 -19q55 2 95 63.5t40 188.5q0 121 -45 171t-150 50q-57 0 -120.5 -19.5t-108.5 -41t-57 -27.5l-27 140q0 2 59.5 26.5t141.5 45t168 20.5q211 0 325.5 -94.5 t114.5 -256.5q0 -115 -60.5 -191.5t-152.5 -123.5q254 -61 254 -311q0 -117 -63.5 -207t-179.5 -140.5t-263 -50.5q-160 0 -258 47.5t-142 100.5t-44 65zM168 1642q0 63 41 107q41 35 94 35t94 -35q41 -47 41 -107q0 -61 -41 -106q-41 -37 -94 -37q-55 0 -94 37 q-41 41 -41 106zM549 1642q0 63 41 107q39 35 94 35q53 0 94 -35q41 -47 41 -107q0 -61 -41 -106q-41 -37 -94 -37q-57 0 -94 37q-41 41 -41 106z" />
<glyph unicode="&#x4df;" horiz-adv-x="894" d="M16 139l76 99q0 -6 31 -38t88 -59.5t139 -27.5q94 0 147.5 50t53.5 146q0 80 -43 117t-115 37l-172 -10v139l185 -8h12q41 6 74.5 45t33.5 121q0 86 -41 123.5t-129 37.5q-47 0 -100 -17t-92 -35.5t-49 -24.5l-25 133q12 6 59.5 25.5t116 37t131.5 17.5q205 0 303.5 -73 t98.5 -204q0 -160 -166 -231q90 -25 145.5 -83.5t55.5 -160.5q0 -156 -118 -237t-327 -81q-137 0 -220 36t-118 76t-35 50zM82 1335q0 63 41 107q41 35 94 35t94 -35q41 -47 41 -107q0 -61 -41 -106q-41 -37 -94 -37q-55 0 -94 37q-41 41 -41 106zM463 1335q0 63 41 107 q39 35 94 35q53 0 94 -35q41 -47 41 -107q0 -61 -41 -106q-41 -37 -94 -37q-57 0 -94 37q-41 41 -41 106z" />
<glyph unicode="&#x4e0;" d="M51 190l86 107q0 -6 40 -50t112.5 -81t171.5 -37q102 0 162.5 72.5t60.5 208.5q0 135 -46 201.5t-132 66.5l-246 -16v157l143 -6l220 371h-504v147h856v-123l-275 -417q174 -37 237.5 -137.5t63.5 -247.5q0 -119 -64.5 -216.5t-180 -155t-260.5 -57.5q-160 0 -258.5 47.5 t-142.5 100.5t-44 65z" />
<glyph unicode="&#x4e1;" horiz-adv-x="923" d="M-10 -399l71 116q47 -59 120 -84.5t138 -25.5q137 0 191.5 89t54.5 263q0 162 -45 238.5t-149 78.5l-201 -10v140l133 -7l252 486h-489l-7 139h783v-121l-293 -518q137 -23 204.5 -85t86 -145t18.5 -208q0 -133 -58.5 -243t-171 -174.5t-272.5 -64.5q-109 0 -208 34 t-158 102z" />
<glyph unicode="&#x4e2;" horiz-adv-x="1384" d="M158 0v1331h282v-882l-14 -134h4l516 971l19 45h262v-1331h-283v860l12 148h-2l-514 -963l-16 -45h-266zM473 1585v119h438v-119h-438z" />
<glyph unicode="&#x4e3;" horiz-adv-x="1130" d="M123 0v1024h272v-674l375 674h238v-1024h-273v715l-399 -715h-213zM361 1278v119h438v-119h-438z" />
<glyph unicode="&#x4e4;" horiz-adv-x="1384" d="M158 0v1331h282v-882l-14 -134h4l516 971l19 45h262v-1331h-283v860l12 148h-2l-514 -963l-16 -45h-266zM367 1642q0 63 41 107q41 35 94 35t94 -35q41 -47 41 -107q0 -61 -41 -106q-41 -37 -94 -37q-55 0 -94 37q-41 41 -41 106zM748 1642q0 63 41 107q39 35 94 35 q53 0 94 -35q41 -47 41 -107q0 -61 -41 -106q-41 -37 -94 -37q-57 0 -94 37q-41 41 -41 106z" />
<glyph unicode="&#x4e5;" horiz-adv-x="1130" d="M123 0v1024h272v-674l375 674h238v-1024h-273v715l-399 -715h-213zM254 1335q0 63 41 107q41 35 94 35t94 -35q41 -47 41 -107q0 -61 -41 -106q-41 -37 -94 -37q-55 0 -94 37q-41 41 -41 106zM635 1335q0 63 41 107q39 35 94 35q53 0 94 -35q41 -47 41 -107 q0 -61 -41 -106q-41 -37 -94 -37q-57 0 -94 37q-41 41 -41 106z" />
<glyph unicode="&#x4e6;" horiz-adv-x="1357" d="M74 664q0 319 156.5 503.5t445.5 184.5q291 0 449.5 -185.5t158.5 -502.5t-158.5 -502t-449.5 -185q-289 0 -445.5 183.5t-156.5 503.5zM355 1642q0 63 41 107q41 35 94 35t94 -35q41 -47 41 -107q0 -61 -41 -106q-41 -37 -94 -37q-55 0 -94 37q-41 41 -41 106zM385 664 q0 -285 67.5 -413t223.5 -128q158 0 226.5 128t68.5 413q0 283 -70 411.5t-225 128.5q-154 0 -222.5 -129t-68.5 -411zM736 1642q0 63 41 107q39 35 94 35q53 0 94 -35q41 -47 41 -107q0 -61 -41 -106q-41 -37 -94 -37q-57 0 -94 37q-41 41 -41 106z" />
<glyph unicode="&#x4e7;" horiz-adv-x="1075" d="M59 512q0 256 124 395.5t354 139.5q231 0 355 -139.5t124 -395.5q0 -254 -128 -394.5t-351 -140.5q-230 0 -354 139.5t-124 395.5zM213 1335q0 63 41 107q41 35 94 35t94 -35q41 -47 41 -107q0 -61 -41 -106q-41 -37 -94 -37q-55 0 -94 37q-41 41 -41 106zM352 514 q0 -150 18.5 -237t58.5 -125.5t108 -38.5q67 0 107 38.5t58.5 124.5t18.5 236t-18.5 236t-57.5 123.5t-108 37.5q-70 0 -109 -37.5t-57.5 -123.5t-18.5 -234zM594 1335q0 63 41 107q39 35 94 35q53 0 94 -35q41 -47 41 -107q0 -61 -41 -106q-41 -37 -94 -37q-57 0 -94 37 q-41 41 -41 106z" />
<glyph unicode="&#x4e8;" horiz-adv-x="1357" d="M74 664q0 319 156.5 503.5t445.5 184.5q291 0 449.5 -185.5t158.5 -502.5t-158.5 -502t-449.5 -185q-289 0 -445.5 183.5t-156.5 503.5zM385 602q8 -252 75.5 -365.5t215.5 -113.5q147 0 217 113.5t78 365.5h-586zM385 729h586q-8 246 -79 360.5t-216 114.5 q-144 0 -213.5 -114.5t-77.5 -360.5z" />
<glyph unicode="&#x4e9;" horiz-adv-x="1075" d="M59 512q0 256 124 395.5t354 139.5q231 0 355 -139.5t124 -395.5q0 -254 -128 -394.5t-351 -140.5q-229 0 -353.5 139.5t-124.5 395.5zM352 449q6 -184 48 -260t137 -76q94 0 136 75.5t48 260.5h-369zM352 575h369q-6 184 -48 259t-136 75q-95 0 -137 -74.5t-48 -259.5z " />
<glyph unicode="&#x4ea;" horiz-adv-x="1357" d="M74 664q0 319 156.5 503.5t445.5 184.5q291 0 449.5 -185.5t158.5 -502.5t-158.5 -502t-449.5 -185q-289 0 -445.5 183.5t-156.5 503.5zM355 1642q0 63 41 107q41 35 94 35t94 -35q41 -47 41 -107q0 -61 -41 -106q-41 -37 -94 -37q-55 0 -94 37q-41 41 -41 106zM385 602 q8 -252 75.5 -365.5t215.5 -113.5q147 0 217 113.5t78 365.5h-586zM385 729h586q-8 246 -79 360.5t-216 114.5q-144 0 -213.5 -114.5t-77.5 -360.5zM736 1642q0 63 41 107q39 35 94 35q53 0 94 -35q41 -47 41 -107q0 -61 -41 -106q-41 -37 -94 -37q-57 0 -94 37 q-41 41 -41 106z" />
<glyph unicode="&#x4eb;" horiz-adv-x="1075" d="M59 512q0 256 124 395.5t354 139.5q231 0 355 -139.5t124 -395.5q0 -254 -128 -394.5t-351 -140.5q-229 0 -353.5 139.5t-124.5 395.5zM213 1335q0 63 41 107q41 35 94 35t94 -35q41 -47 41 -107q0 -61 -41 -106q-41 -37 -94 -37q-55 0 -94 37q-41 41 -41 106zM352 449 q6 -184 48 -260t137 -76q94 0 136 75.5t48 260.5h-369zM352 575h369q-6 184 -48 259t-136 75q-95 0 -137 -74.5t-48 -259.5zM594 1335q0 63 41 107q39 35 94 35q53 0 94 -35q41 -47 41 -107q0 -61 -41 -106q-41 -37 -94 -37q-57 0 -94 37q-41 41 -41 106z" />
<glyph unicode="&#x4ec;" horiz-adv-x="1155" d="M23 166l81 123q0 -6 42 -46t113 -75t165 -35q158 0 241 102.5t95 358.5h-555v145h555q-4 186 -33 284.5t-93.5 137.5t-182.5 39q-68 0 -134.5 -20.5t-109.5 -42l-55 -27.5l-27 143q0 2 58.5 29t138 48.5t161.5 21.5q305 0 451.5 -178.5t146.5 -501.5q0 -207 -72.5 -363.5 t-207.5 -244t-314 -87.5q-153 0 -256.5 42t-155.5 90.5t-52 56.5zM211 1642q0 63 41 107q41 35 94 35t94 -35q41 -47 41 -107q0 -61 -41 -106q-41 -37 -94 -37q-55 0 -94 37q-41 41 -41 106zM592 1642q0 63 41 107q39 35 94 35q53 0 94 -35q41 -47 41 -107q0 -61 -41 -106 q-41 -37 -94 -37q-57 0 -94 37q-41 41 -41 106z" />
<glyph unicode="&#x4ed;" horiz-adv-x="923" d="M20 135l74 96q0 -4 34 -34.5t91 -56t133 -25.5q84 0 135.5 29.5t78 101t30.5 198.5l-393 -8v156h393q-4 127 -31.5 196.5t-76 96t-126.5 26.5q-49 0 -106 -17t-99 -35.5t-53 -24.5l-24 133q14 6 63.5 25.5t119 37t132.5 17.5q221 0 345 -134.5t124 -373.5 q0 -186 -64.5 -312.5t-173 -188t-241.5 -61.5q-125 0 -206 35t-120 75t-39 48zM119 1335q0 63 41 107q41 35 94 35t94 -35q41 -47 41 -107q0 -61 -41 -106q-41 -37 -94 -37q-55 0 -94 37q-41 41 -41 106zM500 1335q0 63 41 107q39 35 94 35q53 0 94 -35q41 -47 41 -107 q0 -61 -41 -106q-41 -37 -94 -37q-57 0 -94 37q-41 41 -41 106z" />
<glyph unicode="&#x4ee;" horiz-adv-x="1220" d="M47 1331h332l360 -741h6l242 741h189l-355 -921q-90 -229 -200.5 -331t-258.5 -102q-59 0 -104 11.5t-68.5 24t-29.5 16.5l37 172q6 -4 26.5 -14.5t57 -19.5t81.5 -9q78 0 131.5 28.5t102.5 110.5zM473 1585v119h438v-119h-438z" />
<glyph unicode="&#x4ef;" horiz-adv-x="985" d="M14 1024h330l250 -729l211 729h170l-354 -1047q-63 -174 -120 -282.5t-128.5 -169t-167.5 -60.5q-47 0 -83 7.5t-54.5 14.5t-22.5 9l23 160q8 -4 40.5 -13.5t65.5 -9.5q92 0 149.5 73t127.5 253zM338 1278v119h438v-119h-438z" />
<glyph unicode="&#x4f0;" horiz-adv-x="1220" d="M47 1331h332l360 -741h6l242 741h189l-355 -921q-90 -229 -200.5 -331t-258.5 -102q-59 0 -104 11.5t-68.5 24t-29.5 16.5l37 172q6 -4 26.5 -14.5t57 -19.5t81.5 -9q78 0 131.5 28.5t102.5 110.5zM367 1642q0 63 41 107q41 35 94 35t94 -35q41 -47 41 -107 q0 -61 -41 -106q-41 -37 -94 -37q-55 0 -94 37q-41 41 -41 106zM748 1642q0 63 41 107q39 35 94 35q53 0 94 -35q41 -47 41 -107q0 -61 -41 -106q-41 -37 -94 -37q-57 0 -94 37q-41 41 -41 106z" />
<glyph unicode="&#x4f1;" horiz-adv-x="985" d="M14 1024h330l250 -729l211 729h170l-354 -1047q-63 -174 -120 -282.5t-128.5 -169t-167.5 -60.5q-47 0 -83 7.5t-54.5 14.5t-22.5 9l23 160q8 -4 40.5 -13.5t65.5 -9.5q92 0 149.5 73t127.5 253zM232 1335q0 63 41 107q41 35 94 35t94 -35q41 -47 41 -107q0 -61 -41 -106 q-41 -37 -94 -37q-55 0 -94 37q-41 41 -41 106zM613 1335q0 63 41 107q39 35 94 35q53 0 94 -35q41 -47 41 -107q0 -61 -41 -106q-41 -37 -94 -37q-57 0 -94 37q-41 41 -41 106z" />
<glyph unicode="&#x4f2;" horiz-adv-x="1220" d="M47 1331h332l360 -741h6l242 741h189l-355 -921q-90 -229 -200.5 -331t-258.5 -102q-59 0 -104 11.5t-68.5 24t-29.5 16.5l37 172q6 -4 26.5 -14.5t57 -19.5t81.5 -9q78 0 131.5 28.5t102.5 110.5zM451 1505l108 313l189 -53l-193 -307zM768 1505l111 313l188 -53 l-194 -307z" />
<glyph unicode="&#x4f3;" horiz-adv-x="985" d="M14 1024h330l250 -729l211 729h170l-354 -1047q-63 -174 -120 -282.5t-128.5 -169t-167.5 -60.5q-47 0 -83 7.5t-54.5 14.5t-22.5 9l23 160q8 -4 40.5 -13.5t65.5 -9.5q92 0 149.5 73t127.5 253zM316 1198l108 313l189 -53l-193 -307zM633 1198l111 313l188 -53 l-194 -307z" />
<glyph unicode="&#x4f4;" horiz-adv-x="1200" d="M104 858v473h285v-438q0 -106 17.5 -164.5t53.5 -81t97 -22.5q66 0 118 17t83 34v655h284v-1331h-284v545l-28 -21q-28 -20 -105.5 -41.5t-171.5 -21.5q-182 0 -265.5 107.5t-83.5 289.5zM244 1642q0 63 41 107q41 35 94 35t94 -35q41 -47 41 -107q0 -61 -41 -106 q-41 -37 -94 -37q-55 0 -94 37q-41 41 -41 106zM625 1642q0 63 41 107q39 35 94 35q53 0 94 -35q41 -47 41 -107q0 -61 -41 -106q-41 -37 -94 -37q-57 0 -94 37q-41 41 -41 106z" />
<glyph unicode="&#x4f5;" horiz-adv-x="1013" d="M76 659v365h272v-373q0 -84 27.5 -120.5t89.5 -36.5q39 0 72.5 8t54 17t24.5 11v494h273v-1024h-273v422h-2q0 -2 -30.5 -15.5t-86 -25.5t-132.5 -12q-289 0 -289 290zM148 1335q0 63 41 107q41 35 94 35t94 -35q41 -47 41 -107q0 -61 -41 -106q-41 -37 -94 -37 q-55 0 -94 37q-41 41 -41 106zM529 1335q0 63 41 107q39 35 94 35q53 0 94 -35q41 -47 41 -107q0 -61 -41 -106q-41 -37 -94 -37q-57 0 -94 37q-41 41 -41 106z" />
<glyph unicode="&#x4f6;" horiz-adv-x="897" d="M158 0v1331h741v-147h-459v-1037h166l-57 -505h-154l-47 358h-190z" />
<glyph unicode="&#x4f7;" horiz-adv-x="761" d="M123 0v1024h616v-150h-344v-724h135l-30 -453h-144l-34 303h-199z" />
<glyph unicode="&#x4f8;" horiz-adv-x="1648" d="M158 0v1331h282v-510h97q252 0 387 -98t135 -295q0 -205 -130 -316.5t-384 -111.5h-387zM440 133h99q121 0 174 66.5t53 220.5q0 152 -55.5 212t-173.5 60h-97v-559zM500 1642q0 63 41 107q41 35 94 35t94 -35q41 -47 41 -107q0 -61 -41 -106q-41 -37 -94 -37 q-55 0 -94 37q-41 41 -41 106zM881 1642q0 63 41 107q39 35 94 35q53 0 94 -35q41 -47 41 -107q0 -61 -41 -106q-41 -37 -94 -37q-57 0 -94 37q-41 41 -41 106zM1208 0v1331h283v-1331h-283z" />
<glyph unicode="&#x4f9;" horiz-adv-x="1472" d="M123 0v1024h272v-352h97q453 0 452 -324q0 -178 -111.5 -263t-340.5 -85h-369zM395 123h84q86 0 130 48t44 177q0 117 -47 160t-127 43h-84v-428zM412 1335q0 63 41 107q41 35 94 35t94 -35q41 -47 41 -107q0 -61 -41 -106q-41 -37 -94 -37q-55 0 -94 37q-41 41 -41 106z M793 1335q0 63 41 107q39 35 94 35q53 0 94 -35q41 -47 41 -107q0 -61 -41 -106q-41 -37 -94 -37q-57 0 -94 37q-41 41 -41 106zM1077 0v1024h273v-1024h-273z" />
<glyph unicode="&#x4fa;" horiz-adv-x="1040" d="M20 549v143h179v639h809v-147h-527v-492h353v-143h-353v-402h166v-129q0 -205 -85 -296t-228 -91q-51 0 -79 10.5t-30 10.5l4 117q6 -2 29 -5.5t51 -3.5q61 0 96 47.5t35 176.5v16h-241v549h-179z" />
<glyph unicode="&#x4fb;" horiz-adv-x="782" d="M0 444v136h143v444h617v-150h-344v-294h248v-136h-248v-297h164v-116q0 -184 -74 -267t-199 -83q-45 0 -71.5 9t-28.5 9l4 106q6 -2 27.5 -5t48.5 -3q51 0 78.5 44t29.5 159h-252v444h-143z" />
<glyph unicode="&#x4fc;" horiz-adv-x="1136" d="M16 0l414 647l-395 684h354l246 -477h6l285 477h200l-389 -614q164 -258 243 -399.5t104.5 -216t25.5 -142.5q0 -104 -45 -202.5t-182 -196.5l-95 84q80 49 80 155q0 74 -69.5 227.5t-261.5 481.5h-7l-301 -508h-213z" />
<glyph unicode="&#x4fd;" horiz-adv-x="964" d="M18 0l332 504l-315 520h325l187 -354l176 354h186l-268 -457l170 -274q113 -182 113 -309q0 -94 -46.5 -187.5t-175.5 -185.5l-73 78q2 2 40 25.5t38 101.5q0 55 -30 129.5t-97 199.5l-131 246l-240 -391h-191z" />
<glyph unicode="&#x4fe;" horiz-adv-x="1189" d="M16 0l394 614h-267v140h226l-334 577h354l246 -477h6l285 477h200l-366 -577h264v-140h-225l375 -614h-353l-284 508h-7l-301 -508h-213z" />
<glyph unicode="&#x4ff;" horiz-adv-x="968" d="M18 0l295 463h-190v131h156l-244 430h325l170 -362l193 362h186l-264 -430h191v-131h-156l270 -463h-325l-193 383l-223 -383h-191z" />
<glyph unicode="&#x2000;" horiz-adv-x="909" />
<glyph unicode="&#x2001;" horiz-adv-x="1818" />
<glyph unicode="&#x2002;" horiz-adv-x="909" />
<glyph unicode="&#x2003;" horiz-adv-x="1818" />
<glyph unicode="&#x2004;" horiz-adv-x="606" />
<glyph unicode="&#x2005;" horiz-adv-x="454" />
<glyph unicode="&#x2006;" horiz-adv-x="303" />
<glyph unicode="&#x2007;" horiz-adv-x="303" />
<glyph unicode="&#x2008;" horiz-adv-x="227" />
<glyph unicode="&#x2009;" horiz-adv-x="363" />
<glyph unicode="&#x200a;" horiz-adv-x="101" />
<glyph unicode="&#x2010;" horiz-adv-x="681" d="M63 487v152h558v-152h-558z" />
<glyph unicode="&#x2011;" horiz-adv-x="681" d="M63 487v152h558v-152h-558z" />
<glyph unicode="&#x2012;" horiz-adv-x="681" d="M63 487v152h558v-152h-558z" />
<glyph unicode="&#x2013;" d="M63 487v152h949v-152h-949z" />
<glyph unicode="&#x2014;" horiz-adv-x="1388" d="M63 487v152h1264v-152h-1264z" />
<glyph unicode="&#x2018;" horiz-adv-x="370" d="M35 1085q0 119 66.5 253.5t162.5 213.5l72 -75q-70 -61 -114 -146.5t-48 -163.5h14q57 0 99 -34q41 -47 41 -107q0 -59 -41 -104q-41 -37 -99 -37q-55 0 -96 37q-8 6 -20 22q-37 57 -37 141z" />
<glyph unicode="&#x2019;" horiz-adv-x="368" d="M27 958q70 61 114.5 145.5t46.5 162.5h-14q-57 0 -98 37q-41 41 -41 104q0 66 41 106q41 37 98 37q55 0 98 -37l7 -8q49 -55 49 -155q0 -119 -66.5 -253t-163.5 -214z" />
<glyph unicode="&#x201a;" horiz-adv-x="368" d="M27 -272q70 61 114.5 146t46.5 163h-14q-57 0 -98 35q-41 41 -41 106q0 63 41 105q41 37 98 36q55 0 98 -36l9 -11q47 -55 47 -151q0 -117 -66.5 -253t-163.5 -216z" />
<glyph unicode="&#x201c;" horiz-adv-x="753" d="M35 1085q0 119 66.5 253.5t162.5 213.5l72 -75q-70 -61 -114 -146.5t-48 -163.5h14q57 0 99 -34q41 -47 41 -107q0 -59 -41 -104q-41 -37 -99 -37q-55 0 -96 37q-8 6 -20 22q-37 57 -37 141zM418 1085q0 119 66.5 253.5t162.5 213.5l72 -75q-70 -61 -114 -146.5 t-48 -163.5h14q57 0 99 -34q41 -47 41 -107q0 -59 -41 -104q-39 -37 -99 -37q-55 0 -96 37q-8 6 -20 22q-37 59 -37 141z" />
<glyph unicode="&#x201d;" horiz-adv-x="753" d="M27 958q70 61 114.5 145.5t46.5 162.5h-14q-57 0 -98 37q-41 41 -41 104q0 66 41 106q41 37 98 37q55 0 98 -37l7 -8q49 -55 49 -155q0 -119 -66.5 -253t-163.5 -214zM410 958q70 61 114.5 145.5t46.5 162.5h-14q-59 0 -98 37q-41 41 -41 104q0 66 41 106q39 37 98 37 q55 0 98 -37l7 -8q49 -55 49 -155q0 -119 -66.5 -253t-163.5 -214z" />
<glyph unicode="&#x201e;" horiz-adv-x="753" d="M27 -272q70 61 114.5 146t46.5 163h-14q-57 0 -98 35q-41 41 -41 106q0 63 41 105q41 37 98 36q55 0 98 -36l9 -11q47 -55 47 -151q0 -117 -66.5 -253t-163.5 -216zM410 -272q70 61 114.5 146t46.5 163h-14q-57 0 -98 35q-41 41 -41 106q0 63 41 105q41 37 98 36 q55 0 98 -36l9 -11q47 -55 47 -151q0 -117 -66.5 -253t-163.5 -216z" />
<glyph unicode="&#x2022;" horiz-adv-x="778" d="M123 676q0 111 74 190q72 63 176 64q104 0 174 -64q76 -82 76 -190q0 -53 -19.5 -102.5t-56.5 -88.5q-35 -33 -80 -49t-94 -16q-100 -1 -176 65q-37 37 -55.5 87.5t-18.5 103.5z" />
<glyph unicode="&#x2026;" horiz-adv-x="1656" d="M139 131q0 72 49 123q47 43 115 43t113 -43q49 -51 49 -123t-49 -121q-45 -43 -113 -43t-115 43q-49 49 -49 121zM664 131q0 72 49 123q47 43 114 43q68 0 113 -43q49 -51 49 -123t-49 -121q-45 -43 -113 -43q-67 0 -114 43q-49 49 -49 121zM1186 131q0 72 49 123 q45 43 115 43q68 0 112 -43q49 -51 49 -123t-49 -121q-45 -43 -112 -43q-70 0 -115 43q-49 49 -49 121z" />
<glyph unicode="&#x202f;" horiz-adv-x="363" />
<glyph unicode="&#x2039;" horiz-adv-x="720" d="M162 512l364 381l70 -76l-182 -307l182 -309l-72 -80z" />
<glyph unicode="&#x203a;" horiz-adv-x="720" d="M121 195l184 307l-182 311l74 80l358 -391l-360 -381z" />
<glyph unicode="&#x205f;" horiz-adv-x="454" />
<glyph unicode="&#x20ac;" horiz-adv-x="1163" d="M82 457v121h102q-2 27 -2 81v56l-100 10v121h111q68 504 528 504q88 0 164 -20.5t126 -44t50 -25.5l-31 -142q-10 6 -51 26.5t-102.5 40t-122.5 19.5q-92 0 -146.5 -31.5t-82 -108.5t-38.5 -218h447v-141h-451v-127h451v-144h-440q12 -127 45.5 -195.5t90 -95 t144.5 -26.5q76 0 140.5 32.5t106.5 71.5t42 43l53 -102q0 -8 -48 -55.5t-136 -88.5t-211 -41q-444 0 -522 467z" />
<glyph unicode="&#x2122;" horiz-adv-x="1630" d="M104 1421v115h633v-113l-241 -2v-602h-168v602h-224zM770 819l45 717h170l168 -569l197 569h163l17 -717h-158l-14 457l-160 -457h-147l-158 481l-12 -481h-111z" />
<glyph unicode="&#x25fc;" horiz-adv-x="1024" d="M0 0v1024h1024v-1024h-1024z" />
</font>
</defs>
</svg>
